SplineFontDB: 3.2
FontName: mono5by7ascii500w
FullName: mono5by7ascii500w
FamilyName: mono5by7ascii
Weight: Book
Copyright: Copyright (c) 2013 by Peter Wiegel. All rights reserved.
Version: 1.0
ItalicAngle: 0
UnderlinePosition: -100
UnderlineWidth: 50
Ascent: 800
Descent: 200
InvalidEm: 0
sfntRevision: 0x00010000
LayerCount: 2
Layer: 0 1 "Back" 1
Layer: 1 1 "Fore" 0
XUID: [1021 362 -792500644 16850]
StyleMap: 0x0040
FSType: 0
OS2Version: 3
OS2_WeightWidthSlopeOnly: 0
OS2_UseTypoMetrics: 0
CreationTime: 1364308095
ModificationTime: 1584913855
PfmFamily: 81
TTFWeight: 400
TTFWidth: 5
LineGap: 0
VLineGap: 0
Panose: 0 0 0 0 0 0 0 0 0 0
OS2TypoAscent: 700
OS2TypoAOffset: 0
OS2TypoDescent: 0
OS2TypoDOffset: 0
OS2TypoLinegap: 50
OS2WinAscent: 750
OS2WinAOffset: 0
OS2WinDescent: 250
OS2WinDOffset: 0
HheadAscent: 700
HheadAOffset: 0
HheadDescent: 0
HheadDOffset: 0
OS2SubXSize: 700
OS2SubYSize: 650
OS2SubXOff: 0
OS2SubYOff: 140
OS2SupXSize: 700
OS2SupYSize: 650
OS2SupXOff: 0
OS2SupYOff: 477
OS2StrikeYSize: 50
OS2StrikeYPos: 250
OS2CapHeight: 700
OS2XHeight: 500
OS2Vendor: 'pyrs'
OS2CodePages: 0000000d.00000000
OS2UnicodeRanges: a00002af.4000104a.00000000.00000000
MarkAttachClasses: 1
DEI: 91125
TtTable: prep
PUSHW_1
 10
CALL
PUSHW_1
 0
CALL
EndTTInstrs
TtTable: fpgm
PUSHW_1
 0
FDEF
MPPEM
PUSHW_1
 9
LT
IF
PUSHB_2
 1
 1
INSTCTRL
EIF
PUSHW_1
 511
SCANCTRL
PUSHW_1
 68
SCVTCI
PUSHW_2
 9
 3
SDS
SDB
ENDF
PUSHW_1
 1
FDEF
DUP
DUP
RCVT
ROUND[Black]
WCVTP
PUSHB_1
 1
ADD
ENDF
PUSHW_1
 2
FDEF
PUSHW_1
 1
LOOPCALL
POP
ENDF
PUSHW_1
 3
FDEF
DUP
GC[cur]
PUSHB_1
 3
CINDEX
GC[cur]
GT
IF
SWAP
EIF
DUP
ROLL
DUP
ROLL
MD[grid]
ABS
ROLL
DUP
GC[cur]
DUP
ROUND[Grey]
SUB
ABS
PUSHB_1
 4
CINDEX
GC[cur]
DUP
ROUND[Grey]
SUB
ABS
GT
IF
SWAP
NEG
ROLL
EIF
MDAP[rnd]
DUP
PUSHB_1
 0
GTEQ
IF
ROUND[Black]
DUP
PUSHB_1
 0
EQ
IF
POP
PUSHB_1
 64
EIF
ELSE
ROUND[Black]
DUP
PUSHB_1
 0
EQ
IF
POP
PUSHB_1
 64
NEG
EIF
EIF
MSIRP[no-rp0]
ENDF
PUSHW_1
 4
FDEF
DUP
GC[cur]
PUSHB_1
 4
CINDEX
GC[cur]
GT
IF
SWAP
ROLL
EIF
DUP
GC[cur]

StartChar: four
Encoding: 52 52 1
Width: 500
VWidth: 1024
Flags: W
LayerCount: 2
Fore
SplineSet
292 154 m 256,0,1
 292 174 292 174 304 188 c 0,2,3
 314 201 314 201 331 205 c 1,4,5
 315 207 315 207 304.5 219 c 128,-1,6
 294 231 294 231 292 251 c 1,7,8
 290 231 290 231 279 218 c 0,9,10
 267 205 267 205 250 205 c 128,-1,11
 233 205 233 205 221 218 c 0,12,13
 210 230 210 230 208 251 c 1,14,15
 206 231 206 231 194 218 c 128,-1,16
 182 205 182 205 165 205 c 128,-1,17
 148 205 148 205 136 218 c 0,18,19
 124 230 124 230 122 251 c 1,20,21
 120 231 120 231 108.5 218 c 128,-1,22
 97 205 97 205 79 205 c 128,-1,23
 61 205 61 205 49 219.5 c 128,-1,24
 37 234 37 234 37 256 c 0,25,26
 37 276 37 276 48 291 c 0,27,28
 58 304 58 304 75 307 c 1,29,30
 58 309 58 309 48 324 c 0,31,32
 37 338 37 338 37 358 c 0,33,34
 37 380 37 380 49.5 395 c 128,-1,35
 62 410 62 410 79 410 c 0,36,37
 97 410 97 410 109.5 395 c 128,-1,38
 122 380 122 380 122 358 c 0,39,40
 122 338 122 338 111 323.5 c 128,-1,41
 100 309 100 309 84 307 c 1,42,43
 98 304 98 304 109 292 c 0,44,45
 120 279 120 279 122 260 c 1,46,47
 124 280 124 280 136 293.5 c 128,-1,48
 148 307 148 307 165 307 c 0,49,50
 183 307 183 307 195.5 292.5 c 128,-1,51
 208 278 208 278 208 256 c 1,52,53
 208 278 208 278 220 292.5 c 128,-1,54
 232 307 232 307 250 307 c 128,-1,55
 268 307 268 307 280 292 c 0,56,57
 290 279 290 279 292 260 c 1,58,59
 293 277 293 277 304 291 c 0,60,61
 314 304 314 304 331 307 c 1,62,63
 314 309 314 309 304 324 c 0,64,65
 292 338 292 338 292 358 c 128,-1,66
 292 378 292 378 304 393 c 0,67,68
 314 406 314 406 331 410 c 1,69,70
 314 412 314 412 304 426 c 0,71,72
 292 440 292 440 292 461 c 0,73,74
 292 481 292 481 304 496 c 0,75,76
 314 509 314 509 331 512 c 1,77,78
 315 514 315 514 304.5 526.5 c 128,-1,79
 294 539 294 539 292 558 c 1,80,81
 290 538 290 538 279 525 c 0,82,83
 267 512 267 512 250 512 c 0,84,85
 232 512 232 512 220 527 c 128,-1,86
 208 542 208 542 208 563 c 0,87,88
 208 585 208 585 220 599.5 c 128,-1,89
 232 614 232 614 250 614 c 0,90,91
 267 614 267 614 279 601 c 0,92,93
 290 588 290 588 292 567 c 1,94,95
 294 585 294 585 305 599 c 0,96,97
 315 611 315 611 331 614 c 1,98,99
 314 616 314 616 304 631 c 0,100,101
 292 645 292 645 292 666 c 0,102,103
 292 688 292 688 305 702.5 c 128,-1,104
 318 717 318 717 336 717 c 256,105,106
 354 717 354 717 366 702 c 128,-1,107
 378 687 378 687 378 666 c 0,108,109
 378 646 378 646 367 631 c 128,-1,110
 356 616 356 616 340 614 c 1,111,112
 356 611 356 611 367 598 c 0,113,114
 378 584 378 584 378 563 c 0,115,116
 378 543 378 543 367 528.5 c 128,-1,117
 356 514 356 514 340 512 c 1,118,119
 356 509 356 509 367 496 c 0,120,121
 378 482 378 482 378 461 c 0,122,123
 378 441 378 441 367 426.5 c 128,-1,124
 356 412 356 412 340 410 c 1,125,126
 356 407 356 407 367 393 c 128,-1,127
 378 379 378 379 378 358 c 0,128,129
 378 338 378 338 367 323.5 c 128,-1,130
 356 309 356 309 340 307 c 1,131,132
 354 304 354 304 365 291.5 c 128,-1,133
 376 279 376 279 378 261 c 1,134,135
 380 280 380 280 392 293.5 c 128,-1,136
 404 307 404 307 421 307 c 0,137,138
 439 307 439 307 451 292.5 c 128,-1,139
 463 278 463 278 463 256 c 256,140,141
 463 234 463 234 451 219.5 c 128,-1,142
 439 205 439 205 421 205 c 0,143,144
 404 205 404 205 392 218 c 0,145,146
 380 230 380 230 378 251 c 1,147,148
 376 232 376 232 365 219.5 c 128,-1,149
 354 207 354 207 340 205 c 1,150,151
 356 202 356 202 367 188 c 128,-1,152
 378 174 378 174 378 154 c 128,-1,153
 378 134 378 134 367 119 c 128,-1,154
 356 104 356 104 340 102 c 1,155,156
 356 99 356 99 367 86 c 0,157,158
 378 72 378 72 378 51 c 0,159,160
 378 29 378 29 365.5 14.5 c 128,-1,161
 353 0 353 0 336 0 c 0,162,163
 318 0 318 0 305 15 c 128,-1,164
 292 30 292 30 292 51 c 0,165,166
 292 71 292 71 304 86 c 0,167,168
 314 99 314 99 331 102 c 1,169,170
 314 104 314 104 304 119 c 0,171,172
 292 134 292 134 292 154 c 256,0,1
122 461 m 256,173,174
 122 483 122 483 134.5 497.5 c 128,-1,175
 147 512 147 512 165 512 c 256,176,177
 183 512 183 512 195.5 497 c 128,-1,178
 208 482 208 482 208 461 c 0,179,180
 208 439 208 439 195 424.5 c 128,-1,181
 182 410 182 410 165 410 c 0,182,183
 147 410 147 410 134.5 424.5 c 128,-1,184
 122 439 122 439 122 461 c 256,173,174
EndSplineSet
EndChar

StartChar: five
Encoding: 53 53 2
Width: 500
VWidth: 1024
Flags: W
LayerCount: 2
Fore
SplineSet
37 666 m 0,0,1
 37 688 37 688 49.5 702.5 c 128,-1,2
 62 717 62 717 79 717 c 0,3,4
 80 717 80 717 81 717 c 0,5,6
 97 717 97 717 108 704 c 0,7,8
 120 690 120 690 122 670 c 1,9,10
 124 690 124 690 136 703.5 c 128,-1,11
 148 717 148 717 165 717 c 0,12,13
 183 717 183 717 195.5 702 c 128,-1,14
 208 687 208 687 208 666 c 1,15,16
 208 688 208 688 220 702.5 c 128,-1,17
 232 717 232 717 250 717 c 0,18,19
 267 717 267 717 279 703 c 0,20,21
 290 690 290 690 292 671 c 1,22,23
 294 690 294 690 306 703.5 c 128,-1,24
 318 717 318 717 336 717 c 128,-1,25
 354 717 354 717 366 702 c 128,-1,26
 378 687 378 687 378 666 c 1,27,28
 378 688 378 688 390 702.5 c 128,-1,29
 402 717 402 717 421 717 c 256,30,31
 439 717 439 717 451 702 c 128,-1,32
 463 687 463 687 463 666 c 0,33,34
 463 644 463 644 451 629 c 128,-1,35
 439 614 439 614 421 614 c 0,36,37
 404 614 404 614 392 628 c 0,38,39
 380 640 380 640 378 660 c 1,40,41
 376 640 376 640 364 628 c 0,42,43
 352 615 352 615 336 614 c 0,44,45
 319 614 319 614 307 628 c 0,46,47
 294 640 294 640 292 660 c 1,48,49
 290 640 290 640 279 628 c 0,50,51
 267 615 267 615 250 614 c 0,52,53
 233 614 233 614 221 628 c 0,54,55
 210 640 210 640 208 660 c 1,56,57
 206 640 206 640 194 628 c 0,58,59
 182 615 182 615 165 614 c 0,60,61
 148 614 148 614 136 628 c 0,62,63
 124 640 124 640 122 660 c 1,64,65
 120 641 120 641 109 628.5 c 128,-1,66
 98 616 98 616 84 614 c 1,67,68
 100 611 100 611 111 598 c 0,69,70
 122 584 122 584 122 563 c 0,71,72
 122 543 122 543 111 528.5 c 128,-1,73
 100 514 100 514 84 512 c 1,74,75
 98 509 98 509 109 496 c 128,-1,76
 120 483 120 483 122 466 c 1,77,78
 124 485 124 485 136 498.5 c 128,-1,79
 148 512 148 512 165 512 c 0,80,81
 183 512 183 512 195 497 c 0,82,83
 206 484 206 484 208 465 c 1,84,85
 209 483 209 483 219 497 c 0,86,87
 231 512 231 512 250 512 c 256,88,89
 268 512 268 512 280 497 c 128,-1,90
 292 482 292 482 292 461 c 1,91,92
 292 483 292 483 305 497.5 c 128,-1,93
 318 512 318 512 336 512 c 256,94,95
 354 512 354 512 366 497 c 128,-1,96
 378 482 378 482 378 461 c 0,97,98
 378 439 378 439 365.5 424.5 c 128,-1,99
 353 410 353 410 336 410 c 128,-1,100
 319 410 319 410 307 423 c 0,101,102
 294 435 294 435 292 456 c 1,103,104
 290 436 290 436 279 423 c 0,105,106
 267 410 267 410 250 410 c 128,-1,107
 233 410 233 410 221 423 c 0,108,109
 210 435 210 435 208 456 c 1,110,111
 206 436 206 436 194 423 c 128,-1,112
 182 410 182 410 165 410 c 128,-1,113
 148 410 148 410 136 423 c 0,114,115
 124 435 124 435 122 456 c 1,116,117
 120 436 120 436 108.5 423 c 128,-1,118
 97 410 97 410 79 410 c 128,-1,119
 61 410 61 410 49 424.5 c 128,-1,120
 37 439 37 439 37 461 c 0,121,122
 37 481 37 481 48 496 c 0,123,124
 58 509 58 509 75 512 c 1,125,126
 58 514 58 514 48 528 c 0,127,128
 37 542 37 542 37 563 c 0,129,130
 37 583 37 583 48 598 c 0,131,132
 58 611 58 611 75 614 c 1,133,134
 58 616 58 616 48 631 c 0,135,136
 37 646 37 646 37 666 c 0,0,1
122 51 m 256,137,138
 122 73 122 73 134.5 87.5 c 128,-1,139
 147 102 147 102 165 102 c 0,140,141
 182 102 182 102 194 89 c 128,-1,142
 206 76 206 76 208 56 c 1,143,144
 210 75 210 75 221.5 88.5 c 128,-1,145
 233 102 233 102 250 102 c 256,146,147
 267 102 267 102 279 89 c 0,148,149
 290 76 290 76 292 55 c 1,150,151
 294 75 294 75 306 88.5 c 128,-1,152
 318 102 318 102 336 102 c 128,-1,153
 354 102 354 102 366 87.5 c 128,-1,154
 378 73 378 73 378 51 c 256,155,156
 378 29 378 29 365.5 14.5 c 128,-1,157
 353 0 353 0 336 0 c 128,-1,158
 319 0 319 0 307 13 c 0,159,160
 294 25 294 25 292 46 c 1,161,162
 290 26 290 26 279 13 c 0,163,164
 267 0 267 0 250 0 c 128,-1,165
 233 0 233 0 221 13 c 0,166,167
 210 25 210 25 208 46 c 1,168,169
 206 26 206 26 194 13 c 128,-1,170
 182 0 182 0 165 0 c 0,171,172
 147 0 147 0 134.5 14.5 c 128,-1,173
 122 29 122 29 122 51 c 256,137,138
378 256 m 256,174,175
 378 276 378 276 389 291 c 0,176,177
 399 304 399 304 417 307 c 1,178,179
 400 309 400 309 389 324 c 0,180,181
 378 338 378 338 378 358 c 0,182,183
 378 380 378 380 390 395 c 128,-1,184
 402 410 402 410 421 410 c 256,185,186
 439 410 439 410 451 395 c 128,-1,187
 463 380 463 380 463 358 c 0,188,189
 463 338 463 338 452.5 323.5 c 128,-1,190
 442 309 442 309 425 307 c 1,191,192
 440 304 440 304 452 291 c 0,193,194
 463 277 463 277 463 256 c 0,195,196
 463 236 463 236 452.5 221.5 c 128,-1,197
 442 207 442 207 425 205 c 1,198,199
 440 202 440 202 452 188 c 0,200,201
 463 174 463 174 463 154 c 0,202,203
 463 132 463 132 451 117 c 128,-1,204
 439 102 439 102 421 102 c 256,205,206
 403 102 403 102 390.5 117 c 128,-1,207
 378 132 378 132 378 154 c 0,208,209
 378 174 378 174 389 188 c 0,210,211
 399 201 399 201 417 205 c 1,212,213
 400 207 400 207 389 221 c 0,214,215
 378 236 378 236 378 256 c 256,174,175
37 154 m 256,216,217
 37 176 37 176 49.5 190.5 c 128,-1,218
 62 205 62 205 79 205 c 0,219,220
 97 205 97 205 109.5 190 c 128,-1,221
 122 175 122 175 122 154 c 0,222,223
 122 132 122 132 110 117 c 128,-1,224
 98 102 98 102 79 102 c 256,225,226
 61 102 61 102 49 117 c 128,-1,227
 37 132 37 132 37 154 c 256,216,217
EndSplineSet
EndChar

StartChar: six
Encoding: 54 54 3
Width: 500
VWidth: 1024
Flags: W
LayerCount: 2
Fore
SplineSet
37 461 m 0,0,1
 37 483 37 483 49.5 497.5 c 128,-1,2
 62 512 62 512 79 512 c 0,3,4
 97 512 97 512 109.5 497 c 128,-1,5
 122 482 122 482 122 461 c 0,6,7
 122 441 122 441 111 426.5 c 128,-1,8
 100 412 100 412 84 410 c 1,9,10
 100 407 100 407 111 393 c 128,-1,11
 122 379 122 379 122 358 c 1,12,13
 122 380 122 380 134.5 395 c 128,-1,14
 147 410 147 410 165 410 c 0,15,16
 182 410 182 410 194 396 c 0,17,18
 206 383 206 383 208 364 c 1,19,20
 210 383 210 383 221.5 396.5 c 128,-1,21
 233 410 233 410 250 410 c 0,22,23
 268 410 268 410 280 394 c 0,24,25
 290 381 290 381 292 362 c 1,26,27
 293 380 293 380 305 394 c 0,28,29
 317 409 317 409 336 410 c 0,30,31
 354 410 354 410 366 395 c 128,-1,32
 378 380 378 380 378 358 c 256,33,34
 378 336 378 336 365.5 321.5 c 128,-1,35
 353 307 353 307 336 307 c 0,36,37
 319 307 319 307 307 321 c 0,38,39
 294 333 294 333 292 353 c 1,40,41
 290 333 290 333 279 321 c 0,42,43
 267 308 267 308 250 307 c 0,44,45
 233 307 233 307 221 321 c 0,46,47
 210 333 210 333 208 353 c 1,48,49
 206 333 206 333 194 321 c 0,50,51
 182 308 182 308 165 307 c 0,52,53
 148 307 148 307 136 321 c 0,54,55
 124 333 124 333 122 353 c 1,56,57
 120 334 120 334 109 321.5 c 128,-1,58
 98 309 98 309 84 307 c 1,59,60
 100 304 100 304 111 291 c 0,61,62
 122 277 122 277 122 256 c 0,63,64
 122 236 122 236 111 221.5 c 128,-1,65
 100 207 100 207 84 205 c 1,66,67
 100 202 100 202 111 188 c 128,-1,68
 122 174 122 174 122 154 c 0,69,70
 122 132 122 132 110 117 c 128,-1,71
 98 102 98 102 79 102 c 256,72,73
 61 102 61 102 49 117 c 128,-1,74
 37 132 37 132 37 154 c 0,75,76
 37 174 37 174 48 188 c 0,77,78
 58 201 58 201 75 205 c 1,79,80
 58 207 58 207 48 221 c 0,81,82
 37 235 37 235 37 256 c 0,83,84
 37 276 37 276 48 291 c 0,85,86
 58 304 58 304 75 307 c 1,87,88
 58 309 58 309 48 324 c 0,89,90
 37 338 37 338 37 358 c 0,91,92
 37 378 37 378 48 393 c 0,93,94
 58 406 58 406 75 410 c 1,95,96
 58 412 58 412 48 426 c 0,97,98
 37 441 37 441 37 461 c 0,0,1
122 51 m 256,99,100
 122 73 122 73 134.5 87.5 c 128,-1,101
 147 102 147 102 165 102 c 0,102,103
 182 102 182 102 194 89 c 0,104,105
 206 76 206 76 208 56 c 1,106,107
 210 75 210 75 221.5 88.5 c 128,-1,108
 233 102 233 102 250 102 c 256,109,110
 267 102 267 102 279 89 c 0,111,112
 290 76 290 76 292 56 c 1,113,114
 294 75 294 75 306 88.5 c 128,-1,115
 318 102 318 102 336 102 c 0,116,117
 354 102 354 102 366 87.5 c 128,-1,118
 378 73 378 73 378 51 c 256,119,120
 378 29 378 29 365.5 14.5 c 128,-1,121
 353 0 353 0 336 0 c 0,122,123
 319 0 319 0 307 13 c 0,124,125
 294 25 294 25 292 46 c 1,126,127
 290 26 290 26 279 13 c 0,128,129
 267 0 267 0 250 0 c 0,130,131
 233 0 233 0 221 13 c 0,132,133
 210 25 210 25 208 46 c 1,134,135
 206 26 206 26 194 13 c 0,136,137
 182 0 182 0 165 0 c 0,138,139
 147 0 147 0 134.5 14.5 c 128,-1,140
 122 29 122 29 122 51 c 256,99,100
208 666 m 256,141,142
 208 688 208 688 220 702.5 c 128,-1,143
 232 717 232 717 250 717 c 0,144,145
 267 717 267 717 279 703 c 0,146,147
 290 690 290 690 292 671 c 1,148,149
 294 690 294 690 306 703.5 c 128,-1,150
 318 717 318 717 336 717 c 0,151,152
 354 717 354 717 366 702 c 128,-1,153
 378 687 378 687 378 666 c 0,154,155
 378 644 378 644 365.5 629 c 128,-1,156
 353 614 353 614 336 614 c 0,157,158
 319 614 319 614 307 628 c 0,159,160
 294 640 294 640 292 660 c 1,161,162
 290 640 290 640 279 628 c 0,163,164
 267 615 267 615 250 614 c 0,165,166
 232 614 232 614 220 629 c 128,-1,167
 208 644 208 644 208 666 c 256,141,142
378 154 m 0,168,169
 378 174 378 174 389 188 c 0,170,171
 399 201 399 201 417 205 c 1,172,173
 400 207 400 207 389 221 c 128,-1,174
 378 235 378 235 378 256 c 0,175,176
 378 278 378 278 390 292.5 c 128,-1,177
 402 307 402 307 421 307 c 256,178,179
 439 307 439 307 451 292.5 c 128,-1,180
 463 278 463 278 463 256 c 0,181,182
 463 236 463 236 452.5 221.5 c 128,-1,183
 442 207 442 207 425 205 c 1,184,185
 440 202 440 202 452 188 c 0,186,187
 463 174 463 174 463 154 c 0,188,189
 463 132 463 132 451 117 c 128,-1,190
 439 102 439 102 421 102 c 256,191,192
 403 102 403 102 390.5 117 c 128,-1,193
 378 132 378 132 378 154 c 0,168,169
122 563 m 256,194,195
 122 585 122 585 134.5 599.5 c 128,-1,196
 147 614 147 614 165 614 c 256,197,198
 183 614 183 614 195.5 599.5 c 128,-1,199
 208 585 208 585 208 563 c 256,200,201
 208 541 208 541 195 526.5 c 128,-1,202
 182 512 182 512 165 512 c 0,203,204
 147 512 147 512 134.5 526.5 c 128,-1,205
 122 541 122 541 122 563 c 256,194,195
EndSplineSet
EndChar

StartChar: seven
Encoding: 55 55 4
Width: 500
VWidth: 1024
Flags: W
LayerCount: 2
Fore
SplineSet
378 563 m 0,0,1
 378 583 378 583 389 598 c 0,2,3
 399 611 399 611 417 614 c 1,4,5
 401 616 401 616 390.5 628.5 c 128,-1,6
 380 641 380 641 378 660 c 1,7,8
 376 640 376 640 364 628 c 0,9,10
 352 615 352 615 336 614 c 0,11,12
 319 614 319 614 307 628 c 0,13,14
 294 640 294 640 292 660 c 1,15,16
 290 640 290 640 279 628 c 0,17,18
 267 615 267 615 250 614 c 0,19,20
 233 614 233 614 221 628 c 0,21,22
 210 640 210 640 208 660 c 1,23,24
 206 640 206 640 194 628 c 0,25,26
 182 615 182 615 165 614 c 0,27,28
 148 614 148 614 136 628 c 0,29,30
 124 640 124 640 122 660 c 1,31,32
 120 640 120 640 108 628 c 0,33,34
 96 615 96 615 79 614 c 0,35,36
 61 614 61 614 49 629 c 128,-1,37
 37 644 37 644 37 666 c 256,38,39
 37 688 37 688 49.5 702.5 c 128,-1,40
 62 717 62 717 79 717 c 0,41,42
 80 717 80 717 81 717 c 0,43,44
 97 717 97 717 108 704 c 0,45,46
 120 690 120 690 122 670 c 1,47,48
 124 690 124 690 136 703.5 c 128,-1,49
 148 717 148 717 165 717 c 128,-1,50
 182 717 182 717 194 703 c 0,51,52
 206 690 206 690 208 671 c 1,53,54
 210 690 210 690 221.5 703.5 c 128,-1,55
 233 717 233 717 250 717 c 256,56,57
 251 717 251 717 252 717 c 0,58,59
 268 717 268 717 279 704 c 0,60,61
 290 690 290 690 292 670 c 1,62,63
 294 690 294 690 306 703.5 c 128,-1,64
 318 717 318 717 336 717 c 128,-1,65
 354 717 354 717 366 702 c 128,-1,66
 378 687 378 687 378 666 c 1,67,68
 378 688 378 688 390 702.5 c 128,-1,69
 402 717 402 717 421 717 c 256,70,71
 439 717 439 717 451 702 c 128,-1,72
 463 687 463 687 463 666 c 0,73,74
 463 646 463 646 452.5 631 c 128,-1,75
 442 616 442 616 425 614 c 1,76,77
 440 611 440 611 452 598 c 0,78,79
 463 584 463 584 463 563 c 0,80,81
 463 541 463 541 451 526.5 c 128,-1,82
 439 512 439 512 421 512 c 256,83,84
 403 512 403 512 390.5 526.5 c 128,-1,85
 378 541 378 541 378 563 c 0,0,1
208 256 m 256,86,87
 208 276 208 276 218 291 c 0,88,89
 228 304 228 304 246 307 c 1,90,91
 229 309 229 309 218 324 c 0,92,93
 208 338 208 338 208 358 c 0,94,95
 208 380 208 380 220 395 c 128,-1,96
 232 410 232 410 250 410 c 128,-1,97
 268 410 268 410 280 395 c 128,-1,98
 292 380 292 380 292 358 c 0,99,100
 292 338 292 338 281.5 323.5 c 128,-1,101
 271 309 271 309 254 307 c 1,102,103
 270 304 270 304 282 291 c 0,104,105
 292 277 292 277 292 256 c 0,106,107
 292 236 292 236 281.5 221.5 c 128,-1,108
 271 207 271 207 254 205 c 1,109,110
 270 202 270 202 282 188 c 0,111,112
 292 174 292 174 292 154 c 256,113,114
 292 134 292 134 281.5 119 c 128,-1,115
 271 104 271 104 254 102 c 1,116,117
 270 99 270 99 282 86 c 0,118,119
 292 72 292 72 292 51 c 0,120,121
 292 29 292 29 280 14.5 c 128,-1,122
 268 0 268 0 250 0 c 256,123,124
 232 0 232 0 220 15 c 128,-1,125
 208 30 208 30 208 51 c 0,126,127
 208 71 208 71 218 86 c 0,128,129
 228 99 228 99 246 102 c 1,130,131
 229 104 229 104 218 119 c 0,132,133
 208 133 208 133 208 154 c 0,134,135
 208 174 208 174 218 188 c 0,136,137
 228 201 228 201 246 205 c 1,138,139
 229 207 229 207 218 221 c 0,140,141
 208 236 208 236 208 256 c 256,86,87
292 461 m 256,142,143
 292 483 292 483 305 497.5 c 128,-1,144
 318 512 318 512 336 512 c 256,145,146
 354 512 354 512 366 497 c 128,-1,147
 378 482 378 482 378 461 c 0,148,149
 378 439 378 439 365.5 424.5 c 128,-1,150
 353 410 353 410 336 410 c 0,151,152
 318 410 318 410 305 424.5 c 128,-1,153
 292 439 292 439 292 461 c 256,142,143
EndSplineSet
EndChar

StartChar: eight
Encoding: 56 56 5
Width: 500
VWidth: 1024
Flags: W
LayerCount: 2
Fore
SplineSet
122 666 m 256,0,1
 122 688 122 688 134.5 702.5 c 128,-1,2
 147 717 147 717 165 717 c 256,3,4
 183 717 183 717 195 701 c 0,5,6
 206 688 206 688 208 670 c 1,7,8
 209 688 209 688 219 701 c 0,9,10
 231 716 231 716 250 717 c 0,11,12
 268 717 268 717 280 702 c 128,-1,13
 292 687 292 687 292 666 c 1,14,15
 292 688 292 688 305 702.5 c 128,-1,16
 318 717 318 717 336 717 c 256,17,18
 354 717 354 717 366 702 c 128,-1,19
 378 687 378 687 378 666 c 0,20,21
 378 644 378 644 365.5 629 c 128,-1,22
 353 614 353 614 336 614 c 0,23,24
 319 614 319 614 307 628 c 0,25,26
 294 640 294 640 292 660 c 1,27,28
 290 640 290 640 279 628 c 0,29,30
 267 615 267 615 250 614 c 0,31,32
 233 614 233 614 221 628 c 0,33,34
 210 640 210 640 208 660 c 1,35,36
 206 640 206 640 194 628 c 0,37,38
 182 615 182 615 165 614 c 0,39,40
 147 614 147 614 134.5 629 c 128,-1,41
 122 644 122 644 122 666 c 256,0,1
122 358 m 256,42,43
 122 380 122 380 134.5 395 c 128,-1,44
 147 410 147 410 165 410 c 256,45,46
 183 410 183 410 195.5 395 c 128,-1,47
 208 380 208 380 208 358 c 1,48,49
 208 380 208 380 220 395 c 128,-1,50
 232 410 232 410 250 410 c 0,51,52
 268 410 268 410 280 394 c 0,53,54
 290 381 290 381 292 362 c 1,55,56
 293 380 293 380 305 394 c 0,57,58
 317 409 317 409 336 410 c 0,59,60
 354 410 354 410 366 395 c 128,-1,61
 378 380 378 380 378 358 c 256,62,63
 378 336 378 336 365.5 321.5 c 128,-1,64
 353 307 353 307 336 307 c 0,65,66
 319 307 319 307 307 321 c 0,67,68
 294 333 294 333 292 353 c 1,69,70
 290 333 290 333 279 321 c 0,71,72
 267 308 267 308 250 307 c 0,73,74
 233 307 233 307 221 321 c 0,75,76
 210 333 210 333 208 353 c 1,77,78
 206 333 206 333 194 321 c 0,79,80
 182 308 182 308 165 307 c 0,81,82
 147 307 147 307 134.5 321.5 c 128,-1,83
 122 336 122 336 122 358 c 256,42,43
122 51 m 256,84,85
 122 73 122 73 134.5 87.5 c 128,-1,86
 147 102 147 102 165 102 c 0,87,88
 182 102 182 102 194 89 c 128,-1,89
 206 76 206 76 208 55 c 1,90,91
 210 75 210 75 221.5 88.5 c 128,-1,92
 233 102 233 102 250 102 c 0,93,94
 268 102 268 102 280 87.5 c 128,-1,95
 292 73 292 73 292 51 c 1,96,97
 292 73 292 73 305 87.5 c 128,-1,98
 318 102 318 102 336 102 c 256,99,100
 354 102 354 102 366 87.5 c 128,-1,101
 378 73 378 73 378 51 c 256,102,103
 378 29 378 29 365.5 14.5 c 128,-1,104
 353 0 353 0 336 0 c 0,105,106
 319 0 319 0 307 13 c 0,107,108
 294 25 294 25 292 46 c 1,109,110
 290 26 290 26 279 13 c 0,111,112
 267 0 267 0 250 0 c 0,113,114
 233 0 233 0 221 13 c 0,115,116
 210 25 210 25 208 46 c 1,117,118
 206 26 206 26 194 13 c 0,119,120
 182 0 182 0 165 0 c 0,121,122
 147 0 147 0 134.5 14.5 c 128,-1,123
 122 29 122 29 122 51 c 256,84,85
37 563 m 0,124,125
 37 585 37 585 49.5 599.5 c 128,-1,126
 62 614 62 614 79 614 c 0,127,128
 97 614 97 614 109.5 599.5 c 128,-1,129
 122 585 122 585 122 563 c 0,130,131
 122 543 122 543 111 528.5 c 128,-1,132
 100 514 100 514 84 512 c 1,133,134
 100 509 100 509 111 496 c 0,135,136
 122 482 122 482 122 461 c 0,137,138
 122 439 122 439 110 424.5 c 128,-1,139
 98 410 98 410 79 410 c 256,140,141
 61 410 61 410 49 424.5 c 128,-1,142
 37 439 37 439 37 461 c 0,143,144
 37 481 37 481 48 496 c 0,145,146
 58 509 58 509 75 512 c 1,147,148
 58 514 58 514 48 528 c 0,149,150
 37 543 37 543 37 563 c 0,124,125
37 154 m 0,151,152
 37 174 37 174 48 188 c 0,153,154
 58 201 58 201 75 205 c 1,155,156
 58 207 58 207 48 221 c 0,157,158
 37 235 37 235 37 256 c 0,159,160
 37 278 37 278 49.5 292.5 c 128,-1,161
 62 307 62 307 79 307 c 0,162,163
 97 307 97 307 109.5 292.5 c 128,-1,164
 122 278 122 278 122 256 c 0,165,166
 122 236 122 236 111 221.5 c 128,-1,167
 100 207 100 207 84 205 c 1,168,169
 100 202 100 202 111 188 c 128,-1,170
 122 174 122 174 122 154 c 0,171,172
 122 132 122 132 110 117 c 128,-1,173
 98 102 98 102 79 102 c 256,174,175
 61 102 61 102 49 117 c 128,-1,176
 37 132 37 132 37 154 c 0,151,152
378 563 m 0,177,178
 378 585 378 585 390 599.5 c 128,-1,179
 402 614 402 614 421 614 c 256,180,181
 439 614 439 614 451 599.5 c 128,-1,182
 463 585 463 585 463 563 c 0,183,184
 463 543 463 543 452.5 528.5 c 128,-1,185
 442 514 442 514 425 512 c 1,186,187
 440 509 440 509 452 496 c 0,188,189
 463 482 463 482 463 461 c 0,190,191
 463 439 463 439 451 424.5 c 128,-1,192
 439 410 439 410 421 410 c 256,193,194
 403 410 403 410 390.5 424.5 c 128,-1,195
 378 439 378 439 378 461 c 0,196,197
 378 481 378 481 389 496 c 0,198,199
 399 509 399 509 417 512 c 1,200,201
 400 514 400 514 389 528 c 0,202,203
 378 543 378 543 378 563 c 0,177,178
378 154 m 0,204,205
 378 174 378 174 389 188 c 0,206,207
 399 201 399 201 417 205 c 1,208,209
 400 207 400 207 389 221 c 128,-1,210
 378 235 378 235 378 256 c 0,211,212
 378 278 378 278 390 292.5 c 128,-1,213
 402 307 402 307 421 307 c 256,214,215
 439 307 439 307 451 292.5 c 128,-1,216
 463 278 463 278 463 256 c 0,217,218
 463 236 463 236 452.5 221.5 c 128,-1,219
 442 207 442 207 425 205 c 1,220,221
 440 202 440 202 452 188 c 0,222,223
 463 174 463 174 463 154 c 0,224,225
 463 132 463 132 451 117 c 128,-1,226
 439 102 439 102 421 102 c 256,227,228
 403 102 403 102 390.5 117 c 128,-1,229
 378 132 378 132 378 154 c 0,204,205
EndSplineSet
EndChar

StartChar: nine
Encoding: 57 57 6
Width: 500
VWidth: 1024
Flags: W
LayerCount: 2
Fore
SplineSet
378 256 m 0,0,1
 378 276 378 276 389 291 c 0,2,3
 399 304 399 304 417 307 c 1,4,5
 401 309 401 309 390.5 321.5 c 128,-1,6
 380 334 380 334 378 353 c 1,7,8
 376 333 376 333 364 321 c 0,9,10
 352 308 352 308 336 307 c 0,11,12
 319 307 319 307 307 321 c 0,13,14
 294 333 294 333 292 353 c 1,15,16
 290 333 290 333 279 321 c 0,17,18
 267 308 267 308 250 307 c 0,19,20
 233 307 233 307 221 321 c 0,21,22
 210 333 210 333 208 353 c 1,23,24
 206 333 206 333 194 321 c 0,25,26
 182 308 182 308 165 307 c 0,27,28
 147 307 147 307 134.5 322 c 128,-1,29
 122 337 122 337 122 358 c 0,30,31
 122 380 122 380 134.5 395 c 128,-1,32
 147 410 147 410 165 410 c 256,33,34
 183 410 183 410 195 394 c 0,35,36
 206 381 206 381 208 362 c 1,37,38
 209 380 209 380 219 394 c 0,39,40
 231 409 231 409 250 410 c 0,41,42
 268 410 268 410 280 395 c 128,-1,43
 292 380 292 380 292 358 c 1,44,45
 292 380 292 380 305 395 c 128,-1,46
 318 410 318 410 336 410 c 256,47,48
 354 410 354 410 365 394 c 0,49,50
 376 381 376 381 378 362 c 1,51,52
 379 379 379 379 389 393 c 0,53,54
 399 406 399 406 417 410 c 1,55,56
 400 412 400 412 389 426 c 128,-1,57
 378 440 378 440 378 461 c 0,58,59
 378 481 378 481 389 496 c 0,60,61
 399 509 399 509 417 512 c 1,62,63
 400 514 400 514 389 528 c 128,-1,64
 378 542 378 542 378 563 c 0,65,66
 378 585 378 585 390 599.5 c 128,-1,67
 402 614 402 614 421 614 c 256,68,69
 439 614 439 614 451 599.5 c 128,-1,70
 463 585 463 585 463 563 c 0,71,72
 463 543 463 543 452.5 528.5 c 128,-1,73
 442 514 442 514 425 512 c 1,74,75
 440 509 440 509 452 496 c 0,76,77
 463 482 463 482 463 461 c 0,78,79
 463 441 463 441 452.5 426.5 c 128,-1,80
 442 412 442 412 425 410 c 1,81,82
 440 407 440 407 452 393 c 0,83,84
 463 379 463 379 463 358 c 0,85,86
 463 338 463 338 452.5 323.5 c 128,-1,87
 442 309 442 309 425 307 c 1,88,89
 440 304 440 304 452 291 c 0,90,91
 463 277 463 277 463 256 c 0,92,93
 463 234 463 234 451 219.5 c 128,-1,94
 439 205 439 205 421 205 c 256,95,96
 403 205 403 205 390.5 219.5 c 128,-1,97
 378 234 378 234 378 256 c 0,0,1
122 666 m 256,98,99
 122 688 122 688 134.5 702.5 c 128,-1,100
 147 717 147 717 165 717 c 0,101,102
 182 717 182 717 194 703 c 0,103,104
 206 690 206 690 208 671 c 1,105,106
 210 690 210 690 221.5 703.5 c 128,-1,107
 233 717 233 717 250 717 c 0,108,109
 268 717 268 717 280 702 c 128,-1,110
 292 687 292 687 292 666 c 1,111,112
 292 688 292 688 305 702.5 c 128,-1,113
 318 717 318 717 336 717 c 256,114,115
 354 717 354 717 366 702 c 128,-1,116
 378 687 378 687 378 666 c 0,117,118
 378 644 378 644 365.5 629 c 128,-1,119
 353 614 353 614 336 614 c 0,120,121
 319 614 319 614 307 628 c 0,122,123
 294 640 294 640 292 660 c 1,124,125
 290 640 290 640 279 628 c 0,126,127
 267 615 267 615 250 614 c 0,128,129
 233 614 233 614 221 628 c 0,130,131
 210 640 210 640 208 660 c 1,132,133
 206 640 206 640 194 628 c 0,134,135
 182 615 182 615 165 614 c 0,136,137
 147 614 147 614 134.5 629 c 128,-1,138
 122 644 122 644 122 666 c 256,98,99
122 51 m 256,139,140
 122 73 122 73 134.5 87.5 c 128,-1,141
 147 102 147 102 165 102 c 0,142,143
 182 102 182 102 194 89 c 0,144,145
 206 76 206 76 208 56 c 1,146,147
 210 75 210 75 221.5 88.5 c 128,-1,148
 233 102 233 102 250 102 c 0,149,150
 268 102 268 102 280 87.5 c 128,-1,151
 292 73 292 73 292 51 c 256,152,153
 292 29 292 29 280 14.5 c 128,-1,154
 268 0 268 0 250 0 c 0,155,156
 233 0 233 0 221 13 c 0,157,158
 210 25 210 25 208 46 c 1,159,160
 206 26 206 26 194 13 c 0,161,162
 182 0 182 0 165 0 c 0,163,164
 147 0 147 0 134.5 14.5 c 128,-1,165
 122 29 122 29 122 51 c 256,139,140
37 563 m 0,166,167
 37 585 37 585 49.5 599.5 c 128,-1,168
 62 614 62 614 79 614 c 0,169,170
 97 614 97 614 109.5 599.5 c 128,-1,171
 122 585 122 585 122 563 c 0,172,173
 122 543 122 543 111 528.5 c 128,-1,174
 100 514 100 514 84 512 c 1,175,176
 100 509 100 509 111 496 c 0,177,178
 122 482 122 482 122 461 c 0,179,180
 122 439 122 439 110 424.5 c 128,-1,181
 98 410 98 410 79 410 c 256,182,183
 61 410 61 410 49 424.5 c 128,-1,184
 37 439 37 439 37 461 c 0,185,186
 37 481 37 481 48 496 c 0,187,188
 58 509 58 509 75 512 c 1,189,190
 58 514 58 514 48 528 c 0,191,192
 37 543 37 543 37 563 c 0,166,167
292 154 m 256,193,194
 292 176 292 176 305 190.5 c 128,-1,195
 318 205 318 205 336 205 c 256,196,197
 354 205 354 205 366 190 c 128,-1,198
 378 175 378 175 378 154 c 0,199,200
 378 132 378 132 365.5 117 c 128,-1,201
 353 102 353 102 336 102 c 0,202,203
 318 102 318 102 305 117 c 128,-1,204
 292 132 292 132 292 154 c 256,193,194
EndSplineSet
EndChar

StartChar: colon
Encoding: 58 58 7
Width: 500
VWidth: 1024
Flags: W
LayerCount: 2
Fore
SplineSet
164 563 m 0,0,1
 164 586 164 586 176 600 c 0,2,3
 190 614 190 614 208 614 c 0,4,5
 225 614 225 614 236 601 c 0,6,7
 246 588 246 588 249 568 c 1,8,9
 251 587 251 587 263.5 600.5 c 128,-1,10
 276 614 276 614 292 614 c 0,11,12
 310 614 310 614 323 599.5 c 128,-1,13
 336 585 336 585 336 563 c 0,14,15
 336 543 336 543 324 528.5 c 128,-1,16
 312 514 312 514 298 512 c 1,17,18
 315 509 315 509 324 496 c 0,19,20
 336 482 336 482 336 461 c 0,21,22
 336 438 336 438 324 424 c 0,23,24
 310 410 310 410 292 410 c 0,25,26
 275 410 275 410 264 423 c 0,27,28
 252 435 252 435 249 456 c 1,29,30
 246 436 246 436 236 423 c 0,31,32
 224 410 224 410 208 410 c 0,33,34
 190 410 190 410 177 424.5 c 128,-1,35
 164 439 164 439 164 461 c 0,36,37
 164 481 164 481 176 496 c 0,38,39
 186 509 186 509 202 512 c 1,40,41
 185 514 185 514 176 528 c 0,42,43
 164 543 164 543 164 563 c 0,0,1
164 256 m 0,44,45
 164 278 164 278 176 292 c 0,46,47
 190 306 190 306 208 307 c 0,48,49
 225 307 225 307 236.5 294 c 128,-1,50
 248 281 248 281 249 260 c 1,51,52
 251 280 251 280 263.5 293.5 c 128,-1,53
 276 307 276 307 292 307 c 0,54,55
 310 307 310 307 323 292.5 c 128,-1,56
 336 278 336 278 336 256 c 0,57,58
 336 236 336 236 324 221.5 c 128,-1,59
 312 207 312 207 298 205 c 1,60,61
 314 202 314 202 324 188 c 128,-1,62
 334 174 334 174 336 154 c 0,63,64
 336 132 336 132 324 117 c 0,65,66
 310 102 310 102 292 102 c 0,67,68
 275 102 275 102 264 116 c 0,69,70
 252 128 252 128 249 148 c 1,71,72
 246 128 246 128 236 116 c 0,73,74
 224 103 224 103 208 102 c 0,75,76
 190 102 190 102 177 117 c 128,-1,77
 164 132 164 132 164 154 c 0,78,79
 164 174 164 174 176 188 c 0,80,81
 186 201 186 201 202 205 c 1,82,83
 185 207 185 207 176 221 c 0,84,85
 164 236 164 236 164 256 c 0,44,45
261 188 m 256,86,87
 272 201 272 201 288 205 c 1,88,89
 272 207 272 207 261.5 219 c 128,-1,90
 251 231 251 231 249 251 c 1,91,92
 247 232 247 232 236.5 219.5 c 128,-1,93
 226 207 226 207 211 205 c 1,94,95
 228 202 228 202 239 188 c 0,96,97
 247 175 247 175 249 158 c 1,98,99
 251 175 251 175 261 188 c 256,86,87
261 496 m 256,100,101
 272 509 272 509 288 512 c 1,102,103
 272 514 272 514 261.5 526.5 c 128,-1,104
 251 539 251 539 249 558 c 1,105,106
 247 539 247 539 236.5 526.5 c 128,-1,107
 226 514 226 514 211 512 c 1,108,109
 228 509 228 509 239 496 c 0,110,111
 247 483 247 483 249 465 c 1,112,113
 251 483 251 483 261 496 c 256,100,101
EndSplineSet
EndChar

StartChar: semicolon
Encoding: 59 59 8
Width: 500
VWidth: 1024
Flags: W
LayerCount: 2
Fore
SplineSet
164 256 m 0,0,1
 164 278 164 278 176 292 c 0,2,3
 190 306 190 306 208 307 c 256,4,5
 226 307 226 307 237.5 292.5 c 128,-1,6
 249 278 249 278 249 256 c 1,7,8
 249 278 249 278 261.5 292.5 c 128,-1,9
 274 307 274 307 292 307 c 128,-1,10
 310 307 310 307 323 292.5 c 128,-1,11
 336 278 336 278 336 256 c 0,12,13
 336 236 336 236 324 221.5 c 128,-1,14
 312 207 312 207 298 205 c 1,15,16
 314 202 314 202 324 188 c 128,-1,17
 334 174 334 174 336 154 c 0,18,19
 336 132 336 132 324 117 c 0,20,21
 310 102 310 102 292 102 c 0,22,23
 275 102 275 102 264 116 c 0,24,25
 252 128 252 128 249 148 c 1,26,27
 247 129 247 129 236.5 116.5 c 128,-1,28
 226 104 226 104 211 102 c 1,29,30
 228 99 228 99 239 86 c 0,31,32
 249 72 249 72 249 51 c 0,33,34
 249 29 249 29 237.5 14.5 c 128,-1,35
 226 0 226 0 208 0 c 256,36,37
 190 0 190 0 177 15 c 128,-1,38
 164 30 164 30 164 51 c 0,39,40
 164 71 164 71 176 86 c 0,41,42
 186 99 186 99 202 102 c 1,43,44
 185 104 185 104 176 119 c 0,45,46
 164 133 164 133 164 154 c 0,47,48
 164 174 164 174 176 188 c 0,49,50
 186 201 186 201 202 205 c 1,51,52
 185 207 185 207 176 221 c 0,53,54
 164 236 164 236 164 256 c 0,0,1
164 563 m 0,55,56
 164 586 164 586 176 600 c 0,57,58
 190 614 190 614 208 614 c 256,59,60
 226 614 226 614 237.5 599.5 c 128,-1,61
 249 585 249 585 249 563 c 1,62,63
 249 585 249 585 261.5 599.5 c 128,-1,64
 274 614 274 614 292 614 c 128,-1,65
 310 614 310 614 323 599.5 c 128,-1,66
 336 585 336 585 336 563 c 0,67,68
 336 543 336 543 324 528.5 c 128,-1,69
 312 514 312 514 298 512 c 1,70,71
 315 509 315 509 324 496 c 0,72,73
 336 482 336 482 336 461 c 0,74,75
 336 438 336 438 324 424 c 0,76,77
 310 410 310 410 292 410 c 0,78,79
 275 410 275 410 264 423 c 0,80,81
 252 435 252 435 249 456 c 1,82,83
 246 436 246 436 236 423 c 0,84,85
 224 410 224 410 208 410 c 0,86,87
 190 410 190 410 177 424.5 c 128,-1,88
 164 439 164 439 164 461 c 0,89,90
 164 481 164 481 176 496 c 0,91,92
 186 509 186 509 202 512 c 1,93,94
 185 514 185 514 176 528 c 0,95,96
 164 543 164 543 164 563 c 0,55,56
262 497 m 0,97,98
 272 509 272 509 288 512 c 1,99,100
 272 514 272 514 261.5 526.5 c 128,-1,101
 251 539 251 539 249 558 c 1,102,103
 247 539 247 539 236.5 526.5 c 128,-1,104
 226 514 226 514 211 512 c 1,105,106
 225 509 225 509 236.5 496 c 128,-1,107
 248 483 248 483 249 466 c 1,108,109
 252 484 252 484 262 497 c 0,97,98
261 188 m 256,110,111
 272 201 272 201 288 205 c 1,112,113
 272 207 272 207 261.5 219 c 128,-1,114
 251 231 251 231 249 251 c 1,115,116
 247 232 247 232 236.5 219.5 c 128,-1,117
 226 207 226 207 211 205 c 1,118,119
 228 202 228 202 239 188 c 0,120,121
 247 175 247 175 249 158 c 1,122,123
 251 175 251 175 261 188 c 256,110,111
EndSplineSet
EndChar

StartChar: less
Encoding: 60 60 9
Width: 500
VWidth: 1024
Flags: W
LayerCount: 2
Fore
SplineSet
208 358 m 256,0,1
 208 380 208 380 220 395 c 128,-1,2
 232 410 232 410 249 410 c 0,3,4
 267 410 267 410 279.5 395 c 128,-1,5
 292 380 292 380 292 358 c 256,6,7
 292 336 292 336 280 321.5 c 128,-1,8
 268 307 268 307 249 307 c 256,9,10
 231 307 231 307 219.5 321.5 c 128,-1,11
 208 336 208 336 208 358 c 256,0,1
208 154 m 256,12,13
 208 176 208 176 220 190.5 c 128,-1,14
 232 205 232 205 249 205 c 0,15,16
 267 205 267 205 279.5 190 c 128,-1,17
 292 175 292 175 292 154 c 0,18,19
 292 132 292 132 280 117 c 128,-1,20
 268 102 268 102 249 102 c 256,21,22
 231 102 231 102 219.5 117 c 128,-1,23
 208 132 208 132 208 154 c 256,12,13
292 461 m 256,24,25
 292 483 292 483 305 497.5 c 128,-1,26
 318 512 318 512 336 512 c 256,27,28
 354 512 354 512 366 497 c 128,-1,29
 378 482 378 482 378 461 c 0,30,31
 378 439 378 439 365 424.5 c 128,-1,32
 352 410 352 410 336 410 c 0,33,34
 318 410 318 410 305 424.5 c 128,-1,35
 292 439 292 439 292 461 c 256,24,25
292 51 m 256,36,37
 292 73 292 73 305 87.5 c 128,-1,38
 318 102 318 102 336 102 c 256,39,40
 354 102 354 102 366 87.5 c 128,-1,41
 378 73 378 73 378 51 c 256,42,43
 378 29 378 29 365 14.5 c 128,-1,44
 352 0 352 0 336 0 c 0,45,46
 318 0 318 0 305 14.5 c 128,-1,47
 292 29 292 29 292 51 c 256,36,37
122 256 m 256,48,49
 122 278 122 278 134 292.5 c 128,-1,50
 146 307 146 307 164 307 c 256,51,52
 182 307 182 307 195 292.5 c 128,-1,53
 208 278 208 278 208 256 c 256,54,55
 208 234 208 234 195 219.5 c 128,-1,56
 182 205 182 205 164 205 c 0,57,58
 146 205 146 205 134 219.5 c 128,-1,59
 122 234 122 234 122 256 c 256,48,49
EndSplineSet
EndChar

StartChar: equal
Encoding: 61 61 10
Width: 500
VWidth: 1024
Flags: W
LayerCount: 2
Fore
SplineSet
37 461 m 256,0,1
 37 483 37 483 49.5 497.5 c 128,-1,2
 62 512 62 512 79 512 c 128,-1,3
 96 512 96 512 108 499 c 0,4,5
 118 486 118 486 122 466 c 1,6,7
 124 485 124 485 136 498.5 c 128,-1,8
 148 512 148 512 165 512 c 0,9,10
 183 512 183 512 195.5 497 c 128,-1,11
 208 482 208 482 208 461 c 1,12,13
 208 483 208 483 220 497.5 c 128,-1,14
 232 512 232 512 250 512 c 128,-1,15
 268 512 268 512 280 497 c 0,16,17
 290 484 290 484 292 465 c 1,18,19
 293 483 293 483 305 497 c 0,20,21
 317 512 317 512 336 512 c 0,22,23
 353 512 353 512 364 499 c 128,-1,24
 375 486 375 486 378 466 c 1,25,26
 380 485 380 485 392 498.5 c 128,-1,27
 404 512 404 512 421 512 c 0,28,29
 439 512 439 512 451 497 c 128,-1,30
 463 482 463 482 463 461 c 0,31,32
 463 439 463 439 451 424.5 c 128,-1,33
 439 410 439 410 421 410 c 0,34,35
 404 410 404 410 392 423 c 0,36,37
 380 435 380 435 378 456 c 1,38,39
 376 436 376 436 364 423 c 128,-1,40
 352 410 352 410 336 410 c 256,41,42
 319 410 319 410 307 423 c 0,43,44
 294 435 294 435 292 456 c 1,45,46
 290 436 290 436 279 423 c 0,47,48
 267 410 267 410 250 410 c 128,-1,49
 233 410 233 410 221 423 c 0,50,51
 210 435 210 435 208 456 c 1,52,53
 206 436 206 436 194 423 c 128,-1,54
 182 410 182 410 165 410 c 128,-1,55
 148 410 148 410 136 423 c 0,56,57
 124 435 124 435 122 456 c 1,58,59
 120 436 120 436 108.5 423 c 128,-1,60
 97 410 97 410 79 410 c 128,-1,61
 61 410 61 410 49 424.5 c 128,-1,62
 37 439 37 439 37 461 c 256,0,1
37 256 m 256,63,64
 37 278 37 278 49.5 292.5 c 128,-1,65
 62 307 62 307 79 307 c 128,-1,66
 96 307 96 307 108 294 c 0,67,68
 120 281 120 281 122 260 c 1,69,70
 124 280 124 280 136 293.5 c 128,-1,71
 148 307 148 307 165 307 c 0,72,73
 183 307 183 307 195 292 c 0,74,75
 206 279 206 279 208 260 c 1,76,77
 209 278 209 278 219 292 c 0,78,79
 231 307 231 307 250 307 c 256,80,81
 268 307 268 307 280 292 c 0,82,83
 290 279 290 279 292 260 c 1,84,85
 293 278 293 278 305 292 c 0,86,87
 317 307 317 307 336 307 c 0,88,89
 353 307 353 307 364 294 c 128,-1,90
 375 281 375 281 378 261 c 1,91,92
 380 280 380 280 392 293.5 c 128,-1,93
 404 307 404 307 421 307 c 0,94,95
 439 307 439 307 451 292.5 c 128,-1,96
 463 278 463 278 463 256 c 256,97,98
 463 234 463 234 451 219.5 c 128,-1,99
 439 205 439 205 421 205 c 0,100,101
 404 205 404 205 392 218 c 0,102,103
 380 230 380 230 378 251 c 1,104,105
 376 231 376 231 364 218 c 128,-1,106
 352 205 352 205 336 205 c 256,107,108
 319 205 319 205 307 218 c 0,109,110
 294 230 294 230 292 251 c 1,111,112
 290 231 290 231 279 218 c 0,113,114
 267 205 267 205 250 205 c 128,-1,115
 233 205 233 205 221 218 c 0,116,117
 210 230 210 230 208 251 c 1,118,119
 206 231 206 231 194 218 c 128,-1,120
 182 205 182 205 165 205 c 128,-1,121
 148 205 148 205 136 218 c 0,122,123
 124 230 124 230 122 251 c 1,124,125
 120 231 120 231 108.5 218 c 128,-1,126
 97 205 97 205 79 205 c 128,-1,127
 61 205 61 205 49 219.5 c 128,-1,128
 37 234 37 234 37 256 c 256,63,64
EndSplineSet
EndChar

StartChar: greater
Encoding: 62 62 11
Width: 500
VWidth: 1024
Flags: W
LayerCount: 2
Fore
SplineSet
208 357 m 256,0,1
 208 379 208 379 220 394 c 128,-1,2
 232 409 232 409 249 409 c 0,3,4
 267 409 267 409 279.5 394 c 128,-1,5
 292 379 292 379 292 357 c 256,6,7
 292 335 292 335 280 320.5 c 128,-1,8
 268 306 268 306 249 306 c 256,9,10
 231 306 231 306 219.5 320.5 c 128,-1,11
 208 335 208 335 208 357 c 256,0,1
208 153 m 0,12,13
 208 175 208 175 220 189.5 c 128,-1,14
 232 204 232 204 249 204 c 0,15,16
 267 204 267 204 279.5 189 c 128,-1,17
 292 174 292 174 292 153 c 0,18,19
 292 128 292 128 279 115 c 128,-1,20
 266 102 266 102 250 102 c 128,-1,21
 234 102 234 102 221 115 c 128,-1,22
 208 128 208 128 208 153 c 0,12,13
292 255 m 256,23,24
 292 277 292 277 305 291.5 c 128,-1,25
 318 306 318 306 336 306 c 256,26,27
 354 306 354 306 366 291 c 128,-1,28
 378 276 378 276 378 255 c 0,29,30
 378 233 378 233 365 218.5 c 128,-1,31
 352 204 352 204 336 204 c 0,32,33
 318 204 318 204 305 218.5 c 128,-1,34
 292 233 292 233 292 255 c 256,23,24
122 50 m 256,35,36
 122 72 122 72 134 86.5 c 128,-1,37
 146 101 146 101 164 101 c 256,38,39
 182 101 182 101 195 86.5 c 128,-1,40
 208 72 208 72 208 50 c 256,41,42
 208 28 208 28 195 13.5 c 128,-1,43
 182 -1 182 -1 164 -1 c 0,44,45
 146 -1 146 -1 134 13.5 c 128,-1,46
 122 28 122 28 122 50 c 256,35,36
122 460 m 256,47,48
 122 482 122 482 134 496.5 c 128,-1,49
 146 511 146 511 164 511 c 256,50,51
 182 511 182 511 195 496 c 128,-1,52
 208 481 208 481 208 460 c 0,53,54
 208 438 208 438 195 423.5 c 128,-1,55
 182 409 182 409 164 409 c 0,56,57
 146 409 146 409 134 423.5 c 128,-1,58
 122 438 122 438 122 460 c 256,47,48
EndSplineSet
EndChar

StartChar: question
Encoding: 63 63 12
Width: 500
VWidth: 1024
Flags: W
LayerCount: 2
Fore
SplineSet
122 666 m 256,0,1
 122 688 122 688 134.5 702.5 c 128,-1,2
 147 717 147 717 165 717 c 256,3,4
 183 717 183 717 195.5 702 c 128,-1,5
 208 687 208 687 208 666 c 1,6,7
 208 688 208 688 220 702.5 c 128,-1,8
 232 717 232 717 250 717 c 0,9,10
 267 717 267 717 279 703 c 0,11,12
 290 690 290 690 292 671 c 1,13,14
 294 690 294 690 306 703.5 c 128,-1,15
 318 717 318 717 336 717 c 0,16,17
 354 717 354 717 366 702 c 128,-1,18
 378 687 378 687 378 666 c 0,19,20
 378 644 378 644 365.5 629 c 128,-1,21
 353 614 353 614 336 614 c 0,22,23
 319 614 319 614 307 628 c 0,24,25
 294 640 294 640 292 660 c 1,26,27
 290 640 290 640 279 628 c 0,28,29
 267 615 267 615 250 614 c 0,30,31
 233 614 233 614 221 628 c 0,32,33
 210 640 210 640 208 660 c 1,34,35
 206 640 206 640 194 628 c 0,36,37
 182 615 182 615 165 614 c 0,38,39
 147 614 147 614 134.5 629 c 128,-1,40
 122 644 122 644 122 666 c 256,0,1
378 461 m 0,41,42
 378 481 378 481 389 496 c 0,43,44
 399 509 399 509 417 512 c 1,45,46
 400 514 400 514 389 528 c 128,-1,47
 378 542 378 542 378 563 c 0,48,49
 378 585 378 585 390 599.5 c 128,-1,50
 402 614 402 614 421 614 c 256,51,52
 439 614 439 614 451 599.5 c 128,-1,53
 463 585 463 585 463 563 c 0,54,55
 463 543 463 543 452.5 528.5 c 128,-1,56
 442 514 442 514 425 512 c 1,57,58
 440 509 440 509 452 496 c 0,59,60
 463 482 463 482 463 461 c 0,61,62
 463 439 463 439 451 424.5 c 128,-1,63
 439 410 439 410 421 410 c 256,64,65
 403 410 403 410 390.5 424.5 c 128,-1,66
 378 439 378 439 378 461 c 0,41,42
208 51 m 256,67,68
 208 73 208 73 220 87.5 c 128,-1,69
 232 102 232 102 250 102 c 0,70,71
 268 102 268 102 280 87.5 c 128,-1,72
 292 73 292 73 292 51 c 256,73,74
 292 29 292 29 280 14.5 c 128,-1,75
 268 0 268 0 250 0 c 256,76,77
 232 0 232 0 220 14.5 c 128,-1,78
 208 29 208 29 208 51 c 256,67,68
37 563 m 256,79,80
 37 585 37 585 49.5 599.5 c 128,-1,81
 62 614 62 614 79 614 c 0,82,83
 97 614 97 614 109.5 599.5 c 128,-1,84
 122 585 122 585 122 563 c 256,85,86
 122 541 122 541 110 526.5 c 128,-1,87
 98 512 98 512 79 512 c 256,88,89
 61 512 61 512 49 526.5 c 128,-1,90
 37 541 37 541 37 563 c 256,79,80
208 256 m 256,91,92
 208 278 208 278 220 292.5 c 128,-1,93
 232 307 232 307 250 307 c 0,94,95
 268 307 268 307 280 292.5 c 128,-1,96
 292 278 292 278 292 256 c 256,97,98
 292 234 292 234 280 219.5 c 128,-1,99
 268 205 268 205 250 205 c 256,100,101
 232 205 232 205 220 219.5 c 128,-1,102
 208 234 208 234 208 256 c 256,91,92
292 358 m 256,103,104
 292 380 292 380 305 395 c 128,-1,105
 318 410 318 410 336 410 c 256,106,107
 354 410 354 410 366 395 c 128,-1,108
 378 380 378 380 378 358 c 256,109,110
 378 336 378 336 365.5 321.5 c 128,-1,111
 353 307 353 307 336 307 c 0,112,113
 318 307 318 307 305 321.5 c 128,-1,114
 292 336 292 336 292 358 c 256,103,104
EndSplineSet
EndChar

StartChar: at
Encoding: 64 64 13
Width: 500
VWidth: 1024
Flags: W
LayerCount: 2
Fore
SplineSet
208 256 m 0,0,1
 208 276 208 276 218 291 c 0,2,3
 228 304 228 304 246 307 c 1,4,5
 229 309 229 309 218 324 c 0,6,7
 208 338 208 338 208 358 c 256,8,9
 208 378 208 378 218 393 c 0,10,11
 228 406 228 406 246 410 c 1,12,13
 229 412 229 412 218.5 426 c 128,-1,14
 208 440 208 440 208 461 c 0,15,16
 208 483 208 483 220 497.5 c 128,-1,17
 232 512 232 512 250 512 c 0,18,19
 267 512 267 512 279 499 c 0,20,21
 290 486 290 486 292 466 c 1,22,23
 294 485 294 485 306 498.5 c 128,-1,24
 318 512 318 512 336 512 c 0,25,26
 353 512 353 512 365 498.5 c 128,-1,27
 377 485 377 485 378 465 c 1,28,29
 380 483 380 483 390 497 c 0,30,31
 400 509 400 509 417 512 c 1,32,33
 400 514 400 514 389 528 c 128,-1,34
 378 542 378 542 378 563 c 0,35,36
 378 585 378 585 390 599.5 c 128,-1,37
 402 614 402 614 421 614 c 256,38,39
 439 614 439 614 451 599.5 c 128,-1,40
 463 585 463 585 463 563 c 0,41,42
 463 543 463 543 452.5 528.5 c 128,-1,43
 442 514 442 514 425 512 c 1,44,45
 440 509 440 509 452 496 c 0,46,47
 463 482 463 482 463 461 c 0,48,49
 463 441 463 441 452.5 426.5 c 128,-1,50
 442 412 442 412 425 410 c 1,51,52
 440 407 440 407 452 393 c 0,53,54
 463 379 463 379 463 358 c 0,55,56
 463 338 463 338 452.5 323.5 c 128,-1,57
 442 309 442 309 425 307 c 1,58,59
 440 304 440 304 452 291 c 0,60,61
 463 277 463 277 463 256 c 0,62,63
 463 234 463 234 451 219.5 c 128,-1,64
 439 205 439 205 421 205 c 0,65,66
 404 205 404 205 392 218 c 0,67,68
 380 230 380 230 378 251 c 1,69,70
 376 231 376 231 364 218 c 128,-1,71
 352 205 352 205 336 205 c 256,72,73
 319 205 319 205 307 218 c 0,74,75
 294 230 294 230 292 251 c 1,76,77
 290 231 290 231 279 218 c 0,78,79
 267 205 267 205 250 205 c 0,80,81
 232 205 232 205 220 219.5 c 128,-1,82
 208 234 208 234 208 256 c 0,0,1
37 256 m 256,83,84
 37 276 37 276 48 291 c 0,85,86
 58 304 58 304 75 307 c 1,87,88
 58 309 58 309 48 324 c 0,89,90
 37 338 37 338 37 358 c 0,91,92
 37 378 37 378 48 393 c 0,93,94
 58 406 58 406 75 410 c 1,95,96
 58 412 58 412 48 426 c 0,97,98
 37 440 37 440 37 461 c 0,99,100
 37 481 37 481 48 496 c 0,101,102
 58 509 58 509 75 512 c 1,103,104
 58 514 58 514 48 528 c 0,105,106
 37 542 37 542 37 563 c 0,107,108
 37 585 37 585 49.5 599.5 c 128,-1,109
 62 614 62 614 79 614 c 0,110,111
 97 614 97 614 109.5 599.5 c 128,-1,112
 122 585 122 585 122 563 c 0,113,114
 122 543 122 543 111 528.5 c 128,-1,115
 100 514 100 514 84 512 c 1,116,117
 100 509 100 509 111 496 c 0,118,119
 122 482 122 482 122 461 c 0,120,121
 122 441 122 441 111 426.5 c 128,-1,122
 100 412 100 412 84 410 c 1,123,124
 100 407 100 407 111 393 c 128,-1,125
 122 379 122 379 122 358 c 0,126,127
 122 338 122 338 111 323.5 c 128,-1,128
 100 309 100 309 84 307 c 1,129,130
 100 304 100 304 111 291 c 0,131,132
 122 277 122 277 122 256 c 0,133,134
 122 236 122 236 111 221.5 c 128,-1,135
 100 207 100 207 84 205 c 1,136,137
 100 202 100 202 111 188 c 128,-1,138
 122 174 122 174 122 154 c 0,139,140
 122 132 122 132 110 117 c 128,-1,141
 98 102 98 102 79 102 c 256,142,143
 61 102 61 102 49 117 c 128,-1,144
 37 132 37 132 37 154 c 0,145,146
 37 174 37 174 48 188 c 0,147,148
 58 201 58 201 75 205 c 1,149,150
 58 207 58 207 48 221 c 0,151,152
 37 236 37 236 37 256 c 256,83,84
122 51 m 256,153,154
 122 73 122 73 134.5 87.5 c 128,-1,155
 147 102 147 102 165 102 c 256,156,157
 183 102 183 102 195 87 c 0,158,159
 206 74 206 74 208 55 c 1,160,161
 209 73 209 73 219 87 c 0,162,163
 231 102 231 102 250 102 c 256,164,165
 268 102 268 102 280 87 c 0,166,167
 290 74 290 74 292 55 c 1,168,169
 293 73 293 73 305 87 c 0,170,171
 317 102 317 102 336 102 c 256,172,173
 354 102 354 102 365 87 c 0,174,175
 376 74 376 74 378 55 c 1,176,177
 379 73 379 73 390 87 c 0,178,179
 402 102 402 102 421 102 c 256,180,181
 439 102 439 102 451 87.5 c 128,-1,182
 463 73 463 73 463 51 c 256,183,184
 463 29 463 29 451 14.5 c 128,-1,185
 439 0 439 0 421 0 c 0,186,187
 404 0 404 0 392 13 c 0,188,189
 380 25 380 25 378 46 c 1,190,191
 376 26 376 26 364 13 c 128,-1,192
 352 0 352 0 336 0 c 256,193,194
 319 0 319 0 307 13 c 0,195,196
 294 25 294 25 292 46 c 1,197,198
 290 26 290 26 279 13 c 0,199,200
 267 0 267 0 250 0 c 0,201,202
 233 0 233 0 221 13 c 0,203,204
 210 25 210 25 208 46 c 1,205,206
 206 26 206 26 194 13 c 0,207,208
 182 0 182 0 165 0 c 0,209,210
 147 0 147 0 134.5 14.5 c 128,-1,211
 122 29 122 29 122 51 c 256,153,154
122 666 m 256,212,213
 122 688 122 688 134.5 702.5 c 128,-1,214
 147 717 147 717 165 717 c 0,215,216
 182 717 182 717 194 703.5 c 128,-1,217
 206 690 206 690 208 670 c 1,218,219
 210 690 210 690 221.5 703.5 c 128,-1,220
 233 717 233 717 250 717 c 0,221,222
 268 717 268 717 280 701 c 0,223,224
 290 688 290 688 292 670 c 1,225,226
 293 688 293 688 305 701 c 0,227,228
 317 716 317 716 336 717 c 0,229,230
 354 717 354 717 366 702 c 128,-1,231
 378 687 378 687 378 666 c 0,232,233
 378 644 378 644 365.5 629 c 128,-1,234
 353 614 353 614 336 614 c 0,235,236
 319 614 319 614 307 628 c 0,237,238
 294 640 294 640 292 660 c 1,239,240
 290 640 290 640 279 628 c 0,241,242
 267 615 267 615 250 614 c 0,243,244
 233 614 233 614 221 628 c 0,245,246
 210 640 210 640 208 660 c 1,247,248
 206 640 206 640 194 628 c 0,249,250
 182 615 182 615 165 614 c 0,251,252
 147 614 147 614 134.5 629 c 128,-1,253
 122 644 122 644 122 666 c 256,212,213
378 358 m 256,254,255
 378 378 378 378 389 393 c 0,256,257
 399 406 399 406 417 410 c 1,258,259
 401 412 401 412 390.5 424 c 128,-1,260
 380 436 380 436 378 456 c 1,261,262
 376 436 376 436 364 423 c 128,-1,263
 352 410 352 410 336 410 c 256,264,265
 319 410 319 410 307 423 c 0,266,267
 294 435 294 435 292 456 c 1,268,269
 290 437 290 437 279.5 424.5 c 128,-1,270
 269 412 269 412 254 410 c 1,271,272
 270 407 270 407 282 393 c 0,273,274
 292 379 292 379 292 358 c 0,275,276
 292 338 292 338 281.5 323.5 c 128,-1,277
 271 309 271 309 254 307 c 1,278,279
 270 304 270 304 282 291 c 0,280,281
 290 278 290 278 292 260 c 1,282,283
 293 278 293 278 305 292 c 0,284,285
 317 307 317 307 336 307 c 256,286,287
 354 307 354 307 366 292.5 c 128,-1,288
 378 278 378 278 378 256 c 1,289,290
 378 276 378 276 389 291 c 0,291,292
 399 304 399 304 417 307 c 1,293,294
 400 309 400 309 389 324 c 0,295,296
 378 338 378 338 378 358 c 256,254,255
EndSplineSet
EndChar

StartChar: A
Encoding: 65 65 14
Width: 500
VWidth: 1024
Flags: W
LayerCount: 2
Fore
SplineSet
378 154 m 256,0,1
 378 174 378 174 389 188 c 0,2,3
 399 201 399 201 417 205 c 1,4,5
 401 207 401 207 390.5 219 c 128,-1,6
 380 231 380 231 378 251 c 1,7,8
 376 231 376 231 364 218 c 128,-1,9
 352 205 352 205 336 205 c 256,10,11
 319 205 319 205 307 218 c 0,12,13
 294 230 294 230 292 251 c 1,14,15
 290 231 290 231 279 218 c 0,16,17
 267 205 267 205 250 205 c 0,18,19
 233 205 233 205 221 218 c 0,20,21
 210 230 210 230 208 251 c 1,22,23
 206 231 206 231 194 218 c 0,24,25
 182 205 182 205 165 205 c 0,26,27
 148 205 148 205 136 218 c 0,28,29
 124 230 124 230 122 251 c 1,30,31
 120 232 120 232 109 219.5 c 128,-1,32
 98 207 98 207 84 205 c 1,33,34
 100 202 100 202 111 188 c 128,-1,35
 122 174 122 174 122 154 c 0,36,37
 122 134 122 134 111 119 c 128,-1,38
 100 104 100 104 84 102 c 1,39,40
 100 99 100 99 111 86 c 0,41,42
 122 72 122 72 122 51 c 0,43,44
 122 29 122 29 110 14.5 c 128,-1,45
 98 0 98 0 79 0 c 256,46,47
 61 0 61 0 49 15 c 128,-1,48
 37 30 37 30 37 51 c 0,49,50
 37 71 37 71 48 86 c 0,51,52
 58 99 58 99 75 102 c 1,53,54
 58 104 58 104 48 119 c 0,55,56
 37 133 37 133 37 154 c 0,57,58
 37 174 37 174 48 188 c 0,59,60
 58 201 58 201 75 205 c 1,61,62
 58 207 58 207 48 221 c 0,63,64
 37 235 37 235 37 256 c 0,65,66
 37 276 37 276 48 291 c 0,67,68
 58 304 58 304 75 307 c 1,69,70
 58 309 58 309 48 324 c 0,71,72
 37 338 37 338 37 358 c 0,73,74
 37 378 37 378 48 393 c 0,75,76
 58 406 58 406 75 410 c 1,77,78
 58 412 58 412 48 426 c 0,79,80
 37 440 37 440 37 461 c 0,81,82
 37 481 37 481 48 496 c 0,83,84
 58 509 58 509 75 512 c 1,85,86
 58 514 58 514 48 528 c 0,87,88
 37 542 37 542 37 563 c 0,89,90
 37 585 37 585 49.5 599.5 c 128,-1,91
 62 614 62 614 79 614 c 0,92,93
 97 614 97 614 109.5 599.5 c 128,-1,94
 122 585 122 585 122 563 c 0,95,96
 122 543 122 543 111 528.5 c 128,-1,97
 100 514 100 514 84 512 c 1,98,99
 100 509 100 509 111 496 c 0,100,101
 122 482 122 482 122 461 c 0,102,103
 122 441 122 441 111 426.5 c 128,-1,104
 100 412 100 412 84 410 c 1,105,106
 100 407 100 407 111 393 c 128,-1,107
 122 379 122 379 122 358 c 0,108,109
 122 338 122 338 111 323.5 c 128,-1,110
 100 309 100 309 84 307 c 1,111,112
 98 304 98 304 109 292 c 0,113,114
 120 279 120 279 122 260 c 1,115,116
 124 280 124 280 136 293.5 c 128,-1,117
 148 307 148 307 165 307 c 0,118,119
 183 307 183 307 195 292 c 0,120,121
 206 279 206 279 208 260 c 1,122,123
 209 278 209 278 219 292 c 0,124,125
 231 307 231 307 250 307 c 256,126,127
 268 307 268 307 280 292.5 c 128,-1,128
 292 278 292 278 292 256 c 1,129,130
 292 278 292 278 305 292.5 c 128,-1,131
 318 307 318 307 336 307 c 256,132,133
 354 307 354 307 366 292.5 c 128,-1,134
 378 278 378 278 378 256 c 1,135,136
 378 276 378 276 389 291 c 0,137,138
 399 304 399 304 417 307 c 1,139,140
 400 309 400 309 389 324 c 0,141,142
 378 338 378 338 378 358 c 256,143,144
 378 378 378 378 389 393 c 0,145,146
 399 406 399 406 417 410 c 1,147,148
 400 412 400 412 389 426 c 128,-1,149
 378 440 378 440 378 461 c 0,150,151
 378 481 378 481 389 496 c 0,152,153
 399 509 399 509 417 512 c 1,154,155
 400 514 400 514 389 528 c 128,-1,156
 378 542 378 542 378 563 c 0,157,158
 378 585 378 585 390 599.5 c 128,-1,159
 402 614 402 614 421 614 c 256,160,161
 439 614 439 614 451 599.5 c 128,-1,162
 463 585 463 585 463 563 c 0,163,164
 463 543 463 543 452.5 528.5 c 128,-1,165
 442 514 442 514 425 512 c 1,166,167
 440 509 440 509 452 496 c 0,168,169
 463 482 463 482 463 461 c 0,170,171
 463 441 463 441 452.5 426.5 c 128,-1,172
 442 412 442 412 425 410 c 1,173,174
 440 407 440 407 452 393 c 0,175,176
 463 379 463 379 463 358 c 0,177,178
 463 338 463 338 452.5 323.5 c 128,-1,179
 442 309 442 309 425 307 c 1,180,181
 440 304 440 304 452 291 c 0,182,183
 463 277 463 277 463 256 c 0,184,185
 463 236 463 236 452.5 221.5 c 128,-1,186
 442 207 442 207 425 205 c 1,187,188
 440 202 440 202 452 188 c 0,189,190
 463 174 463 174 463 154 c 256,191,192
 463 134 463 134 452.5 119 c 128,-1,193
 442 104 442 104 425 102 c 1,194,195
 440 99 440 99 452 86 c 0,196,197
 463 72 463 72 463 51 c 0,198,199
 463 29 463 29 451 14.5 c 128,-1,200
 439 0 439 0 421 0 c 256,201,202
 403 0 403 0 390.5 15 c 128,-1,203
 378 30 378 30 378 51 c 0,204,205
 378 71 378 71 389 86 c 0,206,207
 399 99 399 99 417 102 c 1,208,209
 400 104 400 104 389 119 c 128,-1,210
 378 134 378 134 378 154 c 256,0,1
122 666 m 256,211,212
 122 688 122 688 134.5 702.5 c 128,-1,213
 147 717 147 717 165 717 c 0,214,215
 182 717 182 717 194 703 c 0,216,217
 206 690 206 690 208 671 c 1,218,219
 210 690 210 690 221.5 703.5 c 128,-1,220
 233 717 233 717 250 717 c 0,221,222
 268 717 268 717 280 701 c 0,223,224
 290 688 290 688 292 670 c 1,225,226
 293 688 293 688 305 701 c 0,227,228
 317 716 317 716 336 717 c 0,229,230
 354 717 354 717 366 702 c 128,-1,231
 378 687 378 687 378 666 c 0,232,233
 378 644 378 644 365.5 629 c 128,-1,234
 353 614 353 614 336 614 c 0,235,236
 319 614 319 614 307 628 c 0,237,238
 294 640 294 640 292 660 c 1,239,240
 290 640 290 640 279 628 c 0,241,242
 267 615 267 615 250 614 c 0,243,244
 233 614 233 614 221 628 c 0,245,246
 210 640 210 640 208 660 c 1,247,248
 206 640 206 640 194 628 c 0,249,250
 182 615 182 615 165 614 c 0,251,252
 147 614 147 614 134.5 629 c 128,-1,253
 122 644 122 644 122 666 c 256,211,212
EndSplineSet
EndChar

StartChar: B
Encoding: 66 66 15
Width: 500
VWidth: 1024
Flags: W
LayerCount: 2
Fore
SplineSet
37 666 m 0,0,1
 37 688 37 688 49.5 702.5 c 128,-1,2
 62 717 62 717 79 717 c 0,3,4
 80 717 80 717 81 717 c 0,5,6
 97 717 97 717 108 704 c 0,7,8
 120 690 120 690 122 670 c 1,9,10
 124 690 124 690 136 703.5 c 128,-1,11
 148 717 148 717 165 717 c 0,12,13
 183 717 183 717 195.5 702 c 128,-1,14
 208 687 208 687 208 666 c 1,15,16
 208 688 208 688 220 702.5 c 128,-1,17
 232 717 232 717 250 717 c 0,18,19
 251 717 251 717 252 717 c 0,20,21
 268 717 268 717 279 704 c 0,22,23
 290 690 290 690 292 670 c 1,24,25
 294 690 294 690 306 703.5 c 128,-1,26
 318 717 318 717 336 717 c 128,-1,27
 354 717 354 717 366 702 c 128,-1,28
 378 687 378 687 378 666 c 0,29,30
 378 644 378 644 365.5 629 c 128,-1,31
 353 614 353 614 336 614 c 128,-1,32
 319 614 319 614 307 628 c 0,33,34
 294 640 294 640 292 660 c 1,35,36
 290 640 290 640 279 628 c 0,37,38
 267 615 267 615 250 614 c 0,39,40
 233 614 233 614 221 628 c 0,41,42
 210 640 210 640 208 660 c 1,43,44
 206 640 206 640 194 628 c 0,45,46
 182 615 182 615 165 614 c 0,47,48
 148 614 148 614 136 628 c 0,49,50
 124 640 124 640 122 660 c 1,51,52
 120 641 120 641 109 628.5 c 128,-1,53
 98 616 98 616 84 614 c 1,54,55
 100 611 100 611 111 598 c 0,56,57
 122 584 122 584 122 563 c 0,58,59
 122 543 122 543 111 528.5 c 128,-1,60
 100 514 100 514 84 512 c 1,61,62
 100 509 100 509 111 496 c 0,63,64
 122 482 122 482 122 461 c 0,65,66
 122 441 122 441 111 426.5 c 128,-1,67
 100 412 100 412 84 410 c 1,68,69
 98 407 98 407 109 394 c 128,-1,70
 120 381 120 381 122 362 c 1,71,72
 124 382 124 382 136 396 c 128,-1,73
 148 410 148 410 165 410 c 0,74,75
 183 410 183 410 195.5 395 c 128,-1,76
 208 380 208 380 208 358 c 1,77,78
 208 380 208 380 220 395 c 128,-1,79
 232 410 232 410 250 410 c 0,80,81
 267 410 267 410 279 396 c 0,82,83
 290 383 290 383 292 364 c 1,84,85
 294 383 294 383 306 396.5 c 128,-1,86
 318 410 318 410 336 410 c 128,-1,87
 354 410 354 410 366 395 c 128,-1,88
 378 380 378 380 378 358 c 256,89,90
 378 336 378 336 365.5 321.5 c 128,-1,91
 353 307 353 307 336 307 c 128,-1,92
 319 307 319 307 307 321 c 0,93,94
 294 333 294 333 292 353 c 1,95,96
 290 333 290 333 279 321 c 0,97,98
 267 308 267 308 250 307 c 0,99,100
 233 307 233 307 221 321 c 0,101,102
 210 333 210 333 208 353 c 1,103,104
 206 333 206 333 194 321 c 0,105,106
 182 308 182 308 165 307 c 0,107,108
 148 307 148 307 136 321 c 0,109,110
 124 333 124 333 122 353 c 1,111,112
 120 334 120 334 109 321.5 c 128,-1,113
 98 309 98 309 84 307 c 1,114,115
 100 304 100 304 111 291 c 0,116,117
 122 277 122 277 122 256 c 0,118,119
 122 236 122 236 111 221.5 c 128,-1,120
 100 207 100 207 84 205 c 1,121,122
 100 202 100 202 111 188 c 128,-1,123
 122 174 122 174 122 154 c 128,-1,124
 122 134 122 134 111 119 c 128,-1,125
 100 104 100 104 84 102 c 1,126,127
 100 99 100 99 111 86 c 0,128,129
 120 73 120 73 122 55 c 1,130,131
 123 73 123 73 134 87 c 0,132,133
 146 102 146 102 165 102 c 0,134,135
 182 102 182 102 194 89 c 128,-1,136
 206 76 206 76 208 55 c 1,137,138
 210 75 210 75 221.5 88.5 c 128,-1,139
 233 102 233 102 250 102 c 256,140,141
 267 102 267 102 279 89 c 0,142,143
 290 76 290 76 292 55 c 1,144,145
 294 75 294 75 306 88.5 c 128,-1,146
 318 102 318 102 336 102 c 128,-1,147
 354 102 354 102 366 87.5 c 128,-1,148
 378 73 378 73 378 51 c 256,149,150
 378 29 378 29 365.5 14.5 c 128,-1,151
 353 0 353 0 336 0 c 128,-1,152
 319 0 319 0 307 13 c 0,153,154
 294 25 294 25 292 46 c 1,155,156
 290 26 290 26 279 13 c 0,157,158
 267 0 267 0 250 0 c 128,-1,159
 233 0 233 0 221 13 c 0,160,161
 210 25 210 25 208 46 c 1,162,163
 206 26 206 26 194 13 c 128,-1,164
 182 0 182 0 165 0 c 128,-1,165
 148 0 148 0 136 13 c 0,166,167
 124 25 124 25 122 46 c 1,168,169
 120 26 120 26 108.5 13 c 128,-1,170
 97 0 97 0 79 0 c 128,-1,171
 61 0 61 0 49 15 c 128,-1,172
 37 30 37 30 37 51 c 0,173,174
 37 71 37 71 48 86 c 0,175,176
 58 99 58 99 75 102 c 1,177,178
 58 104 58 104 48 119 c 0,179,180
 37 133 37 133 37 154 c 0,181,182
 37 174 37 174 48 188 c 0,183,184
 58 201 58 201 75 205 c 1,185,186
 58 207 58 207 48 221 c 0,187,188
 37 235 37 235 37 256 c 0,189,190
 37 276 37 276 48 291 c 0,191,192
 58 304 58 304 75 307 c 1,193,194
 58 309 58 309 48 324 c 0,195,196
 37 338 37 338 37 358 c 128,-1,197
 37 378 37 378 48 393 c 0,198,199
 58 406 58 406 75 410 c 1,200,201
 58 412 58 412 48 426 c 0,202,203
 37 440 37 440 37 461 c 0,204,205
 37 481 37 481 48 496 c 0,206,207
 58 509 58 509 75 512 c 1,208,209
 58 514 58 514 48 528 c 0,210,211
 37 542 37 542 37 563 c 0,212,213
 37 583 37 583 48 598 c 0,214,215
 58 611 58 611 75 614 c 1,216,217
 58 616 58 616 48 631 c 0,218,219
 37 646 37 646 37 666 c 0,0,1
378 563 m 0,220,221
 378 585 378 585 390 599.5 c 128,-1,222
 402 614 402 614 421 614 c 256,223,224
 439 614 439 614 451 599.5 c 128,-1,225
 463 585 463 585 463 563 c 0,226,227
 463 543 463 543 452.5 528.5 c 128,-1,228
 442 514 442 514 425 512 c 1,229,230
 440 509 440 509 452 496 c 0,231,232
 463 482 463 482 463 461 c 0,233,234
 463 439 463 439 451 424.5 c 128,-1,235
 439 410 439 410 421 410 c 256,236,237
 403 410 403 410 390.5 424.5 c 128,-1,238
 378 439 378 439 378 461 c 0,239,240
 378 481 378 481 389 496 c 0,241,242
 399 509 399 509 417 512 c 1,243,244
 400 514 400 514 389 528 c 0,245,246
 378 543 378 543 378 563 c 0,220,221
378 154 m 0,247,248
 378 174 378 174 389 188 c 0,249,250
 399 201 399 201 417 205 c 1,251,252
 400 207 400 207 389 221 c 128,-1,253
 378 235 378 235 378 256 c 0,254,255
 378 278 378 278 390 292.5 c 128,-1,256
 402 307 402 307 421 307 c 256,257,258
 439 307 439 307 451 292.5 c 128,-1,259
 463 278 463 278 463 256 c 0,260,261
 463 236 463 236 452.5 221.5 c 128,-1,262
 442 207 442 207 425 205 c 1,263,264
 440 202 440 202 452 188 c 0,265,266
 463 174 463 174 463 154 c 0,267,268
 463 132 463 132 451 117 c 128,-1,269
 439 102 439 102 421 102 c 256,270,271
 403 102 403 102 390.5 117 c 128,-1,272
 378 132 378 132 378 154 c 0,247,248
EndSplineSet
EndChar

StartChar: C
Encoding: 67 67 16
Width: 500
VWidth: 1024
Flags: W
LayerCount: 2
Fore
SplineSet
37 256 m 256,0,1
 37 276 37 276 48 291 c 0,2,3
 58 304 58 304 75 307 c 1,4,5
 58 309 58 309 48 324 c 0,6,7
 37 338 37 338 37 358 c 128,-1,8
 37 378 37 378 48 393 c 0,9,10
 58 406 58 406 75 410 c 1,11,12
 58 412 58 412 48 426 c 0,13,14
 37 440 37 440 37 461 c 0,15,16
 37 481 37 481 48 496 c 0,17,18
 58 509 58 509 75 512 c 1,19,20
 58 514 58 514 48 528 c 0,21,22
 37 542 37 542 37 563 c 0,23,24
 37 585 37 585 49.5 599.5 c 128,-1,25
 62 614 62 614 79 614 c 0,26,27
 97 614 97 614 109.5 599.5 c 128,-1,28
 122 585 122 585 122 563 c 0,29,30
 122 543 122 543 111 528.5 c 128,-1,31
 100 514 100 514 84 512 c 1,32,33
 100 509 100 509 111 496 c 0,34,35
 122 482 122 482 122 461 c 0,36,37
 122 441 122 441 111 426.5 c 128,-1,38
 100 412 100 412 84 410 c 1,39,40
 100 407 100 407 111 393 c 128,-1,41
 122 379 122 379 122 358 c 0,42,43
 122 338 122 338 111 323.5 c 128,-1,44
 100 309 100 309 84 307 c 1,45,46
 100 304 100 304 111 291 c 0,47,48
 122 277 122 277 122 256 c 0,49,50
 122 236 122 236 111 221.5 c 128,-1,51
 100 207 100 207 84 205 c 1,52,53
 100 202 100 202 111 188 c 128,-1,54
 122 174 122 174 122 154 c 0,55,56
 122 132 122 132 110 117 c 128,-1,57
 98 102 98 102 79 102 c 256,58,59
 61 102 61 102 49 117 c 128,-1,60
 37 132 37 132 37 154 c 0,61,62
 37 174 37 174 48 188 c 0,63,64
 58 201 58 201 75 205 c 1,65,66
 58 207 58 207 48 221 c 0,67,68
 37 236 37 236 37 256 c 256,0,1
122 51 m 256,69,70
 122 73 122 73 134.5 87.5 c 128,-1,71
 147 102 147 102 165 102 c 0,72,73
 182 102 182 102 194 89 c 128,-1,74
 206 76 206 76 208 55 c 1,75,76
 210 75 210 75 221.5 88.5 c 128,-1,77
 233 102 233 102 250 102 c 256,78,79
 267 102 267 102 279 89 c 0,80,81
 290 76 290 76 292 55 c 1,82,83
 294 75 294 75 306 88.5 c 128,-1,84
 318 102 318 102 336 102 c 128,-1,85
 354 102 354 102 366 87.5 c 128,-1,86
 378 73 378 73 378 51 c 256,87,88
 378 29 378 29 365.5 14.5 c 128,-1,89
 353 0 353 0 336 0 c 128,-1,90
 319 0 319 0 307 13 c 0,91,92
 294 25 294 25 292 46 c 1,93,94
 290 26 290 26 279 13 c 0,95,96
 267 0 267 0 250 0 c 128,-1,97
 233 0 233 0 221 13 c 0,98,99
 210 25 210 25 208 46 c 1,100,101
 206 26 206 26 194 13 c 128,-1,102
 182 0 182 0 165 0 c 0,103,104
 147 0 147 0 134.5 14.5 c 128,-1,105
 122 29 122 29 122 51 c 256,69,70
122 666 m 256,106,107
 122 688 122 688 134.5 702.5 c 128,-1,108
 147 717 147 717 165 717 c 0,109,110
 182 717 182 717 194 703 c 0,111,112
 206 690 206 690 208 671 c 1,113,114
 210 690 210 690 221.5 703.5 c 128,-1,115
 233 717 233 717 250 717 c 256,116,117
 267 717 267 717 279 703 c 0,118,119
 290 690 290 690 292 671 c 1,120,121
 294 690 294 690 306 703.5 c 128,-1,122
 318 717 318 717 336 717 c 128,-1,123
 354 717 354 717 366 702 c 128,-1,124
 378 687 378 687 378 666 c 0,125,126
 378 644 378 644 365.5 629 c 128,-1,127
 353 614 353 614 336 614 c 128,-1,128
 319 614 319 614 307 628 c 0,129,130
 294 640 294 640 292 660 c 1,131,132
 290 640 290 640 279 628 c 0,133,134
 267 615 267 615 250 614 c 0,135,136
 233 614 233 614 221 628 c 0,137,138
 210 640 210 640 208 660 c 1,139,140
 206 640 206 640 194 628 c 0,141,142
 182 615 182 615 165 614 c 0,143,144
 147 614 147 614 134.5 629 c 128,-1,145
 122 644 122 644 122 666 c 256,106,107
378 154 m 256,146,147
 378 176 378 176 390 190.5 c 128,-1,148
 402 205 402 205 421 205 c 256,149,150
 439 205 439 205 451 190 c 128,-1,151
 463 175 463 175 463 154 c 0,152,153
 463 132 463 132 451 117 c 128,-1,154
 439 102 439 102 421 102 c 256,155,156
 403 102 403 102 390.5 117 c 128,-1,157
 378 132 378 132 378 154 c 256,146,147
378 563 m 256,158,159
 378 585 378 585 390 599.5 c 128,-1,160
 402 614 402 614 421 614 c 256,161,162
 439 614 439 614 451 599.5 c 128,-1,163
 463 585 463 585 463 563 c 256,164,165
 463 541 463 541 451 526.5 c 128,-1,166
 439 512 439 512 421 512 c 256,167,168
 403 512 403 512 390.5 526.5 c 128,-1,169
 378 541 378 541 378 563 c 256,158,159
EndSplineSet
EndChar

StartChar: D
Encoding: 68 68 17
Width: 500
VWidth: 1024
Flags: W
LayerCount: 2
Fore
SplineSet
37 666 m 0,0,1
 37 688 37 688 49.5 702.5 c 128,-1,2
 62 717 62 717 79 717 c 0,3,4
 80 717 80 717 81 717 c 0,5,6
 97 717 97 717 108 704 c 0,7,8
 120 690 120 690 122 670 c 1,9,10
 124 690 124 690 136 703.5 c 128,-1,11
 148 717 148 717 165 717 c 0,12,13
 183 717 183 717 195.5 702 c 128,-1,14
 208 687 208 687 208 666 c 1,15,16
 208 688 208 688 220 702.5 c 128,-1,17
 232 717 232 717 250 717 c 128,-1,18
 268 717 268 717 280 701 c 0,19,20
 290 688 290 688 292 670 c 1,21,22
 293 688 293 688 305 701 c 0,23,24
 317 716 317 716 336 717 c 0,25,26
 354 717 354 717 366 702 c 128,-1,27
 378 687 378 687 378 666 c 0,28,29
 378 644 378 644 365.5 629 c 128,-1,30
 353 614 353 614 336 614 c 128,-1,31
 319 614 319 614 307 628 c 0,32,33
 294 640 294 640 292 660 c 1,34,35
 290 640 290 640 279 628 c 0,36,37
 267 615 267 615 250 614 c 0,38,39
 233 614 233 614 221 628 c 0,40,41
 210 640 210 640 208 660 c 1,42,43
 206 640 206 640 194 628 c 0,44,45
 182 615 182 615 165 614 c 0,46,47
 148 614 148 614 136 628 c 0,48,49
 124 640 124 640 122 660 c 1,50,51
 120 641 120 641 109 628.5 c 128,-1,52
 98 616 98 616 84 614 c 1,53,54
 100 611 100 611 111 598 c 0,55,56
 122 584 122 584 122 563 c 0,57,58
 122 543 122 543 111 528.5 c 128,-1,59
 100 514 100 514 84 512 c 1,60,61
 100 509 100 509 111 496 c 0,62,63
 122 482 122 482 122 461 c 0,64,65
 122 441 122 441 111 426.5 c 128,-1,66
 100 412 100 412 84 410 c 1,67,68
 100 407 100 407 111 393 c 128,-1,69
 122 379 122 379 122 358 c 0,70,71
 122 338 122 338 111 323.5 c 128,-1,72
 100 309 100 309 84 307 c 1,73,74
 100 304 100 304 111 291 c 0,75,76
 122 277 122 277 122 256 c 0,77,78
 122 236 122 236 111 221.5 c 128,-1,79
 100 207 100 207 84 205 c 1,80,81
 100 202 100 202 111 188 c 128,-1,82
 122 174 122 174 122 154 c 128,-1,83
 122 134 122 134 111 119 c 128,-1,84
 100 104 100 104 84 102 c 1,85,86
 100 99 100 99 111 86 c 0,87,88
 120 73 120 73 122 55 c 1,89,90
 123 73 123 73 134 87 c 0,91,92
 146 102 146 102 165 102 c 256,93,94
 183 102 183 102 195.5 87.5 c 128,-1,95
 208 73 208 73 208 51 c 1,96,97
 208 73 208 73 220 87.5 c 128,-1,98
 232 102 232 102 250 102 c 128,-1,99
 268 102 268 102 280 87 c 0,100,101
 290 74 290 74 292 55 c 1,102,103
 293 73 293 73 305 87 c 0,104,105
 317 102 317 102 336 102 c 256,106,107
 354 102 354 102 366 87.5 c 128,-1,108
 378 73 378 73 378 51 c 256,109,110
 378 29 378 29 365.5 14.5 c 128,-1,111
 353 0 353 0 336 0 c 128,-1,112
 319 0 319 0 307 13 c 0,113,114
 294 25 294 25 292 46 c 1,115,116
 290 26 290 26 279 13 c 0,117,118
 267 0 267 0 250 0 c 128,-1,119
 233 0 233 0 221 13 c 0,120,121
 210 25 210 25 208 46 c 1,122,123
 206 26 206 26 194 13 c 128,-1,124
 182 0 182 0 165 0 c 128,-1,125
 148 0 148 0 136 13 c 0,126,127
 124 25 124 25 122 46 c 1,128,129
 120 26 120 26 108.5 13 c 128,-1,130
 97 0 97 0 79 0 c 128,-1,131
 61 0 61 0 49 15 c 128,-1,132
 37 30 37 30 37 51 c 0,133,134
 37 71 37 71 48 86 c 0,135,136
 58 99 58 99 75 102 c 1,137,138
 58 104 58 104 48 119 c 0,139,140
 37 133 37 133 37 154 c 0,141,142
 37 174 37 174 48 188 c 0,143,144
 58 201 58 201 75 205 c 1,145,146
 58 207 58 207 48 221 c 0,147,148
 37 235 37 235 37 256 c 0,149,150
 37 276 37 276 48 291 c 0,151,152
 58 304 58 304 75 307 c 1,153,154
 58 309 58 309 48 324 c 0,155,156
 37 338 37 338 37 358 c 128,-1,157
 37 378 37 378 48 393 c 0,158,159
 58 406 58 406 75 410 c 1,160,161
 58 412 58 412 48 426 c 0,162,163
 37 440 37 440 37 461 c 0,164,165
 37 481 37 481 48 496 c 0,166,167
 58 509 58 509 75 512 c 1,168,169
 58 514 58 514 48 528 c 0,170,171
 37 542 37 542 37 563 c 0,172,173
 37 583 37 583 48 598 c 0,174,175
 58 611 58 611 75 614 c 1,176,177
 58 616 58 616 48 631 c 0,178,179
 37 646 37 646 37 666 c 0,0,1
378 256 m 256,180,181
 378 276 378 276 389 291 c 0,182,183
 399 304 399 304 417 307 c 1,184,185
 400 309 400 309 389 324 c 0,186,187
 378 338 378 338 378 358 c 256,188,189
 378 378 378 378 389 393 c 0,190,191
 399 406 399 406 417 410 c 1,192,193
 400 412 400 412 389 426 c 128,-1,194
 378 440 378 440 378 461 c 0,195,196
 378 481 378 481 389 496 c 0,197,198
 399 509 399 509 417 512 c 1,199,200
 400 514 400 514 389 528 c 128,-1,201
 378 542 378 542 378 563 c 0,202,203
 378 585 378 585 390 599.5 c 128,-1,204
 402 614 402 614 421 614 c 256,205,206
 439 614 439 614 451 599.5 c 128,-1,207
 463 585 463 585 463 563 c 0,208,209
 463 543 463 543 452.5 528.5 c 128,-1,210
 442 514 442 514 425 512 c 1,211,212
 440 509 440 509 452 496 c 0,213,214
 463 482 463 482 463 461 c 0,215,216
 463 441 463 441 452.5 426.5 c 128,-1,217
 442 412 442 412 425 410 c 1,218,219
 440 407 440 407 452 393 c 0,220,221
 463 379 463 379 463 358 c 0,222,223
 463 338 463 338 452.5 323.5 c 128,-1,224
 442 309 442 309 425 307 c 1,225,226
 440 304 440 304 452 291 c 0,227,228
 463 277 463 277 463 256 c 0,229,230
 463 236 463 236 452.5 221.5 c 128,-1,231
 442 207 442 207 425 205 c 1,232,233
 440 202 440 202 452 188 c 0,234,235
 463 174 463 174 463 154 c 0,236,237
 463 132 463 132 451 117 c 128,-1,238
 439 102 439 102 421 102 c 256,239,240
 403 102 403 102 390.5 117 c 128,-1,241
 378 132 378 132 378 154 c 0,242,243
 378 174 378 174 389 188 c 0,244,245
 399 201 399 201 417 205 c 1,246,247
 400 207 400 207 389 221 c 0,248,249
 378 236 378 236 378 256 c 256,180,181
EndSplineSet
EndChar

StartChar: E
Encoding: 69 69 18
Width: 500
VWidth: 1024
Flags: W
LayerCount: 2
Fore
SplineSet
37 666 m 0,0,1
 37 688 37 688 49.5 702.5 c 128,-1,2
 62 717 62 717 79 717 c 0,3,4
 80 717 80 717 81 717 c 0,5,6
 97 717 97 717 108 704 c 0,7,8
 120 690 120 690 122 670 c 1,9,10
 124 690 124 690 136 703.5 c 128,-1,11
 148 717 148 717 165 717 c 0,12,13
 183 717 183 717 195.5 702 c 128,-1,14
 208 687 208 687 208 666 c 1,15,16
 208 688 208 688 220 702.5 c 128,-1,17
 232 717 232 717 250 717 c 128,-1,18
 268 717 268 717 280 701 c 0,19,20
 290 688 290 688 292 670 c 1,21,22
 293 688 293 688 305 701 c 0,23,24
 317 716 317 716 336 717 c 0,25,26
 353 717 353 717 365 703.5 c 128,-1,27
 377 690 377 690 378 670 c 1,28,29
 380 690 380 690 392 703.5 c 128,-1,30
 404 717 404 717 421 717 c 0,31,32
 439 717 439 717 451 702 c 128,-1,33
 463 687 463 687 463 666 c 0,34,35
 463 644 463 644 451 629 c 128,-1,36
 439 614 439 614 421 614 c 0,37,38
 404 614 404 614 392 628 c 0,39,40
 380 640 380 640 378 660 c 1,41,42
 376 640 376 640 364 628 c 0,43,44
 352 615 352 615 336 614 c 0,45,46
 319 614 319 614 307 628 c 0,47,48
 294 640 294 640 292 660 c 1,49,50
 290 640 290 640 279 628 c 0,51,52
 267 615 267 615 250 614 c 0,53,54
 233 614 233 614 221 628 c 0,55,56
 210 640 210 640 208 660 c 1,57,58
 206 640 206 640 194 628 c 0,59,60
 182 615 182 615 165 614 c 0,61,62
 148 614 148 614 136 628 c 0,63,64
 124 640 124 640 122 660 c 1,65,66
 120 641 120 641 109 628.5 c 128,-1,67
 98 616 98 616 84 614 c 1,68,69
 100 611 100 611 111 598 c 0,70,71
 122 584 122 584 122 563 c 0,72,73
 122 543 122 543 111 528.5 c 128,-1,74
 100 514 100 514 84 512 c 1,75,76
 100 509 100 509 111 496 c 0,77,78
 122 482 122 482 122 461 c 0,79,80
 122 441 122 441 111 426.5 c 128,-1,81
 100 412 100 412 84 410 c 1,82,83
 100 407 100 407 111 393 c 0,84,85
 120 380 120 380 122 362 c 1,86,87
 123 380 123 380 134 394 c 0,88,89
 146 409 146 409 165 410 c 0,90,91
 182 410 182 410 194 396.5 c 128,-1,92
 206 383 206 383 208 362 c 1,93,94
 210 382 210 382 221.5 396 c 128,-1,95
 233 410 233 410 250 410 c 0,96,97
 268 410 268 410 280 395 c 128,-1,98
 292 380 292 380 292 358 c 1,99,100
 292 380 292 380 305 395 c 128,-1,101
 318 410 318 410 336 410 c 256,102,103
 354 410 354 410 366 395 c 128,-1,104
 378 380 378 380 378 358 c 256,105,106
 378 336 378 336 365.5 321.5 c 128,-1,107
 353 307 353 307 336 307 c 128,-1,108
 319 307 319 307 307 321 c 0,109,110
 294 333 294 333 292 353 c 1,111,112
 290 333 290 333 279 321 c 0,113,114
 267 308 267 308 250 307 c 0,115,116
 233 307 233 307 221 321 c 0,117,118
 210 333 210 333 208 353 c 1,119,120
 206 333 206 333 194 321 c 0,121,122
 182 308 182 308 165 307 c 0,123,124
 148 307 148 307 136 321 c 0,125,126
 124 333 124 333 122 353 c 1,127,128
 120 334 120 334 109 321.5 c 128,-1,129
 98 309 98 309 84 307 c 1,130,131
 100 304 100 304 111 291 c 0,132,133
 122 277 122 277 122 256 c 0,134,135
 122 236 122 236 111 221.5 c 128,-1,136
 100 207 100 207 84 205 c 1,137,138
 100 202 100 202 111 188 c 128,-1,139
 122 174 122 174 122 154 c 128,-1,140
 122 134 122 134 111 119 c 128,-1,141
 100 104 100 104 84 102 c 1,142,143
 98 99 98 99 109 86.5 c 128,-1,144
 120 74 120 74 122 56 c 1,145,146
 124 75 124 75 136 88.5 c 128,-1,147
 148 102 148 102 165 102 c 128,-1,148
 182 102 182 102 194 89 c 128,-1,149
 206 76 206 76 208 56 c 1,150,151
 210 75 210 75 221.5 88.5 c 128,-1,152
 233 102 233 102 250 102 c 256,153,154
 267 102 267 102 279 89 c 0,155,156
 290 76 290 76 292 55 c 1,157,158
 294 75 294 75 306 88.5 c 128,-1,159
 318 102 318 102 336 102 c 0,160,161
 353 102 353 102 365 89 c 128,-1,162
 377 76 377 76 378 55 c 1,163,164
 380 75 380 75 392 88.5 c 128,-1,165
 404 102 404 102 421 102 c 0,166,167
 439 102 439 102 451 87.5 c 128,-1,168
 463 73 463 73 463 51 c 256,169,170
 463 29 463 29 451 14.5 c 128,-1,171
 439 0 439 0 421 0 c 0,172,173
 404 0 404 0 392 13 c 0,174,175
 380 25 380 25 378 46 c 1,176,177
 376 26 376 26 364 13 c 128,-1,178
 352 0 352 0 336 0 c 256,179,180
 319 0 319 0 307 13 c 0,181,182
 294 25 294 25 292 46 c 1,183,184
 290 26 290 26 279 13 c 0,185,186
 267 0 267 0 250 0 c 128,-1,187
 233 0 233 0 221 13 c 0,188,189
 210 25 210 25 208 46 c 1,190,191
 206 26 206 26 194 13 c 128,-1,192
 182 0 182 0 165 0 c 128,-1,193
 148 0 148 0 136 13 c 0,194,195
 124 25 124 25 122 46 c 1,196,197
 120 26 120 26 108.5 13 c 128,-1,198
 97 0 97 0 79 0 c 128,-1,199
 61 0 61 0 49 15 c 128,-1,200
 37 30 37 30 37 51 c 0,201,202
 37 71 37 71 48 86 c 0,203,204
 58 99 58 99 75 102 c 1,205,206
 58 104 58 104 48 119 c 0,207,208
 37 133 37 133 37 154 c 0,209,210
 37 174 37 174 48 188 c 0,211,212
 58 201 58 201 75 205 c 1,213,214
 58 207 58 207 48 221 c 0,215,216
 37 235 37 235 37 256 c 0,217,218
 37 276 37 276 48 291 c 0,219,220
 58 304 58 304 75 307 c 1,221,222
 58 309 58 309 48 324 c 0,223,224
 37 338 37 338 37 358 c 128,-1,225
 37 378 37 378 48 393 c 0,226,227
 58 406 58 406 75 410 c 1,228,229
 58 412 58 412 48 426 c 0,230,231
 37 440 37 440 37 461 c 0,232,233
 37 481 37 481 48 496 c 0,234,235
 58 509 58 509 75 512 c 1,236,237
 58 514 58 514 48 528 c 0,238,239
 37 542 37 542 37 563 c 0,240,241
 37 583 37 583 48 598 c 0,242,243
 58 611 58 611 75 614 c 1,244,245
 58 616 58 616 48 631 c 0,246,247
 37 646 37 646 37 666 c 0,0,1
EndSplineSet
EndChar

StartChar: F
Encoding: 70 70 19
Width: 500
VWidth: 1024
Flags: W
LayerCount: 2
Fore
SplineSet
37 666 m 0,0,1
 37 688 37 688 49.5 702.5 c 128,-1,2
 62 717 62 717 79 717 c 0,3,4
 97 717 97 717 109.5 702 c 128,-1,5
 122 687 122 687 122 666 c 1,6,7
 122 688 122 688 134.5 702.5 c 128,-1,8
 147 717 147 717 165 717 c 0,9,10
 182 717 182 717 194 703.5 c 128,-1,11
 206 690 206 690 208 670 c 1,12,13
 210 690 210 690 221.5 703.5 c 128,-1,14
 233 717 233 717 250 717 c 256,15,16
 251 717 251 717 252 717 c 0,17,18
 268 717 268 717 279 704 c 0,19,20
 290 690 290 690 292 670 c 1,21,22
 294 690 294 690 306 703.5 c 128,-1,23
 318 717 318 717 336 717 c 0,24,25
 353 717 353 717 364 703 c 0,26,27
 375 690 375 690 378 671 c 1,28,29
 380 690 380 690 392 703.5 c 128,-1,30
 404 717 404 717 421 717 c 0,31,32
 439 717 439 717 451 702 c 128,-1,33
 463 687 463 687 463 666 c 0,34,35
 463 644 463 644 451 629 c 128,-1,36
 439 614 439 614 421 614 c 0,37,38
 404 614 404 614 392 628 c 0,39,40
 380 640 380 640 378 660 c 1,41,42
 376 640 376 640 364 628 c 0,43,44
 352 615 352 615 336 614 c 0,45,46
 319 614 319 614 307 628 c 0,47,48
 294 640 294 640 292 660 c 1,49,50
 290 640 290 640 279 628 c 0,51,52
 267 615 267 615 250 614 c 0,53,54
 233 614 233 614 221 628 c 0,55,56
 210 640 210 640 208 660 c 1,57,58
 206 640 206 640 194 628 c 0,59,60
 182 615 182 615 165 614 c 0,61,62
 148 614 148 614 136 628 c 0,63,64
 124 640 124 640 122 660 c 1,65,66
 120 641 120 641 109 628.5 c 128,-1,67
 98 616 98 616 84 614 c 1,68,69
 100 611 100 611 111 598 c 0,70,71
 122 584 122 584 122 563 c 0,72,73
 122 543 122 543 111 528.5 c 128,-1,74
 100 514 100 514 84 512 c 1,75,76
 100 509 100 509 111 496 c 0,77,78
 122 482 122 482 122 461 c 0,79,80
 122 441 122 441 111 426.5 c 128,-1,81
 100 412 100 412 84 410 c 1,82,83
 100 407 100 407 111 393 c 128,-1,84
 122 379 122 379 122 358 c 1,85,86
 122 380 122 380 134.5 395 c 128,-1,87
 147 410 147 410 165 410 c 0,88,89
 182 410 182 410 194 396 c 0,90,91
 206 383 206 383 208 364 c 1,92,93
 210 383 210 383 221.5 396.5 c 128,-1,94
 233 410 233 410 250 410 c 256,95,96
 267 410 267 410 279 396 c 0,97,98
 290 383 290 383 292 364 c 1,99,100
 294 383 294 383 306 396.5 c 128,-1,101
 318 410 318 410 336 410 c 128,-1,102
 354 410 354 410 366 395 c 128,-1,103
 378 380 378 380 378 358 c 256,104,105
 378 336 378 336 365.5 321.5 c 128,-1,106
 353 307 353 307 336 307 c 128,-1,107
 319 307 319 307 307 321 c 0,108,109
 294 333 294 333 292 353 c 1,110,111
 290 333 290 333 279 321 c 0,112,113
 267 308 267 308 250 307 c 0,114,115
 233 307 233 307 221 321 c 0,116,117
 210 333 210 333 208 353 c 1,118,119
 206 333 206 333 194 321 c 0,120,121
 182 308 182 308 165 307 c 0,122,123
 148 307 148 307 136 321 c 0,124,125
 124 333 124 333 122 353 c 1,126,127
 120 334 120 334 109 321.5 c 128,-1,128
 98 309 98 309 84 307 c 1,129,130
 100 304 100 304 111 291 c 0,131,132
 122 277 122 277 122 256 c 0,133,134
 122 236 122 236 111 221.5 c 128,-1,135
 100 207 100 207 84 205 c 1,136,137
 100 202 100 202 111 188 c 128,-1,138
 122 174 122 174 122 154 c 128,-1,139
 122 134 122 134 111 119 c 128,-1,140
 100 104 100 104 84 102 c 1,141,142
 100 99 100 99 111 86 c 0,143,144
 122 72 122 72 122 51 c 0,145,146
 122 29 122 29 110 14.5 c 128,-1,147
 98 0 98 0 79 0 c 256,148,149
 61 0 61 0 49 15 c 128,-1,150
 37 30 37 30 37 51 c 0,151,152
 37 71 37 71 48 86 c 0,153,154
 58 99 58 99 75 102 c 1,155,156
 58 104 58 104 48 119 c 0,157,158
 37 133 37 133 37 154 c 0,159,160
 37 174 37 174 48 188 c 0,161,162
 58 201 58 201 75 205 c 1,163,164
 58 207 58 207 48 221 c 0,165,166
 37 235 37 235 37 256 c 0,167,168
 37 276 37 276 48 291 c 0,169,170
 58 304 58 304 75 307 c 1,171,172
 58 309 58 309 48 324 c 0,173,174
 37 338 37 338 37 358 c 128,-1,175
 37 378 37 378 48 393 c 0,176,177
 58 406 58 406 75 410 c 1,178,179
 58 412 58 412 48 426 c 0,180,181
 37 440 37 440 37 461 c 0,182,183
 37 481 37 481 48 496 c 0,184,185
 58 509 58 509 75 512 c 1,186,187
 58 514 58 514 48 528 c 0,188,189
 37 542 37 542 37 563 c 0,190,191
 37 583 37 583 48 598 c 0,192,193
 58 611 58 611 75 614 c 1,194,195
 58 616 58 616 48 631 c 0,196,197
 37 646 37 646 37 666 c 0,0,1
EndSplineSet
EndChar

StartChar: G
Encoding: 71 71 20
Width: 500
VWidth: 1024
Flags: W
LayerCount: 2
Fore
SplineSet
378 256 m 256,0,1
 378 276 378 276 389 291 c 0,2,3
 399 304 399 304 417 307 c 1,4,5
 401 309 401 309 390.5 321.5 c 128,-1,6
 380 334 380 334 378 353 c 1,7,8
 376 333 376 333 364 321 c 0,9,10
 352 308 352 308 336 307 c 0,11,12
 319 307 319 307 307 321 c 0,13,14
 294 333 294 333 292 353 c 1,15,16
 290 333 290 333 279 321 c 0,17,18
 267 308 267 308 250 307 c 0,19,20
 232 307 232 307 220 322 c 128,-1,21
 208 337 208 337 208 358 c 0,22,23
 208 380 208 380 220 395 c 128,-1,24
 232 410 232 410 250 410 c 0,25,26
 268 410 268 410 280 394 c 0,27,28
 290 381 290 381 292 362 c 1,29,30
 293 380 293 380 305 394 c 0,31,32
 317 409 317 409 336 410 c 0,33,34
 354 410 354 410 366 395 c 128,-1,35
 378 380 378 380 378 358 c 1,36,37
 378 380 378 380 390 395 c 128,-1,38
 402 410 402 410 421 410 c 256,39,40
 439 410 439 410 451 395 c 128,-1,41
 463 380 463 380 463 358 c 0,42,43
 463 338 463 338 452.5 323.5 c 128,-1,44
 442 309 442 309 425 307 c 1,45,46
 440 304 440 304 452 291 c 0,47,48
 463 277 463 277 463 256 c 0,49,50
 463 236 463 236 452.5 221.5 c 128,-1,51
 442 207 442 207 425 205 c 1,52,53
 440 202 440 202 452 188 c 0,54,55
 463 174 463 174 463 154 c 256,56,57
 463 134 463 134 452.5 119 c 128,-1,58
 442 104 442 104 425 102 c 1,59,60
 440 99 440 99 452 86 c 0,61,62
 463 72 463 72 463 51 c 0,63,64
 463 29 463 29 451 14.5 c 128,-1,65
 439 0 439 0 421 0 c 0,66,67
 404 0 404 0 392 13 c 0,68,69
 380 25 380 25 378 46 c 1,70,71
 376 26 376 26 364 13 c 128,-1,72
 352 0 352 0 336 0 c 256,73,74
 319 0 319 0 307 13 c 0,75,76
 294 25 294 25 292 46 c 1,77,78
 290 26 290 26 279 13 c 0,79,80
 267 0 267 0 250 0 c 0,81,82
 233 0 233 0 221 13 c 0,83,84
 210 25 210 25 208 46 c 1,85,86
 206 26 206 26 194 13 c 0,87,88
 182 0 182 0 165 0 c 0,89,90
 147 0 147 0 134.5 15 c 128,-1,91
 122 30 122 30 122 51 c 0,92,93
 122 73 122 73 134.5 87.5 c 128,-1,94
 147 102 147 102 165 102 c 256,95,96
 183 102 183 102 195 87 c 0,97,98
 206 74 206 74 208 55 c 1,99,100
 209 73 209 73 219 87 c 0,101,102
 231 102 231 102 250 102 c 0,103,104
 267 102 267 102 279 89 c 0,105,106
 290 76 290 76 292 56 c 1,107,108
 294 75 294 75 306 88.5 c 128,-1,109
 318 102 318 102 336 102 c 0,110,111
 354 102 354 102 366 87.5 c 128,-1,112
 378 73 378 73 378 51 c 1,113,114
 378 71 378 71 389 86 c 0,115,116
 399 99 399 99 417 102 c 1,117,118
 400 104 400 104 389 119 c 0,119,120
 378 133 378 133 378 154 c 0,121,122
 378 174 378 174 389 188 c 0,123,124
 399 201 399 201 417 205 c 1,125,126
 400 207 400 207 389 221 c 0,127,128
 378 236 378 236 378 256 c 256,0,1
37 256 m 256,129,130
 37 276 37 276 48 291 c 0,131,132
 58 304 58 304 75 307 c 1,133,134
 58 309 58 309 48 324 c 0,135,136
 37 338 37 338 37 358 c 0,137,138
 37 378 37 378 48 393 c 0,139,140
 58 406 58 406 75 410 c 1,141,142
 58 412 58 412 48 426 c 0,143,144
 37 440 37 440 37 461 c 0,145,146
 37 481 37 481 48 496 c 0,147,148
 58 509 58 509 75 512 c 1,149,150
 58 514 58 514 48 528 c 0,151,152
 37 542 37 542 37 563 c 0,153,154
 37 585 37 585 49.5 599.5 c 128,-1,155
 62 614 62 614 79 614 c 0,156,157
 97 614 97 614 109.5 599.5 c 128,-1,158
 122 585 122 585 122 563 c 0,159,160
 122 543 122 543 111 528.5 c 128,-1,161
 100 514 100 514 84 512 c 1,162,163
 100 509 100 509 111 496 c 0,164,165
 122 482 122 482 122 461 c 0,166,167
 122 441 122 441 111 426.5 c 128,-1,168
 100 412 100 412 84 410 c 1,169,170
 100 407 100 407 111 393 c 128,-1,171
 122 379 122 379 122 358 c 0,172,173
 122 338 122 338 111 323.5 c 128,-1,174
 100 309 100 309 84 307 c 1,175,176
 100 304 100 304 111 291 c 0,177,178
 122 277 122 277 122 256 c 0,179,180
 122 236 122 236 111 221.5 c 128,-1,181
 100 207 100 207 84 205 c 1,182,183
 100 202 100 202 111 188 c 128,-1,184
 122 174 122 174 122 154 c 0,185,186
 122 132 122 132 110 117 c 128,-1,187
 98 102 98 102 79 102 c 256,188,189
 61 102 61 102 49 117 c 128,-1,190
 37 132 37 132 37 154 c 0,191,192
 37 174 37 174 48 188 c 0,193,194
 58 201 58 201 75 205 c 1,195,196
 58 207 58 207 48 221 c 0,197,198
 37 236 37 236 37 256 c 256,129,130
122 666 m 256,199,200
 122 688 122 688 134.5 702.5 c 128,-1,201
 147 717 147 717 165 717 c 0,202,203
 182 717 182 717 194 703.5 c 128,-1,204
 206 690 206 690 208 670 c 1,205,206
 210 690 210 690 221.5 703.5 c 128,-1,207
 233 717 233 717 250 717 c 256,208,209
 267 717 267 717 279 703 c 0,210,211
 290 690 290 690 292 671 c 1,212,213
 294 690 294 690 306 703.5 c 128,-1,214
 318 717 318 717 336 717 c 0,215,216
 354 717 354 717 366 702 c 128,-1,217
 378 687 378 687 378 666 c 0,218,219
 378 644 378 644 365.5 629 c 128,-1,220
 353 614 353 614 336 614 c 0,221,222
 319 614 319 614 307 628 c 0,223,224
 294 640 294 640 292 660 c 1,225,226
 290 640 290 640 279 628 c 0,227,228
 267 615 267 615 250 614 c 0,229,230
 233 614 233 614 221 628 c 0,231,232
 210 640 210 640 208 660 c 1,233,234
 206 640 206 640 194 628 c 0,235,236
 182 615 182 615 165 614 c 0,237,238
 147 614 147 614 134.5 629 c 128,-1,239
 122 644 122 644 122 666 c 256,199,200
378 563 m 256,240,241
 378 585 378 585 390 599.5 c 128,-1,242
 402 614 402 614 421 614 c 256,243,244
 439 614 439 614 451 599.5 c 128,-1,245
 463 585 463 585 463 563 c 256,246,247
 463 541 463 541 451 526.5 c 128,-1,248
 439 512 439 512 421 512 c 256,249,250
 403 512 403 512 390.5 526.5 c 128,-1,251
 378 541 378 541 378 563 c 256,240,241
EndSplineSet
EndChar

StartChar: H
Encoding: 72 72 21
Width: 500
VWidth: 1024
Flags: W
LayerCount: 2
Fore
SplineSet
378 256 m 256,0,1
 378 276 378 276 389 291 c 0,2,3
 399 304 399 304 417 307 c 1,4,5
 401 309 401 309 390.5 321.5 c 128,-1,6
 380 334 380 334 378 353 c 1,7,8
 376 333 376 333 364 321 c 0,9,10
 352 308 352 308 336 307 c 0,11,12
 319 307 319 307 307 321 c 0,13,14
 294 333 294 333 292 353 c 1,15,16
 290 333 290 333 279 321 c 0,17,18
 267 308 267 308 250 307 c 0,19,20
 233 307 233 307 221 321 c 0,21,22
 210 333 210 333 208 353 c 1,23,24
 206 333 206 333 194 321 c 0,25,26
 182 308 182 308 165 307 c 0,27,28
 148 307 148 307 136 321 c 0,29,30
 124 333 124 333 122 353 c 1,31,32
 120 334 120 334 109 321.5 c 128,-1,33
 98 309 98 309 84 307 c 1,34,35
 100 304 100 304 111 291 c 0,36,37
 122 277 122 277 122 256 c 0,38,39
 122 236 122 236 111 221.5 c 128,-1,40
 100 207 100 207 84 205 c 1,41,42
 100 202 100 202 111 188 c 128,-1,43
 122 174 122 174 122 154 c 128,-1,44
 122 134 122 134 111 119 c 128,-1,45
 100 104 100 104 84 102 c 1,46,47
 100 99 100 99 111 86 c 0,48,49
 122 72 122 72 122 51 c 0,50,51
 122 29 122 29 110 14.5 c 128,-1,52
 98 0 98 0 79 0 c 256,53,54
 61 0 61 0 49 15 c 128,-1,55
 37 30 37 30 37 51 c 0,56,57
 37 71 37 71 48 86 c 0,58,59
 58 99 58 99 75 102 c 1,60,61
 58 104 58 104 48 119 c 0,62,63
 37 133 37 133 37 154 c 0,64,65
 37 174 37 174 48 188 c 0,66,67
 58 201 58 201 75 205 c 1,68,69
 58 207 58 207 48 221 c 0,70,71
 37 235 37 235 37 256 c 0,72,73
 37 276 37 276 48 291 c 0,74,75
 58 304 58 304 75 307 c 1,76,77
 58 309 58 309 48 324 c 0,78,79
 37 338 37 338 37 358 c 128,-1,80
 37 378 37 378 48 393 c 0,81,82
 58 406 58 406 75 410 c 1,83,84
 58 412 58 412 48 426 c 0,85,86
 37 440 37 440 37 461 c 0,87,88
 37 481 37 481 48 496 c 0,89,90
 58 509 58 509 75 512 c 1,91,92
 58 514 58 514 48 528 c 0,93,94
 37 542 37 542 37 563 c 0,95,96
 37 583 37 583 48 598 c 0,97,98
 58 611 58 611 75 614 c 1,99,100
 58 616 58 616 48 631 c 0,101,102
 37 645 37 645 37 666 c 0,103,104
 37 688 37 688 49.5 702.5 c 128,-1,105
 62 717 62 717 79 717 c 0,106,107
 97 717 97 717 109.5 702 c 128,-1,108
 122 687 122 687 122 666 c 0,109,110
 122 646 122 646 111 631 c 128,-1,111
 100 616 100 616 84 614 c 1,112,113
 100 611 100 611 111 598 c 0,114,115
 122 584 122 584 122 563 c 0,116,117
 122 543 122 543 111 528.5 c 128,-1,118
 100 514 100 514 84 512 c 1,119,120
 100 509 100 509 111 496 c 0,121,122
 122 482 122 482 122 461 c 0,123,124
 122 441 122 441 111 426.5 c 128,-1,125
 100 412 100 412 84 410 c 1,126,127
 100 407 100 407 111 393 c 128,-1,128
 122 379 122 379 122 358 c 1,129,130
 122 380 122 380 134.5 395 c 128,-1,131
 147 410 147 410 165 410 c 0,132,133
 182 410 182 410 194 396.5 c 128,-1,134
 206 383 206 383 208 362 c 1,135,136
 210 382 210 382 221.5 396 c 128,-1,137
 233 410 233 410 250 410 c 0,138,139
 268 410 268 410 280 395 c 128,-1,140
 292 380 292 380 292 358 c 1,141,142
 292 380 292 380 305 395 c 128,-1,143
 318 410 318 410 336 410 c 256,144,145
 354 410 354 410 366 395 c 128,-1,146
 378 380 378 380 378 358 c 1,147,148
 378 378 378 378 389 393 c 0,149,150
 399 406 399 406 417 410 c 1,151,152
 400 412 400 412 389 426 c 128,-1,153
 378 440 378 440 378 461 c 0,154,155
 378 481 378 481 389 496 c 0,156,157
 399 509 399 509 417 512 c 1,158,159
 400 514 400 514 389 528 c 128,-1,160
 378 542 378 542 378 563 c 0,161,162
 378 583 378 583 389 598 c 0,163,164
 399 611 399 611 417 614 c 1,165,166
 400 616 400 616 389 631 c 0,167,168
 378 645 378 645 378 666 c 0,169,170
 378 688 378 688 390 702.5 c 128,-1,171
 402 717 402 717 421 717 c 256,172,173
 439 717 439 717 451 702 c 128,-1,174
 463 687 463 687 463 666 c 0,175,176
 463 646 463 646 452.5 631 c 128,-1,177
 442 616 442 616 425 614 c 1,178,179
 440 611 440 611 452 598 c 0,180,181
 463 584 463 584 463 563 c 0,182,183
 463 543 463 543 452.5 528.5 c 128,-1,184
 442 514 442 514 425 512 c 1,185,186
 440 509 440 509 452 496 c 0,187,188
 463 482 463 482 463 461 c 0,189,190
 463 441 463 441 452.5 426.5 c 128,-1,191
 442 412 442 412 425 410 c 1,192,193
 440 407 440 407 452 393 c 0,194,195
 463 379 463 379 463 358 c 0,196,197
 463 338 463 338 452.5 323.5 c 128,-1,198
 442 309 442 309 425 307 c 1,199,200
 440 304 440 304 452 291 c 0,201,202
 463 277 463 277 463 256 c 0,203,204
 463 236 463 236 452.5 221.5 c 128,-1,205
 442 207 442 207 425 205 c 1,206,207
 440 202 440 202 452 188 c 0,208,209
 463 174 463 174 463 154 c 256,210,211
 463 134 463 134 452.5 119 c 128,-1,212
 442 104 442 104 425 102 c 1,213,214
 440 99 440 99 452 86 c 0,215,216
 463 72 463 72 463 51 c 0,217,218
 463 29 463 29 451 14.5 c 128,-1,219
 439 0 439 0 421 0 c 256,220,221
 403 0 403 0 390.5 15 c 128,-1,222
 378 30 378 30 378 51 c 0,223,224
 378 71 378 71 389 86 c 0,225,226
 399 99 399 99 417 102 c 1,227,228
 400 104 400 104 389 119 c 0,229,230
 378 133 378 133 378 154 c 0,231,232
 378 174 378 174 389 188 c 0,233,234
 399 201 399 201 417 205 c 1,235,236
 400 207 400 207 389 221 c 0,237,238
 378 236 378 236 378 256 c 256,0,1
EndSplineSet
EndChar

StartChar: I
Encoding: 73 73 22
Width: 500
VWidth: 1024
Flags: W
LayerCount: 2
Fore
SplineSet
208 563 m 256,0,1
 208 583 208 583 218 598 c 0,2,3
 228 611 228 611 246 614 c 1,4,5
 230 616 230 616 220 628 c 0,6,7
 210 640 210 640 208 660 c 1,8,9
 206 640 206 640 194 628 c 0,10,11
 182 615 182 615 164 614 c 0,12,13
 146 614 146 614 134 629 c 128,-1,14
 122 644 122 644 122 666 c 256,15,16
 122 688 122 688 134 702.5 c 128,-1,17
 146 717 146 717 164 717 c 256,18,19
 182 717 182 717 195 702 c 128,-1,20
 208 687 208 687 208 666 c 1,21,22
 208 688 208 688 220 702.5 c 128,-1,23
 232 717 232 717 249 717 c 128,-1,24
 266 717 266 717 279 703 c 0,25,26
 290 690 290 690 292 671 c 1,27,28
 294 690 294 690 306 703.5 c 128,-1,29
 318 717 318 717 336 717 c 128,-1,30
 354 717 354 717 366 702 c 128,-1,31
 378 687 378 687 378 666 c 0,32,33
 378 644 378 644 365 629 c 128,-1,34
 352 614 352 614 336 614 c 0,35,36
 319 614 319 614 306 628 c 0,37,38
 294 640 294 640 292 660 c 1,39,40
 290 641 290 641 279.5 628.5 c 128,-1,41
 269 616 269 616 254 614 c 1,42,43
 269 611 269 611 281 598 c 0,44,45
 292 584 292 584 292 563 c 0,46,47
 292 543 292 543 281.5 528.5 c 128,-1,48
 271 514 271 514 254 512 c 1,49,50
 269 509 269 509 281 496 c 0,51,52
 292 482 292 482 292 461 c 0,53,54
 292 441 292 441 281.5 426.5 c 128,-1,55
 271 412 271 412 254 410 c 1,56,57
 269 407 269 407 281 393 c 0,58,59
 292 379 292 379 292 358 c 0,60,61
 292 338 292 338 281.5 323.5 c 128,-1,62
 271 309 271 309 254 307 c 1,63,64
 269 304 269 304 281 291 c 0,65,66
 292 277 292 277 292 256 c 0,67,68
 292 236 292 236 281.5 221.5 c 128,-1,69
 271 207 271 207 254 205 c 1,70,71
 269 202 269 202 281 188 c 0,72,73
 292 174 292 174 292 154 c 256,74,75
 292 134 292 134 281.5 119 c 128,-1,76
 271 104 271 104 254 102 c 1,77,78
 267 99 267 99 279 87 c 0,79,80
 290 74 290 74 292 55 c 1,81,82
 294 75 294 75 306 88.5 c 128,-1,83
 318 102 318 102 336 102 c 128,-1,84
 354 102 354 102 366 87.5 c 128,-1,85
 378 73 378 73 378 51 c 256,86,87
 378 29 378 29 365 14.5 c 128,-1,88
 352 0 352 0 336 0 c 0,89,90
 319 0 319 0 306 13 c 0,91,92
 294 25 294 25 292 46 c 1,93,94
 290 26 290 26 279 13 c 0,95,96
 267 0 267 0 249 0 c 0,97,98
 232 0 232 0 221 13 c 0,99,100
 210 25 210 25 208 46 c 1,101,102
 206 26 206 26 194 13 c 128,-1,103
 182 0 182 0 164 0 c 128,-1,104
 146 0 146 0 134 15 c 128,-1,105
 122 30 122 30 122 51 c 0,106,107
 122 73 122 73 134 87.5 c 128,-1,108
 146 102 146 102 164 102 c 0,109,110
 181 102 181 102 193.5 89 c 128,-1,111
 206 76 206 76 208 55 c 1,112,113
 210 73 210 73 219 87 c 0,114,115
 229 99 229 99 246 102 c 1,116,117
 230 104 230 104 218 119 c 0,118,119
 208 133 208 133 208 154 c 0,120,121
 208 174 208 174 218 188 c 0,122,123
 228 201 228 201 246 205 c 1,124,125
 229 207 229 207 218.5 221 c 128,-1,126
 208 235 208 235 208 256 c 0,127,128
 208 276 208 276 218 291 c 0,129,130
 228 304 228 304 246 307 c 1,131,132
 230 309 230 309 218 324 c 0,133,134
 208 338 208 338 208 358 c 256,135,136
 208 378 208 378 218 393 c 0,137,138
 228 406 228 406 246 410 c 1,139,140
 229 412 229 412 218.5 426 c 128,-1,141
 208 440 208 440 208 461 c 0,142,143
 208 481 208 481 218 496 c 0,144,145
 228 509 228 509 246 512 c 1,146,147
 230 514 230 514 218 528 c 0,148,149
 208 543 208 543 208 563 c 256,0,1
EndSplineSet
EndChar

StartChar: J
Encoding: 74 74 23
Width: 500
VWidth: 1024
Flags: W
LayerCount: 2
Fore
SplineSet
292 563 m 256,0,1
 292 583 292 583 304 598 c 0,2,3
 314 611 314 611 331 614 c 1,4,5
 315 616 315 616 304.5 628.5 c 128,-1,6
 294 641 294 641 292 660 c 1,7,8
 290 640 290 640 279 628 c 0,9,10
 267 615 267 615 250 614 c 0,11,12
 232 614 232 614 220 629 c 128,-1,13
 208 644 208 644 208 666 c 256,14,15
 208 688 208 688 220 702.5 c 128,-1,16
 232 717 232 717 250 717 c 0,17,18
 267 717 267 717 279 703 c 0,19,20
 290 690 290 690 292 671 c 1,21,22
 294 690 294 690 306 703.5 c 128,-1,23
 318 717 318 717 336 717 c 0,24,25
 354 717 354 717 366 702 c 128,-1,26
 378 687 378 687 378 666 c 1,27,28
 378 688 378 688 390 702.5 c 128,-1,29
 402 717 402 717 421 717 c 256,30,31
 439 717 439 717 451 702 c 128,-1,32
 463 687 463 687 463 666 c 0,33,34
 463 644 463 644 451 629 c 128,-1,35
 439 614 439 614 421 614 c 0,36,37
 404 614 404 614 392 628 c 0,38,39
 380 640 380 640 378 660 c 1,40,41
 376 641 376 641 365 628.5 c 128,-1,42
 354 616 354 616 340 614 c 1,43,44
 356 611 356 611 367 598 c 0,45,46
 378 584 378 584 378 563 c 0,47,48
 378 543 378 543 367 528.5 c 128,-1,49
 356 514 356 514 340 512 c 1,50,51
 356 509 356 509 367 496 c 0,52,53
 378 482 378 482 378 461 c 0,54,55
 378 441 378 441 367 426.5 c 128,-1,56
 356 412 356 412 340 410 c 1,57,58
 356 407 356 407 367 393 c 128,-1,59
 378 379 378 379 378 358 c 0,60,61
 378 338 378 338 367 323.5 c 128,-1,62
 356 309 356 309 340 307 c 1,63,64
 356 304 356 304 367 291 c 0,65,66
 378 277 378 277 378 256 c 0,67,68
 378 236 378 236 367 221.5 c 128,-1,69
 356 207 356 207 340 205 c 1,70,71
 356 202 356 202 367 188 c 128,-1,72
 378 174 378 174 378 154 c 0,73,74
 378 132 378 132 365.5 117 c 128,-1,75
 353 102 353 102 336 102 c 0,76,77
 318 102 318 102 305 117 c 128,-1,78
 292 132 292 132 292 154 c 0,79,80
 292 174 292 174 304 188 c 0,81,82
 314 201 314 201 331 205 c 1,83,84
 314 207 314 207 304 221 c 0,85,86
 292 235 292 235 292 256 c 0,87,88
 292 276 292 276 304 291 c 0,89,90
 314 304 314 304 331 307 c 1,91,92
 314 309 314 309 304 324 c 0,93,94
 292 338 292 338 292 358 c 0,95,96
 292 378 292 378 304 393 c 0,97,98
 314 406 314 406 331 410 c 1,99,100
 314 412 314 412 304 426 c 0,101,102
 292 440 292 440 292 461 c 0,103,104
 292 481 292 481 304 496 c 0,105,106
 314 509 314 509 331 512 c 1,107,108
 314 514 314 514 304 528 c 0,109,110
 292 543 292 543 292 563 c 256,0,1
122 51 m 256,111,112
 122 73 122 73 134.5 87.5 c 128,-1,113
 147 102 147 102 165 102 c 256,114,115
 183 102 183 102 195 87 c 0,116,117
 206 74 206 74 208 55 c 1,118,119
 209 73 209 73 219 87 c 0,120,121
 231 102 231 102 250 102 c 256,122,123
 268 102 268 102 280 87.5 c 128,-1,124
 292 73 292 73 292 51 c 256,125,126
 292 29 292 29 280 14.5 c 128,-1,127
 268 0 268 0 250 0 c 0,128,129
 233 0 233 0 221 13 c 0,130,131
 210 25 210 25 208 46 c 1,132,133
 206 26 206 26 194 13 c 0,134,135
 182 0 182 0 165 0 c 0,136,137
 147 0 147 0 134.5 14.5 c 128,-1,138
 122 29 122 29 122 51 c 256,111,112
37 154 m 256,139,140
 37 176 37 176 49.5 190.5 c 128,-1,141
 62 205 62 205 79 205 c 0,142,143
 97 205 97 205 109.5 190 c 128,-1,144
 122 175 122 175 122 154 c 0,145,146
 122 132 122 132 110 117 c 128,-1,147
 98 102 98 102 79 102 c 256,148,149
 61 102 61 102 49 117 c 128,-1,150
 37 132 37 132 37 154 c 256,139,140
EndSplineSet
EndChar

StartChar: K
Encoding: 75 75 24
Width: 500
VWidth: 1024
Flags: W
LayerCount: 2
Fore
SplineSet
37 563 m 256,0,1
 37 583 37 583 48 598 c 0,2,3
 58 611 58 611 75 614 c 1,4,5
 58 616 58 616 48 631 c 0,6,7
 37 645 37 645 37 666 c 0,8,9
 37 688 37 688 49.5 702.5 c 128,-1,10
 62 717 62 717 79 717 c 0,11,12
 97 717 97 717 109.5 702 c 128,-1,13
 122 687 122 687 122 666 c 0,14,15
 122 646 122 646 111 631 c 128,-1,16
 100 616 100 616 84 614 c 1,17,18
 100 611 100 611 111 598 c 0,19,20
 122 584 122 584 122 563 c 0,21,22
 122 543 122 543 111 528.5 c 128,-1,23
 100 514 100 514 84 512 c 1,24,25
 100 509 100 509 111 496 c 0,26,27
 122 482 122 482 122 461 c 0,28,29
 122 441 122 441 111 426.5 c 128,-1,30
 100 412 100 412 84 410 c 1,31,32
 98 407 98 407 109 394 c 128,-1,33
 120 381 120 381 122 364 c 1,34,35
 124 383 124 383 136 396.5 c 128,-1,36
 148 410 148 410 165 410 c 0,37,38
 183 410 183 410 195.5 395 c 128,-1,39
 208 380 208 380 208 358 c 256,40,41
 208 336 208 336 195 321.5 c 128,-1,42
 182 307 182 307 165 307 c 0,43,44
 148 307 148 307 136 321 c 0,45,46
 124 333 124 333 122 353 c 1,47,48
 120 334 120 334 109 321.5 c 128,-1,49
 98 309 98 309 84 307 c 1,50,51
 100 304 100 304 111 291 c 0,52,53
 122 277 122 277 122 256 c 0,54,55
 122 236 122 236 111 221.5 c 128,-1,56
 100 207 100 207 84 205 c 1,57,58
 100 202 100 202 111 188 c 128,-1,59
 122 174 122 174 122 154 c 0,60,61
 122 134 122 134 111 119 c 128,-1,62
 100 104 100 104 84 102 c 1,63,64
 100 99 100 99 111 86 c 0,65,66
 122 72 122 72 122 51 c 0,67,68
 122 29 122 29 110 14.5 c 128,-1,69
 98 0 98 0 79 0 c 256,70,71
 61 0 61 0 49 15 c 128,-1,72
 37 30 37 30 37 51 c 0,73,74
 37 71 37 71 48 86 c 0,75,76
 58 99 58 99 75 102 c 1,77,78
 58 104 58 104 48 119 c 0,79,80
 37 133 37 133 37 154 c 0,81,82
 37 174 37 174 48 188 c 0,83,84
 58 201 58 201 75 205 c 1,85,86
 58 207 58 207 48 221 c 0,87,88
 37 235 37 235 37 256 c 0,89,90
 37 276 37 276 48 291 c 0,91,92
 58 304 58 304 75 307 c 1,93,94
 58 309 58 309 48 324 c 0,95,96
 37 338 37 338 37 358 c 0,97,98
 37 378 37 378 48 393 c 0,99,100
 58 406 58 406 75 410 c 1,101,102
 58 412 58 412 48 426 c 0,103,104
 37 440 37 440 37 461 c 0,105,106
 37 481 37 481 48 496 c 0,107,108
 58 509 58 509 75 512 c 1,109,110
 58 514 58 514 48 528 c 0,111,112
 37 543 37 543 37 563 c 256,0,1
378 51 m 256,113,114
 378 73 378 73 390 87.5 c 128,-1,115
 402 102 402 102 421 102 c 256,116,117
 439 102 439 102 451 87.5 c 128,-1,118
 463 73 463 73 463 51 c 256,119,120
 463 29 463 29 451 14.5 c 128,-1,121
 439 0 439 0 421 0 c 256,122,123
 403 0 403 0 390.5 14.5 c 128,-1,124
 378 29 378 29 378 51 c 256,113,114
208 461 m 256,125,126
 208 483 208 483 220 497.5 c 128,-1,127
 232 512 232 512 250 512 c 0,128,129
 268 512 268 512 280 497 c 128,-1,130
 292 482 292 482 292 461 c 0,131,132
 292 439 292 439 280 424.5 c 128,-1,133
 268 410 268 410 250 410 c 256,134,135
 232 410 232 410 220 424.5 c 128,-1,136
 208 439 208 439 208 461 c 256,125,126
292 154 m 256,137,138
 292 176 292 176 305 190.5 c 128,-1,139
 318 205 318 205 336 205 c 256,140,141
 354 205 354 205 366 190 c 128,-1,142
 378 175 378 175 378 154 c 0,143,144
 378 132 378 132 365.5 117 c 128,-1,145
 353 102 353 102 336 102 c 0,146,147
 318 102 318 102 305 117 c 128,-1,148
 292 132 292 132 292 154 c 256,137,138
292 563 m 256,149,150
 292 585 292 585 305 599.5 c 128,-1,151
 318 614 318 614 336 614 c 256,152,153
 354 614 354 614 366 599.5 c 128,-1,154
 378 585 378 585 378 563 c 256,155,156
 378 541 378 541 365.5 526.5 c 128,-1,157
 353 512 353 512 336 512 c 0,158,159
 318 512 318 512 305 526.5 c 128,-1,160
 292 541 292 541 292 563 c 256,149,150
378 666 m 256,161,162
 378 688 378 688 390 702.5 c 128,-1,163
 402 717 402 717 421 717 c 256,164,165
 439 717 439 717 451 702 c 128,-1,166
 463 687 463 687 463 666 c 0,167,168
 463 644 463 644 451 629 c 128,-1,169
 439 614 439 614 421 614 c 256,170,171
 403 614 403 614 390.5 629 c 128,-1,172
 378 644 378 644 378 666 c 256,161,162
208 256 m 256,173,174
 208 278 208 278 220 292.5 c 128,-1,175
 232 307 232 307 250 307 c 0,176,177
 271 307 271 307 281.5 291 c 128,-1,178
 292 275 292 275 292 256 c 128,-1,179
 292 237 292 237 281.5 221 c 128,-1,180
 271 205 271 205 250 205 c 0,181,182
 232 205 232 205 220 219.5 c 128,-1,183
 208 234 208 234 208 256 c 256,173,174
EndSplineSet
EndChar

StartChar: L
Encoding: 76 76 25
Width: 500
VWidth: 1024
Flags: W
LayerCount: 2
Fore
SplineSet
37 666 m 0,0,1
 37 688 37 688 49.5 702.5 c 128,-1,2
 62 717 62 717 79 717 c 0,3,4
 97 717 97 717 109.5 702 c 128,-1,5
 122 687 122 687 122 666 c 0,6,7
 122 646 122 646 111 631 c 128,-1,8
 100 616 100 616 84 614 c 1,9,10
 100 611 100 611 111 598 c 0,11,12
 122 584 122 584 122 563 c 0,13,14
 122 543 122 543 111 528.5 c 128,-1,15
 100 514 100 514 84 512 c 1,16,17
 100 509 100 509 111 496 c 0,18,19
 122 482 122 482 122 461 c 0,20,21
 122 441 122 441 111 426.5 c 128,-1,22
 100 412 100 412 84 410 c 1,23,24
 100 407 100 407 111 393 c 128,-1,25
 122 379 122 379 122 358 c 0,26,27
 122 338 122 338 111 323.5 c 128,-1,28
 100 309 100 309 84 307 c 1,29,30
 100 304 100 304 111 291 c 0,31,32
 122 277 122 277 122 256 c 0,33,34
 122 236 122 236 111 221.5 c 128,-1,35
 100 207 100 207 84 205 c 1,36,37
 100 202 100 202 111 188 c 128,-1,38
 122 174 122 174 122 154 c 0,39,40
 122 134 122 134 111 119 c 128,-1,41
 100 104 100 104 84 102 c 1,42,43
 100 99 100 99 111 86 c 0,44,45
 122 72 122 72 122 51 c 1,46,47
 122 73 122 73 134.5 87.5 c 128,-1,48
 147 102 147 102 165 102 c 0,49,50
 182 102 182 102 194 89 c 128,-1,51
 206 76 206 76 208 55 c 1,52,53
 210 75 210 75 221.5 88.5 c 128,-1,54
 233 102 233 102 250 102 c 0,55,56
 268 102 268 102 280 87.5 c 128,-1,57
 292 73 292 73 292 51 c 1,58,59
 292 73 292 73 305 87.5 c 128,-1,60
 318 102 318 102 336 102 c 256,61,62
 354 102 354 102 366 87.5 c 128,-1,63
 378 73 378 73 378 51 c 1,64,65
 378 73 378 73 390 87.5 c 128,-1,66
 402 102 402 102 421 102 c 256,67,68
 439 102 439 102 451 87.5 c 128,-1,69
 463 73 463 73 463 51 c 256,70,71
 463 29 463 29 451 14.5 c 128,-1,72
 439 0 439 0 421 0 c 0,73,74
 404 0 404 0 392 13 c 0,75,76
 380 25 380 25 378 46 c 1,77,78
 376 26 376 26 364 13 c 128,-1,79
 352 0 352 0 336 0 c 256,80,81
 319 0 319 0 307 13 c 0,82,83
 294 25 294 25 292 46 c 1,84,85
 290 26 290 26 279 13 c 0,86,87
 267 0 267 0 250 0 c 0,88,89
 233 0 233 0 221 13 c 0,90,91
 210 25 210 25 208 46 c 1,92,93
 206 26 206 26 194 13 c 0,94,95
 182 0 182 0 165 0 c 0,96,97
 148 0 148 0 136 13 c 0,98,99
 124 25 124 25 122 46 c 1,100,101
 120 26 120 26 108.5 13 c 128,-1,102
 97 0 97 0 79 0 c 0,103,104
 61 0 61 0 49 15 c 128,-1,105
 37 30 37 30 37 51 c 0,106,107
 37 71 37 71 48 86 c 0,108,109
 58 99 58 99 75 102 c 1,110,111
 58 104 58 104 48 119 c 0,112,113
 37 133 37 133 37 154 c 0,114,115
 37 174 37 174 48 188 c 0,116,117
 58 201 58 201 75 205 c 1,118,119
 58 207 58 207 48 221 c 0,120,121
 37 235 37 235 37 256 c 0,122,123
 37 276 37 276 48 291 c 0,124,125
 58 304 58 304 75 307 c 1,126,127
 58 309 58 309 48 324 c 0,128,129
 37 338 37 338 37 358 c 0,130,131
 37 378 37 378 48 393 c 0,132,133
 58 406 58 406 75 410 c 1,134,135
 58 412 58 412 48 426 c 0,136,137
 37 440 37 440 37 461 c 0,138,139
 37 481 37 481 48 496 c 0,140,141
 58 509 58 509 75 512 c 1,142,143
 58 514 58 514 48 528 c 0,144,145
 37 542 37 542 37 563 c 0,146,147
 37 583 37 583 48 598 c 0,148,149
 58 611 58 611 75 614 c 1,150,151
 58 616 58 616 48 631 c 0,152,153
 37 646 37 646 37 666 c 0,0,1
EndSplineSet
EndChar

StartChar: M
Encoding: 77 77 26
Width: 500
VWidth: 1024
Flags: W
LayerCount: 2
Fore
SplineSet
378 461 m 256,0,1
 378 481 378 481 389 496 c 0,2,3
 399 509 399 509 417 512 c 1,4,5
 401 514 401 514 390.5 526.5 c 128,-1,6
 380 539 380 539 378 558 c 1,7,8
 376 538 376 538 364 525 c 128,-1,9
 352 512 352 512 336 512 c 0,10,11
 318 512 318 512 305 527 c 128,-1,12
 292 542 292 542 292 563 c 0,13,14
 292 585 292 585 305 599.5 c 128,-1,15
 318 614 318 614 336 614 c 256,16,17
 354 614 354 614 365 599 c 0,18,19
 376 586 376 586 378 567 c 1,20,21
 379 584 379 584 389 598 c 0,22,23
 399 611 399 611 417 614 c 1,24,25
 400 616 400 616 389 631 c 0,26,27
 378 645 378 645 378 666 c 0,28,29
 378 688 378 688 390 702.5 c 128,-1,30
 402 717 402 717 421 717 c 256,31,32
 439 717 439 717 451 702 c 128,-1,33
 463 687 463 687 463 666 c 0,34,35
 463 646 463 646 452.5 631 c 128,-1,36
 442 616 442 616 425 614 c 1,37,38
 440 611 440 611 452 598 c 0,39,40
 463 584 463 584 463 563 c 0,41,42
 463 543 463 543 452.5 528.5 c 128,-1,43
 442 514 442 514 425 512 c 1,44,45
 440 509 440 509 452 496 c 0,46,47
 463 482 463 482 463 461 c 0,48,49
 463 441 463 441 452.5 426.5 c 128,-1,50
 442 412 442 412 425 410 c 1,51,52
 440 407 440 407 452 393 c 0,53,54
 463 379 463 379 463 358 c 0,55,56
 463 338 463 338 452.5 323.5 c 128,-1,57
 442 309 442 309 425 307 c 1,58,59
 440 304 440 304 452 291 c 0,60,61
 463 277 463 277 463 256 c 0,62,63
 463 236 463 236 452.5 221.5 c 128,-1,64
 442 207 442 207 425 205 c 1,65,66
 440 202 440 202 452 188 c 0,67,68
 463 174 463 174 463 154 c 256,69,70
 463 134 463 134 452.5 119 c 128,-1,71
 442 104 442 104 425 102 c 1,72,73
 440 99 440 99 452 86 c 0,74,75
 463 72 463 72 463 51 c 0,76,77
 463 29 463 29 451 14.5 c 128,-1,78
 439 0 439 0 421 0 c 256,79,80
 403 0 403 0 390.5 15 c 128,-1,81
 378 30 378 30 378 51 c 0,82,83
 378 71 378 71 389 86 c 0,84,85
 399 99 399 99 417 102 c 1,86,87
 400 104 400 104 389 119 c 0,88,89
 378 133 378 133 378 154 c 0,90,91
 378 174 378 174 389 188 c 0,92,93
 399 201 399 201 417 205 c 1,94,95
 400 207 400 207 389 221 c 128,-1,96
 378 235 378 235 378 256 c 0,97,98
 378 276 378 276 389 291 c 0,99,100
 399 304 399 304 417 307 c 1,101,102
 400 309 400 309 389 324 c 0,103,104
 378 338 378 338 378 358 c 256,105,106
 378 378 378 378 389 393 c 0,107,108
 399 406 399 406 417 410 c 1,109,110
 400 412 400 412 389 426 c 0,111,112
 378 441 378 441 378 461 c 256,0,1
37 563 m 256,113,114
 37 583 37 583 48 598 c 0,115,116
 58 611 58 611 75 614 c 1,117,118
 58 616 58 616 48 631 c 0,119,120
 37 645 37 645 37 666 c 0,121,122
 37 688 37 688 49.5 702.5 c 128,-1,123
 62 717 62 717 79 717 c 0,124,125
 97 717 97 717 109.5 702 c 128,-1,126
 122 687 122 687 122 666 c 0,127,128
 122 646 122 646 111 631 c 128,-1,129
 100 616 100 616 84 614 c 1,130,131
 100 611 100 611 111 598 c 0,132,133
 120 585 120 585 122 567 c 1,134,135
 123 585 123 585 134 599 c 0,136,137
 146 614 146 614 165 614 c 256,138,139
 183 614 183 614 195.5 599.5 c 128,-1,140
 208 585 208 585 208 563 c 256,141,142
 208 541 208 541 195 526.5 c 128,-1,143
 182 512 182 512 165 512 c 0,144,145
 148 512 148 512 136 525 c 0,146,147
 124 537 124 537 122 558 c 1,148,149
 120 539 120 539 109 526.5 c 128,-1,150
 98 514 98 514 84 512 c 1,151,152
 100 509 100 509 111 496 c 0,153,154
 122 482 122 482 122 461 c 0,155,156
 122 441 122 441 111 426.5 c 128,-1,157
 100 412 100 412 84 410 c 1,158,159
 100 407 100 407 111 393 c 128,-1,160
 122 379 122 379 122 358 c 0,161,162
 122 338 122 338 111 323.5 c 128,-1,163
 100 309 100 309 84 307 c 1,164,165
 100 304 100 304 111 291 c 0,166,167
 122 277 122 277 122 256 c 0,168,169
 122 236 122 236 111 221.5 c 128,-1,170
 100 207 100 207 84 205 c 1,171,172
 100 202 100 202 111 188 c 128,-1,173
 122 174 122 174 122 154 c 0,174,175
 122 134 122 134 111 119 c 128,-1,176
 100 104 100 104 84 102 c 1,177,178
 100 99 100 99 111 86 c 0,179,180
 122 72 122 72 122 51 c 0,181,182
 122 29 122 29 110 14.5 c 128,-1,183
 98 0 98 0 79 0 c 256,184,185
 61 0 61 0 49 15 c 128,-1,186
 37 30 37 30 37 51 c 0,187,188
 37 71 37 71 48 86 c 0,189,190
 58 99 58 99 75 102 c 1,191,192
 58 104 58 104 48 119 c 0,193,194
 37 133 37 133 37 154 c 0,195,196
 37 174 37 174 48 188 c 0,197,198
 58 201 58 201 75 205 c 1,199,200
 58 207 58 207 48 221 c 0,201,202
 37 235 37 235 37 256 c 0,203,204
 37 276 37 276 48 291 c 0,205,206
 58 304 58 304 75 307 c 1,207,208
 58 309 58 309 48 324 c 0,209,210
 37 338 37 338 37 358 c 0,211,212
 37 378 37 378 48 393 c 0,213,214
 58 406 58 406 75 410 c 1,215,216
 58 412 58 412 48 426 c 0,217,218
 37 440 37 440 37 461 c 0,219,220
 37 481 37 481 48 496 c 0,221,222
 58 509 58 509 75 512 c 1,223,224
 58 514 58 514 48 528 c 0,225,226
 37 543 37 543 37 563 c 256,113,114
208 461 m 256,227,228
 208 483 208 483 220 497.5 c 128,-1,229
 232 512 232 512 250 512 c 0,230,231
 268 512 268 512 280 497 c 128,-1,232
 292 482 292 482 292 461 c 0,233,234
 292 439 292 439 280 424.5 c 128,-1,235
 268 410 268 410 250 410 c 256,236,237
 232 410 232 410 220 424.5 c 128,-1,238
 208 439 208 439 208 461 c 256,227,228
EndSplineSet
EndChar

StartChar: N
Encoding: 78 78 27
Width: 500
VWidth: 1024
Flags: W
LayerCount: 2
Fore
SplineSet
378 51 m 0,0,1
 378 71 378 71 389 86 c 0,2,3
 399 99 399 99 417 102 c 1,4,5
 401 104 401 104 390.5 116.5 c 128,-1,6
 380 129 380 129 378 148 c 1,7,8
 376 128 376 128 364 116 c 0,9,10
 352 103 352 103 336 102 c 0,11,12
 318 102 318 102 305 117 c 128,-1,13
 292 132 292 132 292 154 c 256,14,15
 292 176 292 176 305 190.5 c 128,-1,16
 318 205 318 205 336 205 c 256,17,18
 354 205 354 205 366 190 c 128,-1,19
 378 175 378 175 378 154 c 1,20,21
 378 174 378 174 389 188 c 0,22,23
 399 201 399 201 417 205 c 1,24,25
 400 207 400 207 389 221 c 128,-1,26
 378 235 378 235 378 256 c 0,27,28
 378 276 378 276 389 291 c 0,29,30
 399 304 399 304 417 307 c 1,31,32
 400 309 400 309 389 324 c 0,33,34
 378 338 378 338 378 358 c 256,35,36
 378 378 378 378 389 393 c 0,37,38
 399 406 399 406 417 410 c 1,39,40
 400 412 400 412 389 426 c 128,-1,41
 378 440 378 440 378 461 c 0,42,43
 378 481 378 481 389 496 c 0,44,45
 399 509 399 509 417 512 c 1,46,47
 400 514 400 514 389 528 c 128,-1,48
 378 542 378 542 378 563 c 0,49,50
 378 583 378 583 389 598 c 0,51,52
 399 611 399 611 417 614 c 1,53,54
 400 616 400 616 389 631 c 0,55,56
 378 645 378 645 378 666 c 0,57,58
 378 688 378 688 390 702.5 c 128,-1,59
 402 717 402 717 421 717 c 256,60,61
 439 717 439 717 451 702 c 128,-1,62
 463 687 463 687 463 666 c 0,63,64
 463 646 463 646 452.5 631 c 128,-1,65
 442 616 442 616 425 614 c 1,66,67
 440 611 440 611 452 598 c 0,68,69
 463 584 463 584 463 563 c 0,70,71
 463 543 463 543 452.5 528.5 c 128,-1,72
 442 514 442 514 425 512 c 1,73,74
 440 509 440 509 452 496 c 0,75,76
 463 482 463 482 463 461 c 0,77,78
 463 441 463 441 452.5 426.5 c 128,-1,79
 442 412 442 412 425 410 c 1,80,81
 440 407 440 407 452 393 c 0,82,83
 463 379 463 379 463 358 c 0,84,85
 463 338 463 338 452.5 323.5 c 128,-1,86
 442 309 442 309 425 307 c 1,87,88
 440 304 440 304 452 291 c 0,89,90
 463 277 463 277 463 256 c 0,91,92
 463 236 463 236 452.5 221.5 c 128,-1,93
 442 207 442 207 425 205 c 1,94,95
 440 202 440 202 452 188 c 0,96,97
 463 174 463 174 463 154 c 256,98,99
 463 134 463 134 452.5 119 c 128,-1,100
 442 104 442 104 425 102 c 1,101,102
 440 99 440 99 452 86 c 0,103,104
 463 72 463 72 463 51 c 0,105,106
 463 29 463 29 451 14.5 c 128,-1,107
 439 0 439 0 421 0 c 256,108,109
 403 0 403 0 390.5 14.5 c 128,-1,110
 378 29 378 29 378 51 c 0,0,1
37 563 m 256,111,112
 37 583 37 583 48 598 c 0,113,114
 58 611 58 611 75 614 c 1,115,116
 58 616 58 616 48 631 c 0,117,118
 37 645 37 645 37 666 c 0,119,120
 37 688 37 688 49.5 702.5 c 128,-1,121
 62 717 62 717 79 717 c 0,122,123
 97 717 97 717 109.5 702 c 128,-1,124
 122 687 122 687 122 666 c 0,125,126
 122 646 122 646 111 631 c 128,-1,127
 100 616 100 616 84 614 c 1,128,129
 98 611 98 611 109 598.5 c 128,-1,130
 120 586 120 586 122 568 c 1,131,132
 124 587 124 587 136 600.5 c 128,-1,133
 148 614 148 614 165 614 c 0,134,135
 183 614 183 614 195.5 599.5 c 128,-1,136
 208 585 208 585 208 563 c 256,137,138
 208 541 208 541 195 526.5 c 128,-1,139
 182 512 182 512 165 512 c 0,140,141
 148 512 148 512 136 525 c 0,142,143
 124 537 124 537 122 558 c 1,144,145
 120 539 120 539 109 526.5 c 128,-1,146
 98 514 98 514 84 512 c 1,147,148
 100 509 100 509 111 496 c 0,149,150
 122 482 122 482 122 461 c 0,151,152
 122 441 122 441 111 426.5 c 128,-1,153
 100 412 100 412 84 410 c 1,154,155
 100 407 100 407 111 393 c 128,-1,156
 122 379 122 379 122 358 c 0,157,158
 122 338 122 338 111 323.5 c 128,-1,159
 100 309 100 309 84 307 c 1,160,161
 100 304 100 304 111 291 c 0,162,163
 122 277 122 277 122 256 c 0,164,165
 122 236 122 236 111 221.5 c 128,-1,166
 100 207 100 207 84 205 c 1,167,168
 100 202 100 202 111 188 c 128,-1,169
 122 174 122 174 122 154 c 0,170,171
 122 134 122 134 111 119 c 128,-1,172
 100 104 100 104 84 102 c 1,173,174
 100 99 100 99 111 86 c 0,175,176
 122 72 122 72 122 51 c 0,177,178
 122 29 122 29 110 14.5 c 128,-1,179
 98 0 98 0 79 0 c 256,180,181
 61 0 61 0 49 15 c 128,-1,182
 37 30 37 30 37 51 c 0,183,184
 37 71 37 71 48 86 c 0,185,186
 58 99 58 99 75 102 c 1,187,188
 58 104 58 104 48 119 c 0,189,190
 37 133 37 133 37 154 c 0,191,192
 37 174 37 174 48 188 c 0,193,194
 58 201 58 201 75 205 c 1,195,196
 58 207 58 207 48 221 c 0,197,198
 37 235 37 235 37 256 c 0,199,200
 37 276 37 276 48 291 c 0,201,202
 58 304 58 304 75 307 c 1,203,204
 58 309 58 309 48 324 c 0,205,206
 37 338 37 338 37 358 c 0,207,208
 37 378 37 378 48 393 c 0,209,210
 58 406 58 406 75 410 c 1,211,212
 58 412 58 412 48 426 c 0,213,214
 37 440 37 440 37 461 c 0,215,216
 37 481 37 481 48 496 c 0,217,218
 58 509 58 509 75 512 c 1,219,220
 58 514 58 514 48 528 c 0,221,222
 37 543 37 543 37 563 c 256,111,112
208 256 m 0,223,224
 208 276 208 276 218 291 c 0,225,226
 228 304 228 304 246 307 c 1,227,228
 229 309 229 309 218 324 c 0,229,230
 208 338 208 338 208 358 c 256,231,232
 208 378 208 378 218 393 c 0,233,234
 228 406 228 406 246 410 c 1,235,236
 229 412 229 412 218.5 426 c 128,-1,237
 208 440 208 440 208 461 c 0,238,239
 208 483 208 483 220 497.5 c 128,-1,240
 232 512 232 512 250 512 c 0,241,242
 268 512 268 512 280 497 c 128,-1,243
 292 482 292 482 292 461 c 0,244,245
 292 441 292 441 281.5 426.5 c 128,-1,246
 271 412 271 412 254 410 c 1,247,248
 270 407 270 407 282 393 c 0,249,250
 292 379 292 379 292 358 c 0,251,252
 292 338 292 338 281.5 323.5 c 128,-1,253
 271 309 271 309 254 307 c 1,254,255
 270 304 270 304 282 291 c 0,256,257
 292 277 292 277 292 256 c 0,258,259
 292 234 292 234 280 219.5 c 128,-1,260
 268 205 268 205 250 205 c 256,261,262
 232 205 232 205 220 219.5 c 128,-1,263
 208 234 208 234 208 256 c 0,223,224
EndSplineSet
EndChar

StartChar: O
Encoding: 79 79 28
Width: 500
VWidth: 1024
Flags: W
LayerCount: 2
Fore
SplineSet
37 256 m 256,0,1
 37 276 37 276 48 291 c 0,2,3
 58 304 58 304 75 307 c 1,4,5
 58 309 58 309 48 324 c 0,6,7
 37 338 37 338 37 358 c 0,8,9
 37 378 37 378 48 393 c 0,10,11
 58 406 58 406 75 410 c 1,12,13
 58 412 58 412 48 426 c 0,14,15
 37 440 37 440 37 461 c 0,16,17
 37 481 37 481 48 496 c 0,18,19
 58 509 58 509 75 512 c 1,20,21
 58 514 58 514 48 528 c 0,22,23
 37 542 37 542 37 563 c 0,24,25
 37 585 37 585 49.5 599.5 c 128,-1,26
 62 614 62 614 79 614 c 0,27,28
 97 614 97 614 109.5 599.5 c 128,-1,29
 122 585 122 585 122 563 c 0,30,31
 122 543 122 543 111 528.5 c 128,-1,32
 100 514 100 514 84 512 c 1,33,34
 100 509 100 509 111 496 c 0,35,36
 122 482 122 482 122 461 c 0,37,38
 122 441 122 441 111 426.5 c 128,-1,39
 100 412 100 412 84 410 c 1,40,41
 100 407 100 407 111 393 c 128,-1,42
 122 379 122 379 122 358 c 0,43,44
 122 338 122 338 111 323.5 c 128,-1,45
 100 309 100 309 84 307 c 1,46,47
 100 304 100 304 111 291 c 0,48,49
 122 277 122 277 122 256 c 0,50,51
 122 236 122 236 111 221.5 c 128,-1,52
 100 207 100 207 84 205 c 1,53,54
 100 202 100 202 111 188 c 128,-1,55
 122 174 122 174 122 154 c 0,56,57
 122 132 122 132 110 117 c 128,-1,58
 98 102 98 102 79 102 c 256,59,60
 61 102 61 102 49 117 c 128,-1,61
 37 132 37 132 37 154 c 0,62,63
 37 174 37 174 48 188 c 0,64,65
 58 201 58 201 75 205 c 1,66,67
 58 207 58 207 48 221 c 0,68,69
 37 236 37 236 37 256 c 256,0,1
378 256 m 256,70,71
 378 276 378 276 389 291 c 0,72,73
 399 304 399 304 417 307 c 1,74,75
 400 309 400 309 389 324 c 0,76,77
 378 338 378 338 378 358 c 256,78,79
 378 378 378 378 389 393 c 0,80,81
 399 406 399 406 417 410 c 1,82,83
 400 412 400 412 389 426 c 128,-1,84
 378 440 378 440 378 461 c 0,85,86
 378 481 378 481 389 496 c 0,87,88
 399 509 399 509 417 512 c 1,89,90
 400 514 400 514 389 528 c 128,-1,91
 378 542 378 542 378 563 c 0,92,93
 378 585 378 585 390 599.5 c 128,-1,94
 402 614 402 614 421 614 c 256,95,96
 439 614 439 614 451 599.5 c 128,-1,97
 463 585 463 585 463 563 c 0,98,99
 463 543 463 543 452.5 528.5 c 128,-1,100
 442 514 442 514 425 512 c 1,101,102
 440 509 440 509 452 496 c 0,103,104
 463 482 463 482 463 461 c 0,105,106
 463 441 463 441 452.5 426.5 c 128,-1,107
 442 412 442 412 425 410 c 1,108,109
 440 407 440 407 452 393 c 0,110,111
 463 379 463 379 463 358 c 0,112,113
 463 338 463 338 452.5 323.5 c 128,-1,114
 442 309 442 309 425 307 c 1,115,116
 440 304 440 304 452 291 c 0,117,118
 463 277 463 277 463 256 c 0,119,120
 463 236 463 236 452.5 221.5 c 128,-1,121
 442 207 442 207 425 205 c 1,122,123
 440 202 440 202 452 188 c 0,124,125
 463 174 463 174 463 154 c 0,126,127
 463 132 463 132 451 117 c 128,-1,128
 439 102 439 102 421 102 c 256,129,130
 403 102 403 102 390.5 117 c 128,-1,131
 378 132 378 132 378 154 c 0,132,133
 378 174 378 174 389 188 c 0,134,135
 399 201 399 201 417 205 c 1,136,137
 400 207 400 207 389 221 c 0,138,139
 378 236 378 236 378 256 c 256,70,71
122 666 m 256,140,141
 122 688 122 688 134.5 702.5 c 128,-1,142
 147 717 147 717 165 717 c 0,143,144
 182 717 182 717 194 703 c 0,145,146
 206 690 206 690 208 671 c 1,147,148
 210 690 210 690 221.5 703.5 c 128,-1,149
 233 717 233 717 250 717 c 0,150,151
 268 717 268 717 280 702 c 128,-1,152
 292 687 292 687 292 666 c 1,153,154
 292 688 292 688 305 702.5 c 128,-1,155
 318 717 318 717 336 717 c 256,156,157
 354 717 354 717 366 702 c 128,-1,158
 378 687 378 687 378 666 c 0,159,160
 378 644 378 644 365.5 629 c 128,-1,161
 353 614 353 614 336 614 c 0,162,163
 319 614 319 614 307 628 c 0,164,165
 294 640 294 640 292 660 c 1,166,167
 290 640 290 640 279 628 c 0,168,169
 267 615 267 615 250 614 c 0,170,171
 233 614 233 614 221 628 c 0,172,173
 210 640 210 640 208 660 c 1,174,175
 206 640 206 640 194 628 c 0,176,177
 182 615 182 615 165 614 c 0,178,179
 147 614 147 614 134.5 629 c 128,-1,180
 122 644 122 644 122 666 c 256,140,141
122 51 m 256,181,182
 122 73 122 73 134.5 87.5 c 128,-1,183
 147 102 147 102 165 102 c 0,184,185
 182 102 182 102 194 89 c 128,-1,186
 206 76 206 76 208 55 c 1,187,188
 210 75 210 75 221.5 88.5 c 128,-1,189
 233 102 233 102 250 102 c 256,190,191
 267 102 267 102 279 89 c 0,192,193
 290 76 290 76 292 56 c 1,194,195
 294 75 294 75 306 88.5 c 128,-1,196
 318 102 318 102 336 102 c 0,197,198
 354 102 354 102 366 87.5 c 128,-1,199
 378 73 378 73 378 51 c 256,200,201
 378 29 378 29 365.5 14.5 c 128,-1,202
 353 0 353 0 336 0 c 0,203,204
 319 0 319 0 307 13 c 0,205,206
 294 25 294 25 292 46 c 1,207,208
 290 26 290 26 279 13 c 0,209,210
 267 0 267 0 250 0 c 0,211,212
 233 0 233 0 221 13 c 0,213,214
 210 25 210 25 208 46 c 1,215,216
 206 26 206 26 194 13 c 0,217,218
 182 0 182 0 165 0 c 0,219,220
 147 0 147 0 134.5 14.5 c 128,-1,221
 122 29 122 29 122 51 c 256,181,182
EndSplineSet
EndChar

StartChar: P
Encoding: 80 80 29
Width: 500
VWidth: 1024
Flags: W
LayerCount: 2
Fore
SplineSet
37 666 m 0,0,1
 37 688 37 688 49.5 702.5 c 128,-1,2
 62 717 62 717 79 717 c 0,3,4
 97 717 97 717 109.5 702 c 128,-1,5
 122 687 122 687 122 666 c 1,6,7
 122 688 122 688 134.5 702.5 c 128,-1,8
 147 717 147 717 165 717 c 256,9,10
 183 717 183 717 195 701 c 0,11,12
 206 688 206 688 208 670 c 1,13,14
 209 688 209 688 219 701 c 0,15,16
 231 716 231 716 250 717 c 0,17,18
 268 717 268 717 280 701 c 0,19,20
 290 688 290 688 292 670 c 1,21,22
 293 688 293 688 305 701 c 0,23,24
 317 716 317 716 336 717 c 0,25,26
 354 717 354 717 366 702 c 128,-1,27
 378 687 378 687 378 666 c 0,28,29
 378 644 378 644 365.5 629 c 128,-1,30
 353 614 353 614 336 614 c 0,31,32
 319 614 319 614 307 628 c 0,33,34
 294 640 294 640 292 660 c 1,35,36
 290 640 290 640 279 628 c 0,37,38
 267 615 267 615 250 614 c 0,39,40
 233 614 233 614 221 628 c 0,41,42
 210 640 210 640 208 660 c 1,43,44
 206 640 206 640 194 628 c 0,45,46
 182 615 182 615 165 614 c 0,47,48
 148 614 148 614 136 628 c 0,49,50
 124 640 124 640 122 660 c 1,51,52
 120 641 120 641 109 628.5 c 128,-1,53
 98 616 98 616 84 614 c 1,54,55
 100 611 100 611 111 598 c 0,56,57
 122 584 122 584 122 563 c 0,58,59
 122 543 122 543 111 528.5 c 128,-1,60
 100 514 100 514 84 512 c 1,61,62
 100 509 100 509 111 496 c 0,63,64
 122 482 122 482 122 461 c 0,65,66
 122 441 122 441 111 426.5 c 128,-1,67
 100 412 100 412 84 410 c 1,68,69
 100 407 100 407 111 393 c 128,-1,70
 122 379 122 379 122 358 c 0,71,72
 122 338 122 338 111 323.5 c 128,-1,73
 100 309 100 309 84 307 c 1,74,75
 98 304 98 304 109 292 c 0,76,77
 120 279 120 279 122 260 c 1,78,79
 124 280 124 280 136 293.5 c 128,-1,80
 148 307 148 307 165 307 c 0,81,82
 182 307 182 307 194 294 c 128,-1,83
 206 281 206 281 208 260 c 1,84,85
 210 280 210 280 221.5 293.5 c 128,-1,86
 233 307 233 307 250 307 c 0,87,88
 268 307 268 307 280 292 c 0,89,90
 290 279 290 279 292 260 c 1,91,92
 293 278 293 278 305 292 c 0,93,94
 317 307 317 307 336 307 c 256,95,96
 354 307 354 307 366 292.5 c 128,-1,97
 378 278 378 278 378 256 c 256,98,99
 378 234 378 234 365.5 219.5 c 128,-1,100
 353 205 353 205 336 205 c 0,101,102
 319 205 319 205 307 218 c 0,103,104
 294 230 294 230 292 251 c 1,105,106
 290 231 290 231 279 218 c 0,107,108
 267 205 267 205 250 205 c 0,109,110
 233 205 233 205 221 218 c 0,111,112
 210 230 210 230 208 251 c 1,113,114
 206 231 206 231 194 218 c 0,115,116
 182 205 182 205 165 205 c 0,117,118
 148 205 148 205 136 218 c 0,119,120
 124 230 124 230 122 251 c 1,121,122
 120 232 120 232 109 219.5 c 128,-1,123
 98 207 98 207 84 205 c 1,124,125
 100 202 100 202 111 188 c 128,-1,126
 122 174 122 174 122 154 c 0,127,128
 122 134 122 134 111 119 c 128,-1,129
 100 104 100 104 84 102 c 1,130,131
 100 99 100 99 111 86 c 0,132,133
 122 72 122 72 122 51 c 0,134,135
 122 29 122 29 110 14.5 c 128,-1,136
 98 0 98 0 79 0 c 256,137,138
 61 0 61 0 49 15 c 128,-1,139
 37 30 37 30 37 51 c 0,140,141
 37 71 37 71 48 86 c 0,142,143
 58 99 58 99 75 102 c 1,144,145
 58 104 58 104 48 119 c 0,146,147
 37 133 37 133 37 154 c 0,148,149
 37 174 37 174 48 188 c 0,150,151
 58 201 58 201 75 205 c 1,152,153
 58 207 58 207 48 221 c 0,154,155
 37 235 37 235 37 256 c 0,156,157
 37 276 37 276 48 291 c 0,158,159
 58 304 58 304 75 307 c 1,160,161
 58 309 58 309 48 324 c 0,162,163
 37 338 37 338 37 358 c 0,164,165
 37 378 37 378 48 393 c 0,166,167
 58 406 58 406 75 410 c 1,168,169
 58 412 58 412 48 426 c 0,170,171
 37 440 37 440 37 461 c 0,172,173
 37 481 37 481 48 496 c 0,174,175
 58 509 58 509 75 512 c 1,176,177
 58 514 58 514 48 528 c 0,178,179
 37 542 37 542 37 563 c 0,180,181
 37 583 37 583 48 598 c 0,182,183
 58 611 58 611 75 614 c 1,184,185
 58 616 58 616 48 631 c 0,186,187
 37 646 37 646 37 666 c 0,0,1
378 563 m 0,188,189
 378 585 378 585 390 599.5 c 128,-1,190
 402 614 402 614 421 614 c 256,191,192
 439 614 439 614 451 599.5 c 128,-1,193
 463 585 463 585 463 563 c 0,194,195
 463 543 463 543 452.5 528.5 c 128,-1,196
 442 514 442 514 425 512 c 1,197,198
 440 509 440 509 452 496 c 0,199,200
 463 482 463 482 463 461 c 0,201,202
 463 441 463 441 452.5 426.5 c 128,-1,203
 442 412 442 412 425 410 c 1,204,205
 440 407 440 407 452 393 c 0,206,207
 463 379 463 379 463 358 c 0,208,209
 463 336 463 336 451 321.5 c 128,-1,210
 439 307 439 307 421 307 c 256,211,212
 403 307 403 307 390.5 322 c 128,-1,213
 378 337 378 337 378 358 c 0,214,215
 378 378 378 378 389 393 c 0,216,217
 399 406 399 406 417 410 c 1,218,219
 400 412 400 412 389 426 c 128,-1,220
 378 440 378 440 378 461 c 0,221,222
 378 481 378 481 389 496 c 0,223,224
 399 509 399 509 417 512 c 1,225,226
 400 514 400 514 389 528 c 0,227,228
 378 543 378 543 378 563 c 0,188,189
EndSplineSet
EndChar

StartChar: Q
Encoding: 81 81 30
Width: 500
VWidth: 1024
Flags: W
LayerCount: 2
Fore
SplineSet
378 563 m 0,0,1
 378 585 378 585 390 599.5 c 128,-1,2
 402 614 402 614 421 614 c 256,3,4
 439 614 439 614 451 599.5 c 128,-1,5
 463 585 463 585 463 563 c 0,6,7
 463 543 463 543 452.5 528.5 c 128,-1,8
 442 514 442 514 425 512 c 1,9,10
 440 509 440 509 452 496 c 0,11,12
 463 482 463 482 463 461 c 0,13,14
 463 441 463 441 452.5 426.5 c 128,-1,15
 442 412 442 412 425 410 c 1,16,17
 440 407 440 407 452 393 c 0,18,19
 463 379 463 379 463 358 c 0,20,21
 463 338 463 338 452.5 323.5 c 128,-1,22
 442 309 442 309 425 307 c 1,23,24
 440 304 440 304 452 291 c 0,25,26
 463 277 463 277 463 256 c 0,27,28
 463 236 463 236 452.5 221.5 c 128,-1,29
 442 207 442 207 425 205 c 1,30,31
 440 202 440 202 452 188 c 0,32,33
 463 174 463 174 463 154 c 256,34,35
 463 134 463 134 452.5 119 c 128,-1,36
 442 104 442 104 425 102 c 1,37,38
 440 99 440 99 452 86 c 0,39,40
 463 72 463 72 463 51 c 0,41,42
 463 29 463 29 451 14.5 c 128,-1,43
 439 0 439 0 421 0 c 0,44,45
 404 0 404 0 392 13 c 0,46,47
 380 25 380 25 378 46 c 1,48,49
 376 26 376 26 364 13 c 128,-1,50
 352 0 352 0 336 0 c 256,51,52
 319 0 319 0 307 13 c 0,53,54
 294 25 294 25 292 46 c 1,55,56
 290 26 290 26 279 13 c 0,57,58
 267 0 267 0 250 0 c 128,-1,59
 233 0 233 0 221 13 c 0,60,61
 210 25 210 25 208 46 c 1,62,63
 206 26 206 26 194 13 c 128,-1,64
 182 0 182 0 165 0 c 0,65,66
 147 0 147 0 134.5 15 c 128,-1,67
 122 30 122 30 122 51 c 0,68,69
 122 73 122 73 134.5 87.5 c 128,-1,70
 147 102 147 102 165 102 c 0,71,72
 182 102 182 102 194 89 c 128,-1,73
 206 76 206 76 208 56 c 1,74,75
 210 75 210 75 221.5 88.5 c 128,-1,76
 233 102 233 102 250 102 c 256,77,78
 267 102 267 102 279 89 c 0,79,80
 290 76 290 76 292 55 c 1,81,82
 294 73 294 73 305 87 c 0,83,84
 315 99 315 99 331 102 c 1,85,86
 314 104 314 104 304 119 c 0,87,88
 292 133 292 133 292 154 c 0,89,90
 292 176 292 176 305 190.5 c 128,-1,91
 318 205 318 205 336 205 c 256,92,93
 354 205 354 205 366 190 c 128,-1,94
 378 175 378 175 378 154 c 1,95,96
 378 174 378 174 389 188 c 0,97,98
 399 201 399 201 417 205 c 1,99,100
 400 207 400 207 389 221 c 128,-1,101
 378 235 378 235 378 256 c 0,102,103
 378 276 378 276 389 291 c 0,104,105
 399 304 399 304 417 307 c 1,106,107
 400 309 400 309 389 324 c 0,108,109
 378 338 378 338 378 358 c 256,110,111
 378 378 378 378 389 393 c 0,112,113
 399 406 399 406 417 410 c 1,114,115
 400 412 400 412 389 426 c 128,-1,116
 378 440 378 440 378 461 c 0,117,118
 378 481 378 481 389 496 c 0,119,120
 399 509 399 509 417 512 c 1,121,122
 400 514 400 514 389 528 c 0,123,124
 378 543 378 543 378 563 c 0,0,1
37 256 m 256,125,126
 37 276 37 276 48 291 c 0,127,128
 58 304 58 304 75 307 c 1,129,130
 58 309 58 309 48 324 c 0,131,132
 37 338 37 338 37 358 c 128,-1,133
 37 378 37 378 48 393 c 0,134,135
 58 406 58 406 75 410 c 1,136,137
 58 412 58 412 48 426 c 0,138,139
 37 440 37 440 37 461 c 0,140,141
 37 481 37 481 48 496 c 0,142,143
 58 509 58 509 75 512 c 1,144,145
 58 514 58 514 48 528 c 0,146,147
 37 542 37 542 37 563 c 0,148,149
 37 585 37 585 49.5 599.5 c 128,-1,150
 62 614 62 614 79 614 c 0,151,152
 97 614 97 614 109.5 599.5 c 128,-1,153
 122 585 122 585 122 563 c 0,154,155
 122 543 122 543 111 528.5 c 128,-1,156
 100 514 100 514 84 512 c 1,157,158
 100 509 100 509 111 496 c 0,159,160
 122 482 122 482 122 461 c 0,161,162
 122 441 122 441 111 426.5 c 128,-1,163
 100 412 100 412 84 410 c 1,164,165
 100 407 100 407 111 393 c 128,-1,166
 122 379 122 379 122 358 c 0,167,168
 122 338 122 338 111 323.5 c 128,-1,169
 100 309 100 309 84 307 c 1,170,171
 100 304 100 304 111 291 c 0,172,173
 122 277 122 277 122 256 c 0,174,175
 122 236 122 236 111 221.5 c 128,-1,176
 100 207 100 207 84 205 c 1,177,178
 100 202 100 202 111 188 c 128,-1,179
 122 174 122 174 122 154 c 0,180,181
 122 132 122 132 110 117 c 128,-1,182
 98 102 98 102 79 102 c 256,183,184
 61 102 61 102 49 117 c 128,-1,185
 37 132 37 132 37 154 c 0,186,187
 37 174 37 174 48 188 c 0,188,189
 58 201 58 201 75 205 c 1,190,191
 58 207 58 207 48 221 c 0,192,193
 37 236 37 236 37 256 c 256,125,126
122 666 m 256,194,195
 122 688 122 688 134.5 702.5 c 128,-1,196
 147 717 147 717 165 717 c 256,197,198
 183 717 183 717 195 701 c 0,199,200
 206 688 206 688 208 670 c 1,201,202
 209 688 209 688 219 701 c 0,203,204
 231 716 231 716 250 717 c 0,205,206
 251 717 251 717 252 717 c 0,207,208
 268 717 268 717 279 704 c 0,209,210
 290 690 290 690 292 670 c 1,211,212
 294 690 294 690 306 703.5 c 128,-1,213
 318 717 318 717 336 717 c 128,-1,214
 354 717 354 717 366 702 c 128,-1,215
 378 687 378 687 378 666 c 0,216,217
 378 644 378 644 365.5 629 c 128,-1,218
 353 614 353 614 336 614 c 128,-1,219
 319 614 319 614 307 628 c 0,220,221
 294 640 294 640 292 660 c 1,222,223
 290 640 290 640 279 628 c 0,224,225
 267 615 267 615 250 614 c 0,226,227
 233 614 233 614 221 628 c 0,228,229
 210 640 210 640 208 660 c 1,230,231
 206 640 206 640 194 628 c 0,232,233
 182 615 182 615 165 614 c 0,234,235
 147 614 147 614 134.5 629 c 128,-1,236
 122 644 122 644 122 666 c 256,194,195
208 256 m 256,237,238
 208 278 208 278 220 292.5 c 128,-1,239
 232 307 232 307 250 307 c 128,-1,240
 268 307 268 307 280 292.5 c 128,-1,241
 292 278 292 278 292 256 c 256,242,243
 292 234 292 234 280 219.5 c 128,-1,244
 268 205 268 205 250 205 c 256,245,246
 232 205 232 205 220 219.5 c 128,-1,247
 208 234 208 234 208 256 c 256,237,238
378 51 m 1,248,249
 378 71 378 71 389 86 c 0,250,251
 399 99 399 99 417 102 c 1,252,253
 401 104 401 104 390.5 116.5 c 128,-1,254
 380 129 380 129 378 148 c 1,255,256
 376 129 376 129 365 116.5 c 128,-1,257
 354 104 354 104 340 102 c 1,258,259
 356 99 356 99 367 86 c 0,260,261
 378 71 378 71 378 51 c 1,248,249
EndSplineSet
EndChar

StartChar: R
Encoding: 82 82 31
Width: 500
VWidth: 1024
Flags: W
LayerCount: 2
Fore
SplineSet
37 666 m 0,0,1
 37 688 37 688 49.5 702.5 c 128,-1,2
 62 717 62 717 79 717 c 0,3,4
 97 717 97 717 109.5 702 c 128,-1,5
 122 687 122 687 122 666 c 1,6,7
 122 688 122 688 134.5 702.5 c 128,-1,8
 147 717 147 717 165 717 c 256,9,10
 183 717 183 717 195 701 c 0,11,12
 206 688 206 688 208 670 c 1,13,14
 209 688 209 688 219 701 c 0,15,16
 231 716 231 716 250 717 c 0,17,18
 267 717 267 717 279 703 c 0,19,20
 290 690 290 690 292 671 c 1,21,22
 294 690 294 690 306 703.5 c 128,-1,23
 318 717 318 717 336 717 c 128,-1,24
 354 717 354 717 366 702 c 128,-1,25
 378 687 378 687 378 666 c 0,26,27
 378 644 378 644 365.5 629 c 128,-1,28
 353 614 353 614 336 614 c 128,-1,29
 319 614 319 614 307 628 c 0,30,31
 294 640 294 640 292 660 c 1,32,33
 290 640 290 640 279 628 c 0,34,35
 267 615 267 615 250 614 c 0,36,37
 233 614 233 614 221 628 c 0,38,39
 210 640 210 640 208 660 c 1,40,41
 206 640 206 640 194 628 c 0,42,43
 182 615 182 615 165 614 c 0,44,45
 148 614 148 614 136 628 c 0,46,47
 124 640 124 640 122 660 c 1,48,49
 120 641 120 641 109 628.5 c 128,-1,50
 98 616 98 616 84 614 c 1,51,52
 100 611 100 611 111 598 c 0,53,54
 122 584 122 584 122 563 c 0,55,56
 122 543 122 543 111 528.5 c 128,-1,57
 100 514 100 514 84 512 c 1,58,59
 100 509 100 509 111 496 c 0,60,61
 122 482 122 482 122 461 c 0,62,63
 122 441 122 441 111 426.5 c 128,-1,64
 100 412 100 412 84 410 c 1,65,66
 98 407 98 407 109 394 c 128,-1,67
 120 381 120 381 122 364 c 1,68,69
 124 383 124 383 136 396.5 c 128,-1,70
 148 410 148 410 165 410 c 0,71,72
 183 410 183 410 195 394 c 0,73,74
 206 381 206 381 208 362 c 1,75,76
 209 380 209 380 219 394 c 0,77,78
 231 409 231 409 250 410 c 0,79,80
 268 410 268 410 280 395 c 128,-1,81
 292 380 292 380 292 358 c 1,82,83
 292 380 292 380 305 395 c 128,-1,84
 318 410 318 410 336 410 c 256,85,86
 354 410 354 410 366 395 c 128,-1,87
 378 380 378 380 378 358 c 256,88,89
 378 336 378 336 365.5 321.5 c 128,-1,90
 353 307 353 307 336 307 c 128,-1,91
 319 307 319 307 307 321 c 0,92,93
 294 333 294 333 292 353 c 1,94,95
 290 334 290 334 279.5 321.5 c 128,-1,96
 269 309 269 309 254 307 c 1,97,98
 270 304 270 304 282 291 c 0,99,100
 292 277 292 277 292 256 c 0,101,102
 292 234 292 234 280 219.5 c 128,-1,103
 268 205 268 205 250 205 c 256,104,105
 232 205 232 205 220 219.5 c 128,-1,106
 208 234 208 234 208 256 c 0,107,108
 208 276 208 276 218 291 c 0,109,110
 228 304 228 304 246 307 c 1,111,112
 230 310 230 310 220 322 c 0,113,114
 210 334 210 334 208 353 c 1,115,116
 206 333 206 333 194 321 c 0,117,118
 182 308 182 308 165 307 c 0,119,120
 148 307 148 307 136 321 c 0,121,122
 124 333 124 333 122 353 c 1,123,124
 120 334 120 334 109 321.5 c 128,-1,125
 98 309 98 309 84 307 c 1,126,127
 100 304 100 304 111 291 c 0,128,129
 122 277 122 277 122 256 c 0,130,131
 122 236 122 236 111 221.5 c 128,-1,132
 100 207 100 207 84 205 c 1,133,134
 100 202 100 202 111 188 c 128,-1,135
 122 174 122 174 122 154 c 128,-1,136
 122 134 122 134 111 119 c 128,-1,137
 100 104 100 104 84 102 c 1,138,139
 100 99 100 99 111 86 c 0,140,141
 122 72 122 72 122 51 c 0,142,143
 122 29 122 29 110 14.5 c 128,-1,144
 98 0 98 0 79 0 c 256,145,146
 61 0 61 0 49 15 c 128,-1,147
 37 30 37 30 37 51 c 0,148,149
 37 71 37 71 48 86 c 0,150,151
 58 99 58 99 75 102 c 1,152,153
 58 104 58 104 48 119 c 0,154,155
 37 133 37 133 37 154 c 0,156,157
 37 174 37 174 48 188 c 0,158,159
 58 201 58 201 75 205 c 1,160,161
 58 207 58 207 48 221 c 0,162,163
 37 235 37 235 37 256 c 0,164,165
 37 276 37 276 48 291 c 0,166,167
 58 304 58 304 75 307 c 1,168,169
 58 309 58 309 48 324 c 0,170,171
 37 338 37 338 37 358 c 128,-1,172
 37 378 37 378 48 393 c 0,173,174
 58 406 58 406 75 410 c 1,175,176
 58 412 58 412 48 426 c 0,177,178
 37 440 37 440 37 461 c 0,179,180
 37 481 37 481 48 496 c 0,181,182
 58 509 58 509 75 512 c 1,183,184
 58 514 58 514 48 528 c 0,185,186
 37 542 37 542 37 563 c 0,187,188
 37 583 37 583 48 598 c 0,189,190
 58 611 58 611 75 614 c 1,191,192
 58 616 58 616 48 631 c 0,193,194
 37 646 37 646 37 666 c 0,0,1
378 563 m 0,195,196
 378 585 378 585 390 599.5 c 128,-1,197
 402 614 402 614 421 614 c 256,198,199
 439 614 439 614 451 599.5 c 128,-1,200
 463 585 463 585 463 563 c 0,201,202
 463 543 463 543 452.5 528.5 c 128,-1,203
 442 514 442 514 425 512 c 1,204,205
 440 509 440 509 452 496 c 0,206,207
 463 482 463 482 463 461 c 0,208,209
 463 439 463 439 451 424.5 c 128,-1,210
 439 410 439 410 421 410 c 256,211,212
 403 410 403 410 390.5 424.5 c 128,-1,213
 378 439 378 439 378 461 c 0,214,215
 378 481 378 481 389 496 c 0,216,217
 399 509 399 509 417 512 c 1,218,219
 400 514 400 514 389 528 c 0,220,221
 378 543 378 543 378 563 c 0,195,196
378 51 m 256,222,223
 378 73 378 73 390 87.5 c 128,-1,224
 402 102 402 102 421 102 c 256,225,226
 439 102 439 102 451 87.5 c 128,-1,227
 463 73 463 73 463 51 c 256,228,229
 463 29 463 29 451 14.5 c 128,-1,230
 439 0 439 0 421 0 c 256,231,232
 403 0 403 0 390.5 14.5 c 128,-1,233
 378 29 378 29 378 51 c 256,222,223
292 154 m 256,234,235
 292 176 292 176 305 190.5 c 128,-1,236
 318 205 318 205 336 205 c 256,237,238
 354 205 354 205 366 190 c 128,-1,239
 378 175 378 175 378 154 c 0,240,241
 378 132 378 132 365.5 117 c 128,-1,242
 353 102 353 102 336 102 c 0,243,244
 318 102 318 102 305 117 c 128,-1,245
 292 132 292 132 292 154 c 256,234,235
EndSplineSet
EndChar

StartChar: S
Encoding: 83 83 32
Width: 500
VWidth: 1024
Flags: W
LayerCount: 2
Fore
SplineSet
122 666 m 256,0,1
 122 688 122 688 134.5 702.5 c 128,-1,2
 147 717 147 717 165 717 c 256,3,4
 183 717 183 717 195.5 702 c 128,-1,5
 208 687 208 687 208 666 c 1,6,7
 208 688 208 688 220 702.5 c 128,-1,8
 232 717 232 717 250 717 c 0,9,10
 268 717 268 717 280 701 c 0,11,12
 290 688 290 688 292 670 c 1,13,14
 293 688 293 688 305 701 c 0,15,16
 317 716 317 716 336 717 c 0,17,18
 354 717 354 717 366 702 c 128,-1,19
 378 687 378 687 378 666 c 0,20,21
 378 644 378 644 365.5 629 c 128,-1,22
 353 614 353 614 336 614 c 0,23,24
 319 614 319 614 307 628 c 0,25,26
 294 640 294 640 292 660 c 1,27,28
 290 640 290 640 279 628 c 0,29,30
 267 615 267 615 250 614 c 0,31,32
 233 614 233 614 221 628 c 0,33,34
 210 640 210 640 208 660 c 1,35,36
 206 640 206 640 194 628 c 0,37,38
 182 615 182 615 165 614 c 0,39,40
 147 614 147 614 134.5 629 c 128,-1,41
 122 644 122 644 122 666 c 256,0,1
122 358 m 256,42,43
 122 380 122 380 134.5 395 c 128,-1,44
 147 410 147 410 165 410 c 256,45,46
 183 410 183 410 195 394 c 0,47,48
 206 381 206 381 208 362 c 1,49,50
 209 380 209 380 219 394 c 0,51,52
 231 409 231 409 250 410 c 0,53,54
 268 410 268 410 280 394 c 0,55,56
 290 381 290 381 292 362 c 1,57,58
 293 380 293 380 305 394 c 0,59,60
 317 409 317 409 336 410 c 0,61,62
 354 410 354 410 366 395 c 128,-1,63
 378 380 378 380 378 358 c 256,64,65
 378 336 378 336 365.5 321.5 c 128,-1,66
 353 307 353 307 336 307 c 0,67,68
 319 307 319 307 307 321 c 0,69,70
 294 333 294 333 292 353 c 1,71,72
 290 333 290 333 279 321 c 0,73,74
 267 308 267 308 250 307 c 0,75,76
 233 307 233 307 221 321 c 0,77,78
 210 333 210 333 208 353 c 1,79,80
 206 333 206 333 194 321 c 0,81,82
 182 308 182 308 165 307 c 0,83,84
 147 307 147 307 134.5 321.5 c 128,-1,85
 122 336 122 336 122 358 c 256,42,43
122 51 m 256,86,87
 122 73 122 73 134.5 87.5 c 128,-1,88
 147 102 147 102 165 102 c 256,89,90
 183 102 183 102 195 87 c 0,91,92
 206 74 206 74 208 55 c 1,93,94
 209 73 209 73 219 87 c 0,95,96
 231 102 231 102 250 102 c 256,97,98
 268 102 268 102 280 87.5 c 128,-1,99
 292 73 292 73 292 51 c 1,100,101
 292 73 292 73 305 87.5 c 128,-1,102
 318 102 318 102 336 102 c 256,103,104
 354 102 354 102 366 87.5 c 128,-1,105
 378 73 378 73 378 51 c 256,106,107
 378 29 378 29 365.5 14.5 c 128,-1,108
 353 0 353 0 336 0 c 0,109,110
 319 0 319 0 307 13 c 0,111,112
 294 25 294 25 292 46 c 1,113,114
 290 26 290 26 279 13 c 0,115,116
 267 0 267 0 250 0 c 0,117,118
 233 0 233 0 221 13 c 0,119,120
 210 25 210 25 208 46 c 1,121,122
 206 26 206 26 194 13 c 0,123,124
 182 0 182 0 165 0 c 0,125,126
 147 0 147 0 134.5 14.5 c 128,-1,127
 122 29 122 29 122 51 c 256,86,87
378 154 m 0,128,129
 378 174 378 174 389 188 c 0,130,131
 399 201 399 201 417 205 c 1,132,133
 400 207 400 207 389 221 c 128,-1,134
 378 235 378 235 378 256 c 0,135,136
 378 278 378 278 390 292.5 c 128,-1,137
 402 307 402 307 421 307 c 256,138,139
 439 307 439 307 451 292.5 c 128,-1,140
 463 278 463 278 463 256 c 0,141,142
 463 236 463 236 452.5 221.5 c 128,-1,143
 442 207 442 207 425 205 c 1,144,145
 440 202 440 202 452 188 c 0,146,147
 463 174 463 174 463 154 c 0,148,149
 463 132 463 132 451 117 c 128,-1,150
 439 102 439 102 421 102 c 256,151,152
 403 102 403 102 390.5 117 c 128,-1,153
 378 132 378 132 378 154 c 0,128,129
37 563 m 0,154,155
 37 585 37 585 49.5 599.5 c 128,-1,156
 62 614 62 614 79 614 c 0,157,158
 97 614 97 614 109.5 599.5 c 128,-1,159
 122 585 122 585 122 563 c 0,160,161
 122 543 122 543 111 528.5 c 128,-1,162
 100 514 100 514 84 512 c 1,163,164
 100 509 100 509 111 496 c 0,165,166
 122 482 122 482 122 461 c 0,167,168
 122 439 122 439 110 424.5 c 128,-1,169
 98 410 98 410 79 410 c 256,170,171
 61 410 61 410 49 424.5 c 128,-1,172
 37 439 37 439 37 461 c 0,173,174
 37 481 37 481 48 496 c 0,175,176
 58 509 58 509 75 512 c 1,177,178
 58 514 58 514 48 528 c 0,179,180
 37 543 37 543 37 563 c 0,154,155
378 563 m 256,181,182
 378 585 378 585 390 599.5 c 128,-1,183
 402 614 402 614 421 614 c 256,184,185
 439 614 439 614 451 599.5 c 128,-1,186
 463 585 463 585 463 563 c 256,187,188
 463 541 463 541 451 526.5 c 128,-1,189
 439 512 439 512 421 512 c 256,190,191
 403 512 403 512 390.5 526.5 c 128,-1,192
 378 541 378 541 378 563 c 256,181,182
37 154 m 256,193,194
 37 176 37 176 49.5 190.5 c 128,-1,195
 62 205 62 205 79 205 c 0,196,197
 97 205 97 205 109.5 190 c 128,-1,198
 122 175 122 175 122 154 c 0,199,200
 122 132 122 132 110 117 c 128,-1,201
 98 102 98 102 79 102 c 256,202,203
 61 102 61 102 49 117 c 128,-1,204
 37 132 37 132 37 154 c 256,193,194
EndSplineSet
EndChar

StartChar: T
Encoding: 84 84 33
Width: 500
VWidth: 1024
Flags: W
LayerCount: 2
Fore
SplineSet
208 563 m 256,0,1
 208 583 208 583 218 598 c 0,2,3
 228 611 228 611 246 614 c 1,4,5
 230 616 230 616 220 628 c 128,-1,6
 210 640 210 640 208 660 c 1,7,8
 206 640 206 640 194 628 c 0,9,10
 182 615 182 615 165 614 c 0,11,12
 148 614 148 614 136 628 c 0,13,14
 124 640 124 640 122 660 c 1,15,16
 120 640 120 640 108 628 c 0,17,18
 96 615 96 615 79 614 c 0,19,20
 61 614 61 614 49 629 c 128,-1,21
 37 644 37 644 37 666 c 256,22,23
 37 688 37 688 49.5 702.5 c 128,-1,24
 62 717 62 717 79 717 c 0,25,26
 80 717 80 717 81 717 c 0,27,28
 97 717 97 717 108 704 c 0,29,30
 120 690 120 690 122 670 c 1,31,32
 124 690 124 690 136 703.5 c 128,-1,33
 148 717 148 717 165 717 c 0,34,35
 183 717 183 717 195.5 702 c 128,-1,36
 208 687 208 687 208 666 c 1,37,38
 208 688 208 688 220 702.5 c 128,-1,39
 232 717 232 717 250 717 c 128,-1,40
 268 717 268 717 280 701 c 0,41,42
 290 688 290 688 292 670 c 1,43,44
 293 688 293 688 305 701 c 0,45,46
 317 716 317 716 336 717 c 0,47,48
 353 717 353 717 365 703.5 c 128,-1,49
 377 690 377 690 378 670 c 1,50,51
 380 690 380 690 392 703.5 c 128,-1,52
 404 717 404 717 421 717 c 0,53,54
 439 717 439 717 451 702 c 128,-1,55
 463 687 463 687 463 666 c 0,56,57
 463 644 463 644 451 629 c 128,-1,58
 439 614 439 614 421 614 c 0,59,60
 404 614 404 614 392 628 c 0,61,62
 380 640 380 640 378 660 c 1,63,64
 376 640 376 640 364 628 c 0,65,66
 352 615 352 615 336 614 c 0,67,68
 319 614 319 614 307 628 c 0,69,70
 294 640 294 640 292 660 c 1,71,72
 290 641 290 641 279.5 628.5 c 128,-1,73
 269 616 269 616 254 614 c 1,74,75
 270 611 270 611 282 598 c 0,76,77
 292 584 292 584 292 563 c 0,78,79
 292 543 292 543 281.5 528.5 c 128,-1,80
 271 514 271 514 254 512 c 1,81,82
 270 509 270 509 282 496 c 0,83,84
 292 482 292 482 292 461 c 0,85,86
 292 441 292 441 281.5 426.5 c 128,-1,87
 271 412 271 412 254 410 c 1,88,89
 270 407 270 407 282 393 c 0,90,91
 292 379 292 379 292 358 c 0,92,93
 292 338 292 338 281.5 323.5 c 128,-1,94
 271 309 271 309 254 307 c 1,95,96
 270 304 270 304 282 291 c 0,97,98
 292 277 292 277 292 256 c 0,99,100
 292 236 292 236 281.5 221.5 c 128,-1,101
 271 207 271 207 254 205 c 1,102,103
 270 202 270 202 282 188 c 0,104,105
 292 174 292 174 292 154 c 256,106,107
 292 134 292 134 281.5 119 c 128,-1,108
 271 104 271 104 254 102 c 1,109,110
 270 99 270 99 282 86 c 0,111,112
 292 72 292 72 292 51 c 0,113,114
 292 29 292 29 280 14.5 c 128,-1,115
 268 0 268 0 250 0 c 256,116,117
 232 0 232 0 220 15 c 128,-1,118
 208 30 208 30 208 51 c 0,119,120
 208 71 208 71 218 86 c 0,121,122
 228 99 228 99 246 102 c 1,123,124
 229 104 229 104 218 119 c 0,125,126
 208 133 208 133 208 154 c 0,127,128
 208 174 208 174 218 188 c 0,129,130
 228 201 228 201 246 205 c 1,131,132
 229 207 229 207 218.5 221 c 128,-1,133
 208 235 208 235 208 256 c 0,134,135
 208 276 208 276 218 291 c 0,136,137
 228 304 228 304 246 307 c 1,138,139
 229 309 229 309 218 324 c 0,140,141
 208 338 208 338 208 358 c 256,142,143
 208 378 208 378 218 393 c 0,144,145
 228 406 228 406 246 410 c 1,146,147
 229 412 229 412 218.5 426 c 128,-1,148
 208 440 208 440 208 461 c 0,149,150
 208 481 208 481 218 496 c 0,151,152
 228 509 228 509 246 512 c 1,153,154
 229 514 229 514 218 528 c 0,155,156
 208 543 208 543 208 563 c 256,0,1
EndSplineSet
EndChar

StartChar: U
Encoding: 85 85 34
Width: 500
VWidth: 1024
Flags: W
LayerCount: 2
Fore
SplineSet
37 563 m 256,0,1
 37 583 37 583 48 598 c 0,2,3
 58 611 58 611 75 614 c 1,4,5
 58 616 58 616 48 631 c 0,6,7
 37 645 37 645 37 666 c 0,8,9
 37 688 37 688 49.5 702.5 c 128,-1,10
 62 717 62 717 79 717 c 0,11,12
 97 717 97 717 109.5 702 c 128,-1,13
 122 687 122 687 122 666 c 0,14,15
 122 646 122 646 111 631 c 128,-1,16
 100 616 100 616 84 614 c 1,17,18
 100 611 100 611 111 598 c 0,19,20
 122 584 122 584 122 563 c 0,21,22
 122 543 122 543 111 528.5 c 128,-1,23
 100 514 100 514 84 512 c 1,24,25
 100 509 100 509 111 496 c 0,26,27
 122 482 122 482 122 461 c 0,28,29
 122 441 122 441 111 426.5 c 128,-1,30
 100 412 100 412 84 410 c 1,31,32
 100 407 100 407 111 393 c 128,-1,33
 122 379 122 379 122 358 c 0,34,35
 122 338 122 338 111 323.5 c 128,-1,36
 100 309 100 309 84 307 c 1,37,38
 100 304 100 304 111 291 c 0,39,40
 122 277 122 277 122 256 c 0,41,42
 122 236 122 236 111 221.5 c 128,-1,43
 100 207 100 207 84 205 c 1,44,45
 100 202 100 202 111 188 c 128,-1,46
 122 174 122 174 122 154 c 0,47,48
 122 132 122 132 110 117 c 128,-1,49
 98 102 98 102 79 102 c 256,50,51
 61 102 61 102 49 117 c 128,-1,52
 37 132 37 132 37 154 c 0,53,54
 37 174 37 174 48 188 c 0,55,56
 58 201 58 201 75 205 c 1,57,58
 58 207 58 207 48 221 c 0,59,60
 37 235 37 235 37 256 c 0,61,62
 37 276 37 276 48 291 c 0,63,64
 58 304 58 304 75 307 c 1,65,66
 58 309 58 309 48 324 c 0,67,68
 37 338 37 338 37 358 c 0,69,70
 37 378 37 378 48 393 c 0,71,72
 58 406 58 406 75 410 c 1,73,74
 58 412 58 412 48 426 c 0,75,76
 37 440 37 440 37 461 c 0,77,78
 37 481 37 481 48 496 c 0,79,80
 58 509 58 509 75 512 c 1,81,82
 58 514 58 514 48 528 c 0,83,84
 37 543 37 543 37 563 c 256,0,1
378 563 m 256,85,86
 378 583 378 583 389 598 c 0,87,88
 399 611 399 611 417 614 c 1,89,90
 400 616 400 616 389 631 c 0,91,92
 378 645 378 645 378 666 c 0,93,94
 378 688 378 688 390 702.5 c 128,-1,95
 402 717 402 717 421 717 c 256,96,97
 439 717 439 717 451 702 c 128,-1,98
 463 687 463 687 463 666 c 0,99,100
 463 646 463 646 452.5 631 c 128,-1,101
 442 616 442 616 425 614 c 1,102,103
 440 611 440 611 452 598 c 0,104,105
 463 584 463 584 463 563 c 0,106,107
 463 543 463 543 452.5 528.5 c 128,-1,108
 442 514 442 514 425 512 c 1,109,110
 440 509 440 509 452 496 c 0,111,112
 463 482 463 482 463 461 c 0,113,114
 463 441 463 441 452.5 426.5 c 128,-1,115
 442 412 442 412 425 410 c 1,116,117
 440 407 440 407 452 393 c 0,118,119
 463 379 463 379 463 358 c 0,120,121
 463 338 463 338 452.5 323.5 c 128,-1,122
 442 309 442 309 425 307 c 1,123,124
 440 304 440 304 452 291 c 0,125,126
 463 277 463 277 463 256 c 0,127,128
 463 236 463 236 452.5 221.5 c 128,-1,129
 442 207 442 207 425 205 c 1,130,131
 440 202 440 202 452 188 c 0,132,133
 463 174 463 174 463 154 c 0,134,135
 463 132 463 132 451 117 c 128,-1,136
 439 102 439 102 421 102 c 256,137,138
 403 102 403 102 390.5 117 c 128,-1,139
 378 132 378 132 378 154 c 0,140,141
 378 174 378 174 389 188 c 0,142,143
 399 201 399 201 417 205 c 1,144,145
 400 207 400 207 389 221 c 128,-1,146
 378 235 378 235 378 256 c 0,147,148
 378 276 378 276 389 291 c 0,149,150
 399 304 399 304 417 307 c 1,151,152
 400 309 400 309 389 324 c 0,153,154
 378 338 378 338 378 358 c 256,155,156
 378 378 378 378 389 393 c 0,157,158
 399 406 399 406 417 410 c 1,159,160
 400 412 400 412 389 426 c 128,-1,161
 378 440 378 440 378 461 c 0,162,163
 378 481 378 481 389 496 c 0,164,165
 399 509 399 509 417 512 c 1,166,167
 400 514 400 514 389 528 c 0,168,169
 378 543 378 543 378 563 c 256,85,86
122 51 m 256,170,171
 122 73 122 73 134.5 87.5 c 128,-1,172
 147 102 147 102 165 102 c 256,173,174
 183 102 183 102 195 87 c 0,175,176
 206 74 206 74 208 55 c 1,177,178
 209 73 209 73 219 87 c 0,179,180
 231 102 231 102 250 102 c 256,181,182
 268 102 268 102 280 87.5 c 128,-1,183
 292 73 292 73 292 51 c 1,184,185
 292 73 292 73 305 87.5 c 128,-1,186
 318 102 318 102 336 102 c 256,187,188
 354 102 354 102 366 87.5 c 128,-1,189
 378 73 378 73 378 51 c 256,190,191
 378 29 378 29 365.5 14.5 c 128,-1,192
 353 0 353 0 336 0 c 0,193,194
 319 0 319 0 307 13 c 0,195,196
 294 25 294 25 292 46 c 1,197,198
 290 26 290 26 279 13 c 0,199,200
 267 0 267 0 250 0 c 0,201,202
 233 0 233 0 221 13 c 0,203,204
 210 25 210 25 208 46 c 1,205,206
 206 26 206 26 194 13 c 0,207,208
 182 0 182 0 165 0 c 0,209,210
 147 0 147 0 134.5 14.5 c 128,-1,211
 122 29 122 29 122 51 c 256,170,171
EndSplineSet
EndChar

StartChar: V
Encoding: 86 86 35
Width: 500
VWidth: 1024
Flags: W
LayerCount: 2
Fore
SplineSet
37 563 m 256,0,1
 37 583 37 583 48 598 c 0,2,3
 58 611 58 611 75 614 c 1,4,5
 58 616 58 616 48 631 c 0,6,7
 37 645 37 645 37 666 c 0,8,9
 37 688 37 688 49.5 702.5 c 128,-1,10
 62 717 62 717 79 717 c 0,11,12
 97 717 97 717 109.5 702 c 128,-1,13
 122 687 122 687 122 666 c 0,14,15
 122 646 122 646 111 631 c 128,-1,16
 100 616 100 616 84 614 c 1,17,18
 100 611 100 611 111 598 c 0,19,20
 122 584 122 584 122 563 c 0,21,22
 122 543 122 543 111 528.5 c 128,-1,23
 100 514 100 514 84 512 c 1,24,25
 100 509 100 509 111 496 c 0,26,27
 122 482 122 482 122 461 c 0,28,29
 122 441 122 441 111 426.5 c 128,-1,30
 100 412 100 412 84 410 c 1,31,32
 100 407 100 407 111 393 c 128,-1,33
 122 379 122 379 122 358 c 0,34,35
 122 338 122 338 111 323.5 c 128,-1,36
 100 309 100 309 84 307 c 1,37,38
 100 304 100 304 111 291 c 0,39,40
 122 277 122 277 122 256 c 0,41,42
 122 234 122 234 110 219.5 c 128,-1,43
 98 205 98 205 79 205 c 256,44,45
 61 205 61 205 49 219.5 c 128,-1,46
 37 234 37 234 37 256 c 0,47,48
 37 276 37 276 48 291 c 0,49,50
 58 304 58 304 75 307 c 1,51,52
 58 309 58 309 48 324 c 0,53,54
 37 338 37 338 37 358 c 0,55,56
 37 378 37 378 48 393 c 0,57,58
 58 406 58 406 75 410 c 1,59,60
 58 412 58 412 48 426 c 0,61,62
 37 440 37 440 37 461 c 0,63,64
 37 481 37 481 48 496 c 0,65,66
 58 509 58 509 75 512 c 1,67,68
 58 514 58 514 48 528 c 0,69,70
 37 543 37 543 37 563 c 256,0,1
378 563 m 256,71,72
 378 583 378 583 389 598 c 0,73,74
 399 611 399 611 417 614 c 1,75,76
 400 616 400 616 389 631 c 0,77,78
 378 645 378 645 378 666 c 0,79,80
 378 688 378 688 390 702.5 c 128,-1,81
 402 717 402 717 421 717 c 256,82,83
 439 717 439 717 451 702 c 128,-1,84
 463 687 463 687 463 666 c 0,85,86
 463 646 463 646 452.5 631 c 128,-1,87
 442 616 442 616 425 614 c 1,88,89
 440 611 440 611 452 598 c 0,90,91
 463 584 463 584 463 563 c 0,92,93
 463 543 463 543 452.5 528.5 c 128,-1,94
 442 514 442 514 425 512 c 1,95,96
 440 509 440 509 452 496 c 0,97,98
 463 482 463 482 463 461 c 0,99,100
 463 441 463 441 452.5 426.5 c 128,-1,101
 442 412 442 412 425 410 c 1,102,103
 440 407 440 407 452 393 c 0,104,105
 463 379 463 379 463 358 c 0,106,107
 463 338 463 338 452.5 323.5 c 128,-1,108
 442 309 442 309 425 307 c 1,109,110
 440 304 440 304 452 291 c 0,111,112
 463 277 463 277 463 256 c 0,113,114
 463 234 463 234 451 219.5 c 128,-1,115
 439 205 439 205 421 205 c 256,116,117
 403 205 403 205 390.5 219.5 c 128,-1,118
 378 234 378 234 378 256 c 0,119,120
 378 276 378 276 389 291 c 0,121,122
 399 304 399 304 417 307 c 1,123,124
 400 309 400 309 389 324 c 0,125,126
 378 338 378 338 378 358 c 256,127,128
 378 378 378 378 389 393 c 0,129,130
 399 406 399 406 417 410 c 1,131,132
 400 412 400 412 389 426 c 128,-1,133
 378 440 378 440 378 461 c 0,134,135
 378 481 378 481 389 496 c 0,136,137
 399 509 399 509 417 512 c 1,138,139
 400 514 400 514 389 528 c 0,140,141
 378 543 378 543 378 563 c 256,71,72
292 154 m 256,142,143
 292 176 292 176 305 190.5 c 128,-1,144
 318 205 318 205 336 205 c 256,145,146
 354 205 354 205 366 190 c 128,-1,147
 378 175 378 175 378 154 c 0,148,149
 378 132 378 132 365.5 117 c 128,-1,150
 353 102 353 102 336 102 c 0,151,152
 318 102 318 102 305 117 c 128,-1,153
 292 132 292 132 292 154 c 256,142,143
208 51 m 256,154,155
 208 73 208 73 220 87.5 c 128,-1,156
 232 102 232 102 250 102 c 0,157,158
 268 102 268 102 280 87.5 c 128,-1,159
 292 73 292 73 292 51 c 256,160,161
 292 29 292 29 280 14.5 c 128,-1,162
 268 0 268 0 250 0 c 256,163,164
 232 0 232 0 220 14.5 c 128,-1,165
 208 29 208 29 208 51 c 256,154,155
122 154 m 256,166,167
 122 176 122 176 134.5 190.5 c 128,-1,168
 147 205 147 205 165 205 c 256,169,170
 183 205 183 205 195.5 190 c 128,-1,171
 208 175 208 175 208 154 c 0,172,173
 208 132 208 132 195 117 c 128,-1,174
 182 102 182 102 165 102 c 0,175,176
 147 102 147 102 134.5 117 c 128,-1,177
 122 132 122 132 122 154 c 256,166,167
EndSplineSet
EndChar

StartChar: W
Encoding: 87 87 36
Width: 500
VWidth: 1024
Flags: W
LayerCount: 2
Fore
SplineSet
37 563 m 256,0,1
 37 583 37 583 48 598 c 0,2,3
 58 611 58 611 75 614 c 1,4,5
 58 616 58 616 48 631 c 0,6,7
 37 645 37 645 37 666 c 0,8,9
 37 688 37 688 49.5 702.5 c 128,-1,10
 62 717 62 717 79 717 c 0,11,12
 97 717 97 717 109.5 702 c 128,-1,13
 122 687 122 687 122 666 c 0,14,15
 122 646 122 646 111 631 c 128,-1,16
 100 616 100 616 84 614 c 1,17,18
 100 611 100 611 111 598 c 0,19,20
 122 584 122 584 122 563 c 0,21,22
 122 543 122 543 111 528.5 c 128,-1,23
 100 514 100 514 84 512 c 1,24,25
 100 509 100 509 111 496 c 0,26,27
 122 482 122 482 122 461 c 0,28,29
 122 441 122 441 111 426.5 c 128,-1,30
 100 412 100 412 84 410 c 1,31,32
 100 407 100 407 111 393 c 128,-1,33
 122 379 122 379 122 358 c 0,34,35
 122 338 122 338 111 323.5 c 128,-1,36
 100 309 100 309 84 307 c 1,37,38
 100 304 100 304 111 291 c 0,39,40
 122 277 122 277 122 256 c 0,41,42
 122 236 122 236 111 221.5 c 128,-1,43
 100 207 100 207 84 205 c 1,44,45
 100 202 100 202 111 188 c 128,-1,46
 122 174 122 174 122 154 c 0,47,48
 122 132 122 132 110 117 c 128,-1,49
 98 102 98 102 79 102 c 256,50,51
 61 102 61 102 49 117 c 128,-1,52
 37 132 37 132 37 154 c 0,53,54
 37 174 37 174 48 188 c 0,55,56
 58 201 58 201 75 205 c 1,57,58
 58 207 58 207 48 221 c 0,59,60
 37 235 37 235 37 256 c 0,61,62
 37 276 37 276 48 291 c 0,63,64
 58 304 58 304 75 307 c 1,65,66
 58 309 58 309 48 324 c 0,67,68
 37 338 37 338 37 358 c 0,69,70
 37 378 37 378 48 393 c 0,71,72
 58 406 58 406 75 410 c 1,73,74
 58 412 58 412 48 426 c 0,75,76
 37 440 37 440 37 461 c 0,77,78
 37 481 37 481 48 496 c 0,79,80
 58 509 58 509 75 512 c 1,81,82
 58 514 58 514 48 528 c 0,83,84
 37 543 37 543 37 563 c 256,0,1
378 563 m 256,85,86
 378 583 378 583 389 598 c 0,87,88
 399 611 399 611 417 614 c 1,89,90
 400 616 400 616 389 631 c 0,91,92
 378 645 378 645 378 666 c 0,93,94
 378 688 378 688 390 702.5 c 128,-1,95
 402 717 402 717 421 717 c 256,96,97
 439 717 439 717 451 702 c 128,-1,98
 463 687 463 687 463 666 c 0,99,100
 463 646 463 646 452.5 631 c 128,-1,101
 442 616 442 616 425 614 c 1,102,103
 440 611 440 611 452 598 c 0,104,105
 463 584 463 584 463 563 c 0,106,107
 463 543 463 543 452.5 528.5 c 128,-1,108
 442 514 442 514 425 512 c 1,109,110
 440 509 440 509 452 496 c 0,111,112
 463 482 463 482 463 461 c 0,113,114
 463 441 463 441 452.5 426.5 c 128,-1,115
 442 412 442 412 425 410 c 1,116,117
 440 407 440 407 452 393 c 0,118,119
 463 379 463 379 463 358 c 0,120,121
 463 338 463 338 452.5 323.5 c 128,-1,122
 442 309 442 309 425 307 c 1,123,124
 440 304 440 304 452 291 c 0,125,126
 463 277 463 277 463 256 c 0,127,128
 463 236 463 236 452.5 221.5 c 128,-1,129
 442 207 442 207 425 205 c 1,130,131
 440 202 440 202 452 188 c 0,132,133
 463 174 463 174 463 154 c 0,134,135
 463 132 463 132 451 117 c 128,-1,136
 439 102 439 102 421 102 c 256,137,138
 403 102 403 102 390.5 117 c 128,-1,139
 378 132 378 132 378 154 c 0,140,141
 378 174 378 174 389 188 c 0,142,143
 399 201 399 201 417 205 c 1,144,145
 400 207 400 207 389 221 c 128,-1,146
 378 235 378 235 378 256 c 0,147,148
 378 276 378 276 389 291 c 0,149,150
 399 304 399 304 417 307 c 1,151,152
 400 309 400 309 389 324 c 0,153,154
 378 338 378 338 378 358 c 256,155,156
 378 378 378 378 389 393 c 0,157,158
 399 406 399 406 417 410 c 1,159,160
 400 412 400 412 389 426 c 128,-1,161
 378 440 378 440 378 461 c 0,162,163
 378 481 378 481 389 496 c 0,164,165
 399 509 399 509 417 512 c 1,166,167
 400 514 400 514 389 528 c 0,168,169
 378 543 378 543 378 563 c 256,85,86
208 154 m 0,170,171
 208 174 208 174 218 188 c 0,172,173
 228 201 228 201 246 205 c 1,174,175
 229 207 229 207 218.5 221 c 128,-1,176
 208 235 208 235 208 256 c 0,177,178
 208 278 208 278 220 292.5 c 128,-1,179
 232 307 232 307 250 307 c 0,180,181
 268 307 268 307 280 292.5 c 128,-1,182
 292 278 292 278 292 256 c 0,183,184
 292 236 292 236 281.5 221.5 c 128,-1,185
 271 207 271 207 254 205 c 1,186,187
 270 202 270 202 282 188 c 0,188,189
 292 174 292 174 292 154 c 0,190,191
 292 132 292 132 280 117 c 128,-1,192
 268 102 268 102 250 102 c 256,193,194
 232 102 232 102 220 117 c 128,-1,195
 208 132 208 132 208 154 c 0,170,171
292 51 m 256,196,197
 292 73 292 73 305 87.5 c 128,-1,198
 318 102 318 102 336 102 c 256,199,200
 354 102 354 102 366 87.5 c 128,-1,201
 378 73 378 73 378 51 c 256,202,203
 378 29 378 29 365.5 14.5 c 128,-1,204
 353 0 353 0 336 0 c 0,205,206
 318 0 318 0 305 14.5 c 128,-1,207
 292 29 292 29 292 51 c 256,196,197
122 51 m 256,208,209
 122 73 122 73 134.5 87.5 c 128,-1,210
 147 102 147 102 165 102 c 256,211,212
 183 102 183 102 195.5 87.5 c 128,-1,213
 208 73 208 73 208 51 c 256,214,215
 208 29 208 29 195 14.5 c 128,-1,216
 182 0 182 0 165 0 c 0,217,218
 147 0 147 0 134.5 14.5 c 128,-1,219
 122 29 122 29 122 51 c 256,208,209
EndSplineSet
EndChar

StartChar: X
Encoding: 88 88 37
Width: 500
VWidth: 1024
Flags: W
LayerCount: 2
Fore
SplineSet
37 563 m 0,0,1
 37 583 37 583 48 598 c 0,2,3
 58 611 58 611 75 614 c 1,4,5
 58 616 58 616 48 631 c 0,6,7
 37 645 37 645 37 666 c 0,8,9
 37 688 37 688 49.5 702.5 c 128,-1,10
 62 717 62 717 79 717 c 0,11,12
 97 717 97 717 109.5 702 c 128,-1,13
 122 687 122 687 122 666 c 0,14,15
 122 646 122 646 111 631 c 128,-1,16
 100 616 100 616 84 614 c 1,17,18
 100 611 100 611 111 598 c 0,19,20
 122 584 122 584 122 563 c 0,21,22
 122 541 122 541 110 526.5 c 128,-1,23
 98 512 98 512 79 512 c 256,24,25
 61 512 61 512 49 526.5 c 128,-1,26
 37 541 37 541 37 563 c 0,0,1
37 154 m 0,27,28
 37 176 37 176 49.5 190.5 c 128,-1,29
 62 205 62 205 79 205 c 0,30,31
 97 205 97 205 109.5 190 c 128,-1,32
 122 175 122 175 122 154 c 0,33,34
 122 134 122 134 111 119 c 128,-1,35
 100 104 100 104 84 102 c 1,36,37
 100 99 100 99 111 86 c 0,38,39
 122 72 122 72 122 51 c 0,40,41
 122 29 122 29 110 14.5 c 128,-1,42
 98 0 98 0 79 0 c 256,43,44
 61 0 61 0 49 15 c 128,-1,45
 37 30 37 30 37 51 c 0,46,47
 37 71 37 71 48 86 c 0,48,49
 58 99 58 99 75 102 c 1,50,51
 58 104 58 104 48 119 c 0,52,53
 37 134 37 134 37 154 c 0,27,28
378 51 m 0,54,55
 378 71 378 71 389 86 c 0,56,57
 399 99 399 99 417 102 c 1,58,59
 400 104 400 104 389 119 c 0,60,61
 378 133 378 133 378 154 c 0,62,63
 378 176 378 176 390 190.5 c 128,-1,64
 402 205 402 205 421 205 c 256,65,66
 439 205 439 205 451 190 c 128,-1,67
 463 175 463 175 463 154 c 0,68,69
 463 134 463 134 452.5 119 c 128,-1,70
 442 104 442 104 425 102 c 1,71,72
 440 99 440 99 452 86 c 0,73,74
 463 72 463 72 463 51 c 0,75,76
 463 29 463 29 451 14.5 c 128,-1,77
 439 0 439 0 421 0 c 256,78,79
 403 0 403 0 390.5 14.5 c 128,-1,80
 378 29 378 29 378 51 c 0,54,55
378 563 m 0,81,82
 378 583 378 583 389 598 c 0,83,84
 399 611 399 611 417 614 c 1,85,86
 400 616 400 616 389 631 c 0,87,88
 378 645 378 645 378 666 c 0,89,90
 378 688 378 688 390 702.5 c 128,-1,91
 402 717 402 717 421 717 c 256,92,93
 439 717 439 717 451 702 c 128,-1,94
 463 687 463 687 463 666 c 0,95,96
 463 646 463 646 452.5 631 c 128,-1,97
 442 616 442 616 425 614 c 1,98,99
 440 611 440 611 452 598 c 0,100,101
 463 584 463 584 463 563 c 0,102,103
 463 541 463 541 451 526.5 c 128,-1,104
 439 512 439 512 421 512 c 256,105,106
 403 512 403 512 390.5 526.5 c 128,-1,107
 378 541 378 541 378 563 c 0,81,82
292 256 m 256,108,109
 292 278 292 278 305 292.5 c 128,-1,110
 318 307 318 307 336 307 c 256,111,112
 354 307 354 307 366 292.5 c 128,-1,113
 378 278 378 278 378 256 c 256,114,115
 378 234 378 234 365.5 219.5 c 128,-1,116
 353 205 353 205 336 205 c 0,117,118
 318 205 318 205 305 219.5 c 128,-1,119
 292 234 292 234 292 256 c 256,108,109
122 256 m 256,120,121
 122 278 122 278 134.5 292.5 c 128,-1,122
 147 307 147 307 165 307 c 256,123,124
 183 307 183 307 195.5 292.5 c 128,-1,125
 208 278 208 278 208 256 c 256,126,127
 208 234 208 234 195 219.5 c 128,-1,128
 182 205 182 205 165 205 c 0,129,130
 147 205 147 205 134.5 219.5 c 128,-1,131
 122 234 122 234 122 256 c 256,120,121
208 358 m 256,132,133
 208 380 208 380 220 395 c 128,-1,134
 232 410 232 410 250 410 c 0,135,136
 268 410 268 410 280 395 c 128,-1,137
 292 380 292 380 292 358 c 256,138,139
 292 336 292 336 280 321.5 c 128,-1,140
 268 307 268 307 250 307 c 256,141,142
 232 307 232 307 220 321.5 c 128,-1,143
 208 336 208 336 208 358 c 256,132,133
292 461 m 256,144,145
 292 483 292 483 305 497.5 c 128,-1,146
 318 512 318 512 336 512 c 256,147,148
 354 512 354 512 366 497 c 128,-1,149
 378 482 378 482 378 461 c 0,150,151
 378 439 378 439 365.5 424.5 c 128,-1,152
 353 410 353 410 336 410 c 0,153,154
 318 410 318 410 305 424.5 c 128,-1,155
 292 439 292 439 292 461 c 256,144,145
122 461 m 256,156,157
 122 483 122 483 134.5 497.5 c 128,-1,158
 147 512 147 512 165 512 c 256,159,160
 183 512 183 512 195.5 497 c 128,-1,161
 208 482 208 482 208 461 c 0,162,163
 208 439 208 439 195 424.5 c 128,-1,164
 182 410 182 410 165 410 c 0,165,166
 147 410 147 410 134.5 424.5 c 128,-1,167
 122 439 122 439 122 461 c 256,156,157
EndSplineSet
EndChar

StartChar: Y
Encoding: 89 89 38
Width: 500
VWidth: 1024
Flags: W
LayerCount: 2
Fore
SplineSet
208 154 m 256,0,1
 208 174 208 174 218 188 c 0,2,3
 228 201 228 201 246 205 c 1,4,5
 229 207 229 207 218.5 221 c 128,-1,6
 208 235 208 235 208 256 c 0,7,8
 208 278 208 278 220 292.5 c 128,-1,9
 232 307 232 307 250 307 c 0,10,11
 268 307 268 307 280 292.5 c 128,-1,12
 292 278 292 278 292 256 c 0,13,14
 292 236 292 236 281.5 221.5 c 128,-1,15
 271 207 271 207 254 205 c 1,16,17
 270 202 270 202 282 188 c 0,18,19
 292 174 292 174 292 154 c 256,20,21
 292 134 292 134 281.5 119 c 128,-1,22
 271 104 271 104 254 102 c 1,23,24
 270 99 270 99 282 86 c 0,25,26
 292 72 292 72 292 51 c 0,27,28
 292 29 292 29 280 14.5 c 128,-1,29
 268 0 268 0 250 0 c 256,30,31
 232 0 232 0 220 15 c 128,-1,32
 208 30 208 30 208 51 c 0,33,34
 208 71 208 71 218 86 c 0,35,36
 228 99 228 99 246 102 c 1,37,38
 229 104 229 104 218.5 119 c 128,-1,39
 208 134 208 134 208 154 c 256,0,1
37 563 m 256,40,41
 37 583 37 583 48 598 c 0,42,43
 58 611 58 611 75 614 c 1,44,45
 58 616 58 616 48 631 c 0,46,47
 37 645 37 645 37 666 c 0,48,49
 37 688 37 688 49.5 702.5 c 128,-1,50
 62 717 62 717 79 717 c 0,51,52
 97 717 97 717 109.5 702 c 128,-1,53
 122 687 122 687 122 666 c 0,54,55
 122 646 122 646 111 631 c 128,-1,56
 100 616 100 616 84 614 c 1,57,58
 100 611 100 611 111 598 c 0,59,60
 122 584 122 584 122 563 c 0,61,62
 122 543 122 543 111 528.5 c 128,-1,63
 100 514 100 514 84 512 c 1,64,65
 100 509 100 509 111 496 c 0,66,67
 122 482 122 482 122 461 c 0,68,69
 122 439 122 439 110 424.5 c 128,-1,70
 98 410 98 410 79 410 c 256,71,72
 61 410 61 410 49 424.5 c 128,-1,73
 37 439 37 439 37 461 c 0,74,75
 37 481 37 481 48 496 c 0,76,77
 58 509 58 509 75 512 c 1,78,79
 58 514 58 514 48 528 c 0,80,81
 37 543 37 543 37 563 c 256,40,41
378 563 m 256,82,83
 378 583 378 583 389 598 c 0,84,85
 399 611 399 611 417 614 c 1,86,87
 400 616 400 616 389 631 c 0,88,89
 378 645 378 645 378 666 c 0,90,91
 378 688 378 688 390 702.5 c 128,-1,92
 402 717 402 717 421 717 c 256,93,94
 439 717 439 717 451 702 c 128,-1,95
 463 687 463 687 463 666 c 0,96,97
 463 646 463 646 452.5 631 c 128,-1,98
 442 616 442 616 425 614 c 1,99,100
 440 611 440 611 452 598 c 0,101,102
 463 584 463 584 463 563 c 0,103,104
 463 543 463 543 452.5 528.5 c 128,-1,105
 442 514 442 514 425 512 c 1,106,107
 440 509 440 509 452 496 c 0,108,109
 463 482 463 482 463 461 c 0,110,111
 463 439 463 439 451 424.5 c 128,-1,112
 439 410 439 410 421 410 c 256,113,114
 403 410 403 410 390.5 424.5 c 128,-1,115
 378 439 378 439 378 461 c 0,116,117
 378 481 378 481 389 496 c 0,118,119
 399 509 399 509 417 512 c 1,120,121
 400 514 400 514 389 528 c 0,122,123
 378 543 378 543 378 563 c 256,82,83
292 358 m 256,124,125
 292 380 292 380 305 395 c 128,-1,126
 318 410 318 410 336 410 c 256,127,128
 354 410 354 410 366 395 c 128,-1,129
 378 380 378 380 378 358 c 256,130,131
 378 336 378 336 365.5 321.5 c 128,-1,132
 353 307 353 307 336 307 c 0,133,134
 318 307 318 307 305 321.5 c 128,-1,135
 292 336 292 336 292 358 c 256,124,125
122 358 m 256,136,137
 122 380 122 380 134.5 395 c 128,-1,138
 147 410 147 410 165 410 c 256,139,140
 183 410 183 410 195.5 395 c 128,-1,141
 208 380 208 380 208 358 c 256,142,143
 208 336 208 336 195 321.5 c 128,-1,144
 182 307 182 307 165 307 c 0,145,146
 147 307 147 307 134.5 321.5 c 128,-1,147
 122 336 122 336 122 358 c 256,136,137
EndSplineSet
EndChar

StartChar: Z
Encoding: 90 90 39
Width: 500
VWidth: 1024
Flags: W
LayerCount: 2
Fore
SplineSet
37 154 m 0,0,1
 37 176 37 176 49.5 190.5 c 128,-1,2
 62 205 62 205 79 205 c 0,3,4
 97 205 97 205 109.5 190 c 128,-1,5
 122 175 122 175 122 154 c 0,6,7
 122 134 122 134 111 119 c 128,-1,8
 100 104 100 104 84 102 c 1,9,10
 100 99 100 99 111 86 c 0,11,12
 120 73 120 73 122 55 c 1,13,14
 123 73 123 73 134 87 c 0,15,16
 146 102 146 102 165 102 c 0,17,18
 182 102 182 102 194 89 c 128,-1,19
 206 76 206 76 208 55 c 1,20,21
 210 75 210 75 221.5 88.5 c 128,-1,22
 233 102 233 102 250 102 c 256,23,24
 267 102 267 102 279 89 c 0,25,26
 290 76 290 76 292 56 c 1,27,28
 294 75 294 75 306 88.5 c 128,-1,29
 318 102 318 102 336 102 c 0,30,31
 353 102 353 102 364 89 c 0,32,33
 375 76 375 76 378 56 c 1,34,35
 380 75 380 75 392 88.5 c 128,-1,36
 404 102 404 102 421 102 c 0,37,38
 439 102 439 102 451 87.5 c 128,-1,39
 463 73 463 73 463 51 c 256,40,41
 463 29 463 29 451 14.5 c 128,-1,42
 439 0 439 0 421 0 c 0,43,44
 404 0 404 0 392 13 c 0,45,46
 380 25 380 25 378 46 c 1,47,48
 376 26 376 26 364 13 c 128,-1,49
 352 0 352 0 336 0 c 256,50,51
 319 0 319 0 307 13 c 0,52,53
 294 25 294 25 292 46 c 1,54,55
 290 26 290 26 279 13 c 0,56,57
 267 0 267 0 250 0 c 0,58,59
 233 0 233 0 221 13 c 0,60,61
 210 25 210 25 208 46 c 1,62,63
 206 26 206 26 194 13 c 0,64,65
 182 0 182 0 165 0 c 0,66,67
 148 0 148 0 136 13 c 0,68,69
 124 25 124 25 122 46 c 1,70,71
 120 26 120 26 108.5 13 c 128,-1,72
 97 0 97 0 79 0 c 0,73,74
 61 0 61 0 49 15 c 128,-1,75
 37 30 37 30 37 51 c 0,76,77
 37 71 37 71 48 86 c 0,78,79
 58 99 58 99 75 102 c 1,80,81
 58 104 58 104 48 119 c 0,82,83
 37 134 37 134 37 154 c 0,0,1
378 563 m 0,84,85
 378 583 378 583 389 598 c 0,86,87
 399 611 399 611 417 614 c 1,88,89
 401 616 401 616 390.5 628.5 c 128,-1,90
 380 641 380 641 378 660 c 1,91,92
 376 640 376 640 364 628 c 0,93,94
 352 615 352 615 336 614 c 0,95,96
 319 614 319 614 307 628 c 0,97,98
 294 640 294 640 292 660 c 1,99,100
 290 640 290 640 279 628 c 0,101,102
 267 615 267 615 250 614 c 0,103,104
 233 614 233 614 221 628 c 0,105,106
 210 640 210 640 208 660 c 1,107,108
 206 640 206 640 194 628 c 0,109,110
 182 615 182 615 165 614 c 0,111,112
 148 614 148 614 136 628 c 0,113,114
 124 640 124 640 122 660 c 1,115,116
 120 640 120 640 108 628 c 0,117,118
 96 615 96 615 79 614 c 0,119,120
 61 614 61 614 49 629 c 128,-1,121
 37 644 37 644 37 666 c 256,122,123
 37 688 37 688 49.5 702.5 c 128,-1,124
 62 717 62 717 79 717 c 0,125,126
 96 717 96 717 108 703 c 0,127,128
 118 690 118 690 122 671 c 1,129,130
 124 690 124 690 136 703.5 c 128,-1,131
 148 717 148 717 165 717 c 0,132,133
 183 717 183 717 195.5 702 c 128,-1,134
 208 687 208 687 208 666 c 1,135,136
 208 688 208 688 220 702.5 c 128,-1,137
 232 717 232 717 250 717 c 0,138,139
 268 717 268 717 280 701 c 0,140,141
 290 688 290 688 292 670 c 1,142,143
 293 688 293 688 305 701 c 0,144,145
 317 716 317 716 336 717 c 0,146,147
 354 717 354 717 365 701 c 0,148,149
 376 688 376 688 378 670 c 1,150,151
 379 688 379 688 390 701 c 0,152,153
 402 716 402 716 421 717 c 0,154,155
 439 717 439 717 451 702 c 128,-1,156
 463 687 463 687 463 666 c 0,157,158
 463 646 463 646 452.5 631 c 128,-1,159
 442 616 442 616 425 614 c 1,160,161
 440 611 440 611 452 598 c 0,162,163
 463 584 463 584 463 563 c 0,164,165
 463 541 463 541 451 526.5 c 128,-1,166
 439 512 439 512 421 512 c 256,167,168
 403 512 403 512 390.5 526.5 c 128,-1,169
 378 541 378 541 378 563 c 0,84,85
122 256 m 256,170,171
 122 278 122 278 134.5 292.5 c 128,-1,172
 147 307 147 307 165 307 c 256,173,174
 183 307 183 307 195.5 292.5 c 128,-1,175
 208 278 208 278 208 256 c 256,176,177
 208 234 208 234 195 219.5 c 128,-1,178
 182 205 182 205 165 205 c 0,179,180
 147 205 147 205 134.5 219.5 c 128,-1,181
 122 234 122 234 122 256 c 256,170,171
292 461 m 256,182,183
 292 483 292 483 305 497.5 c 128,-1,184
 318 512 318 512 336 512 c 256,185,186
 354 512 354 512 366 497 c 128,-1,187
 378 482 378 482 378 461 c 0,188,189
 378 439 378 439 365.5 424.5 c 128,-1,190
 353 410 353 410 336 410 c 0,191,192
 318 410 318 410 305 424.5 c 128,-1,193
 292 439 292 439 292 461 c 256,182,183
208 358 m 256,194,195
 208 380 208 380 220 395 c 128,-1,196
 232 410 232 410 250 410 c 0,197,198
 268 410 268 410 280 395 c 128,-1,199
 292 380 292 380 292 358 c 256,200,201
 292 336 292 336 280 321.5 c 128,-1,202
 268 307 268 307 250 307 c 256,203,204
 232 307 232 307 220 321.5 c 128,-1,205
 208 336 208 336 208 358 c 256,194,195
EndSplineSet
EndChar

StartChar: bracketleft
Encoding: 91 91 40
Width: 500
VWidth: 1024
Flags: W
LayerCount: 2
Fore
SplineSet
122 666 m 0,0,1
 122 688 122 688 134 702.5 c 128,-1,2
 146 717 146 717 164 717 c 256,3,4
 182 717 182 717 195 702 c 128,-1,5
 208 687 208 687 208 666 c 1,6,7
 208 688 208 688 220 702.5 c 128,-1,8
 232 717 232 717 249 717 c 0,9,10
 267 717 267 717 279 701 c 0,11,12
 290 688 290 688 292 670 c 1,13,14
 292 688 292 688 304 701 c 0,15,16
 317 716 317 716 336 717 c 0,17,18
 354 717 354 717 366 702 c 128,-1,19
 378 687 378 687 378 666 c 0,20,21
 378 644 378 644 365 629 c 128,-1,22
 352 614 352 614 336 614 c 0,23,24
 319 614 319 614 306 628 c 0,25,26
 294 640 294 640 292 660 c 1,27,28
 290 640 290 640 279 628 c 0,29,30
 267 615 267 615 249 614 c 0,31,32
 232 614 232 614 221 628 c 0,33,34
 210 640 210 640 208 660 c 1,35,36
 206 641 206 641 194 628.5 c 128,-1,37
 182 616 182 616 169 614 c 1,38,39
 184 611 184 611 196 598 c 0,40,41
 208 584 208 584 208 563 c 0,42,43
 208 543 208 543 196 528.5 c 128,-1,44
 184 514 184 514 169 512 c 1,45,46
 184 509 184 509 196 496 c 0,47,48
 208 482 208 482 208 461 c 0,49,50
 208 441 208 441 196 426.5 c 128,-1,51
 184 412 184 412 169 410 c 1,52,53
 184 407 184 407 196 393 c 0,54,55
 208 379 208 379 208 358 c 0,56,57
 208 338 208 338 196 323.5 c 128,-1,58
 184 309 184 309 169 307 c 1,59,60
 184 304 184 304 196 291 c 0,61,62
 208 277 208 277 208 256 c 0,63,64
 208 236 208 236 196 221.5 c 128,-1,65
 184 207 184 207 169 205 c 1,66,67
 184 202 184 202 196 188 c 0,68,69
 208 174 208 174 208 154 c 256,70,71
 208 134 208 134 196 119 c 128,-1,72
 184 104 184 104 169 102 c 1,73,74
 184 99 184 99 196 86 c 0,75,76
 208 72 208 72 208 51 c 1,77,78
 208 73 208 73 220 87.5 c 128,-1,79
 232 102 232 102 249 102 c 0,80,81
 267 102 267 102 279 87 c 0,82,83
 290 74 290 74 292 55 c 1,84,85
 292 73 292 73 304 87 c 0,86,87
 317 102 317 102 336 102 c 256,88,89
 354 102 354 102 366 87.5 c 128,-1,90
 378 73 378 73 378 51 c 256,91,92
 378 29 378 29 365 14.5 c 128,-1,93
 352 0 352 0 336 0 c 0,94,95
 319 0 319 0 306 13 c 0,96,97
 294 25 294 25 292 46 c 1,98,99
 290 26 290 26 279 13 c 0,100,101
 267 0 267 0 249 0 c 0,102,103
 232 0 232 0 221 13 c 0,104,105
 210 25 210 25 208 46 c 1,106,107
 206 26 206 26 194 13 c 0,108,109
 182 0 182 0 164 0 c 0,110,111
 146 0 146 0 134 15 c 128,-1,112
 122 30 122 30 122 51 c 0,113,114
 122 71 122 71 132 86 c 0,115,116
 142 99 142 99 161 102 c 1,117,118
 144 104 144 104 132 119 c 0,119,120
 122 133 122 133 122 154 c 0,121,122
 122 174 122 174 132 188 c 0,123,124
 142 201 142 201 161 205 c 1,125,126
 144 207 144 207 133 221 c 128,-1,127
 122 235 122 235 122 256 c 0,128,129
 122 276 122 276 132 291 c 0,130,131
 142 304 142 304 161 307 c 1,132,133
 144 309 144 309 132 324 c 0,134,135
 122 338 122 338 122 358 c 256,136,137
 122 378 122 378 132 393 c 0,138,139
 142 406 142 406 161 410 c 1,140,141
 144 412 144 412 133 426 c 128,-1,142
 122 440 122 440 122 461 c 0,143,144
 122 481 122 481 132 496 c 0,145,146
 142 509 142 509 161 512 c 1,147,148
 144 514 144 514 133 528 c 128,-1,149
 122 542 122 542 122 563 c 0,150,151
 122 583 122 583 132 598 c 0,152,153
 142 611 142 611 161 614 c 1,154,155
 144 616 144 616 133 631 c 128,-1,156
 122 646 122 646 122 666 c 0,0,1
EndSplineSet
EndChar

StartChar: backslash
Encoding: 92 92 41
Width: 500
VWidth: 1024
Flags: W
LayerCount: 2
Fore
SplineSet
37 563 m 0,0,1
 37 583 37 583 48 598 c 0,2,3
 58 611 58 611 75 614 c 1,4,5
 58 616 58 616 48 631 c 0,6,7
 37 645 37 645 37 666 c 0,8,9
 37 688 37 688 49.5 702.5 c 128,-1,10
 62 717 62 717 79 717 c 0,11,12
 97 717 97 717 109.5 702 c 128,-1,13
 122 687 122 687 122 666 c 0,14,15
 122 646 122 646 111 631 c 128,-1,16
 100 616 100 616 84 614 c 1,17,18
 100 611 100 611 111 598 c 0,19,20
 122 584 122 584 122 563 c 0,21,22
 122 541 122 541 110 526.5 c 128,-1,23
 98 512 98 512 79 512 c 256,24,25
 61 512 61 512 49 526.5 c 128,-1,26
 37 541 37 541 37 563 c 0,0,1
378 51 m 0,27,28
 378 71 378 71 389 86 c 0,29,30
 399 99 399 99 417 102 c 1,31,32
 400 104 400 104 389 119 c 0,33,34
 378 133 378 133 378 154 c 0,35,36
 378 176 378 176 390 190.5 c 128,-1,37
 402 205 402 205 421 205 c 256,38,39
 439 205 439 205 451 190 c 128,-1,40
 463 175 463 175 463 154 c 0,41,42
 463 134 463 134 452.5 119 c 128,-1,43
 442 104 442 104 425 102 c 1,44,45
 440 99 440 99 452 86 c 0,46,47
 463 72 463 72 463 51 c 0,48,49
 463 29 463 29 451 14.5 c 128,-1,50
 439 0 439 0 421 0 c 256,51,52
 403 0 403 0 390.5 14.5 c 128,-1,53
 378 29 378 29 378 51 c 0,27,28
292 256 m 256,54,55
 292 278 292 278 305 292.5 c 128,-1,56
 318 307 318 307 336 307 c 256,57,58
 354 307 354 307 366 292.5 c 128,-1,59
 378 278 378 278 378 256 c 256,60,61
 378 234 378 234 365.5 219.5 c 128,-1,62
 353 205 353 205 336 205 c 0,63,64
 318 205 318 205 305 219.5 c 128,-1,65
 292 234 292 234 292 256 c 256,54,55
208 358 m 256,66,67
 208 380 208 380 220 395 c 128,-1,68
 232 410 232 410 250 410 c 0,69,70
 268 410 268 410 280 395 c 128,-1,71
 292 380 292 380 292 358 c 256,72,73
 292 336 292 336 280 321.5 c 128,-1,74
 268 307 268 307 250 307 c 256,75,76
 232 307 232 307 220 321.5 c 128,-1,77
 208 336 208 336 208 358 c 256,66,67
122 461 m 256,78,79
 122 483 122 483 134.5 497.5 c 128,-1,80
 147 512 147 512 165 512 c 256,81,82
 183 512 183 512 195.5 497 c 128,-1,83
 208 482 208 482 208 461 c 0,84,85
 208 439 208 439 195 424.5 c 128,-1,86
 182 410 182 410 165 410 c 0,87,88
 147 410 147 410 134.5 424.5 c 128,-1,89
 122 439 122 439 122 461 c 256,78,79
EndSplineSet
EndChar

StartChar: bracketright
Encoding: 93 93 42
Width: 500
VWidth: 1024
Flags: W
LayerCount: 2
Fore
SplineSet
292 563 m 256,0,1
 292 583 292 583 304 598 c 0,2,3
 314 611 314 611 331 614 c 1,4,5
 315 616 315 616 304.5 628.5 c 128,-1,6
 294 641 294 641 292 660 c 1,7,8
 290 640 290 640 279 628 c 0,9,10
 267 615 267 615 249 614 c 0,11,12
 232 614 232 614 221 628 c 0,13,14
 210 640 210 640 208 660 c 1,15,16
 206 640 206 640 194 628 c 0,17,18
 182 615 182 615 164 614 c 0,19,20
 146 614 146 614 134 629 c 128,-1,21
 122 644 122 644 122 666 c 256,22,23
 122 688 122 688 134 702.5 c 128,-1,24
 146 717 146 717 164 717 c 256,25,26
 182 717 182 717 195 702 c 128,-1,27
 208 687 208 687 208 666 c 1,28,29
 208 688 208 688 220 702.5 c 128,-1,30
 232 717 232 717 249 717 c 0,31,32
 267 717 267 717 279.5 702 c 128,-1,33
 292 687 292 687 292 666 c 1,34,35
 292 688 292 688 305 702.5 c 128,-1,36
 318 717 318 717 336 717 c 256,37,38
 354 717 354 717 366 702 c 128,-1,39
 378 687 378 687 378 666 c 0,40,41
 378 646 378 646 367 631 c 128,-1,42
 356 616 356 616 339 614 c 1,43,44
 354 611 354 611 366 598 c 0,45,46
 376 584 376 584 378 563 c 0,47,48
 378 543 378 543 367 528.5 c 128,-1,49
 356 514 356 514 339 512 c 1,50,51
 354 509 354 509 366 496 c 0,52,53
 376 482 376 482 378 461 c 0,54,55
 378 441 378 441 367 426.5 c 128,-1,56
 356 412 356 412 339 410 c 1,57,58
 355 407 355 407 366.5 393 c 128,-1,59
 378 379 378 379 378 358 c 0,60,61
 378 338 378 338 367 323.5 c 128,-1,62
 356 309 356 309 339 307 c 1,63,64
 354 304 354 304 366 291 c 0,65,66
 376 277 376 277 378 256 c 0,67,68
 378 236 378 236 367 221.5 c 128,-1,69
 356 207 356 207 339 205 c 1,70,71
 355 202 355 202 366.5 188 c 128,-1,72
 378 174 378 174 378 154 c 0,73,74
 378 134 378 134 367 119 c 128,-1,75
 356 104 356 104 339 102 c 1,76,77
 354 99 354 99 366 86 c 0,78,79
 376 72 376 72 378 51 c 0,80,81
 378 29 378 29 365 14.5 c 128,-1,82
 352 0 352 0 336 0 c 0,83,84
 319 0 319 0 306 13 c 0,85,86
 294 25 294 25 292 46 c 1,87,88
 290 26 290 26 279 13 c 0,89,90
 267 0 267 0 249 0 c 0,91,92
 232 0 232 0 221 13 c 0,93,94
 210 25 210 25 208 46 c 1,95,96
 206 26 206 26 194 13 c 0,97,98
 182 0 182 0 164 0 c 0,99,100
 146 0 146 0 134 15 c 128,-1,101
 122 30 122 30 122 51 c 0,102,103
 122 73 122 73 134 87.5 c 128,-1,104
 146 102 146 102 164 102 c 256,105,106
 182 102 182 102 195 87.5 c 128,-1,107
 208 73 208 73 208 51 c 1,108,109
 208 73 208 73 220 87.5 c 128,-1,110
 232 102 232 102 249 102 c 0,111,112
 266 102 266 102 279 89 c 0,113,114
 290 76 290 76 292 56 c 1,115,116
 294 73 294 73 304 86 c 128,-1,117
 314 99 314 99 331 102 c 1,118,119
 314 104 314 104 304 119 c 0,120,121
 294 133 294 133 292 154 c 0,122,123
 292 174 292 174 304 188 c 0,124,125
 314 201 314 201 331 205 c 1,126,127
 314 207 314 207 304 221 c 0,128,129
 294 235 294 235 292 256 c 0,130,131
 292 276 292 276 304 291 c 0,132,133
 314 304 314 304 331 307 c 1,134,135
 314 309 314 309 304 324 c 0,136,137
 294 338 294 338 292 358 c 0,138,139
 292 378 292 378 304 393 c 0,140,141
 314 406 314 406 331 410 c 1,142,143
 314 412 314 412 304 426 c 0,144,145
 294 440 294 440 292 461 c 0,146,147
 292 481 292 481 304 496 c 0,148,149
 314 509 314 509 331 512 c 1,150,151
 314 514 314 514 304 528 c 0,152,153
 292 543 292 543 292 563 c 256,0,1
EndSplineSet
EndChar

StartChar: asciicircum
Encoding: 94 94 43
Width: 500
VWidth: 1024
Flags: W
LayerCount: 2
Fore
SplineSet
208 666 m 256,0,1
 208 688 208 688 220 702.5 c 128,-1,2
 232 717 232 717 250 717 c 0,3,4
 268 717 268 717 280 702 c 128,-1,5
 292 687 292 687 292 666 c 0,6,7
 292 644 292 644 280 629 c 128,-1,8
 268 614 268 614 250 614 c 256,9,10
 232 614 232 614 220 629 c 128,-1,11
 208 644 208 644 208 666 c 256,0,1
37 461 m 256,12,13
 37 483 37 483 49.5 497.5 c 128,-1,14
 62 512 62 512 79 512 c 0,15,16
 97 512 97 512 109.5 497 c 128,-1,17
 122 482 122 482 122 461 c 0,18,19
 122 439 122 439 110 424.5 c 128,-1,20
 98 410 98 410 79 410 c 256,21,22
 61 410 61 410 49 424.5 c 128,-1,23
 37 439 37 439 37 461 c 256,12,13
292 563 m 256,24,25
 292 585 292 585 305 599.5 c 128,-1,26
 318 614 318 614 336 614 c 256,27,28
 354 614 354 614 366 599.5 c 128,-1,29
 378 585 378 585 378 563 c 256,30,31
 378 541 378 541 365.5 526.5 c 128,-1,32
 353 512 353 512 336 512 c 0,33,34
 318 512 318 512 305 526.5 c 128,-1,35
 292 541 292 541 292 563 c 256,24,25
378 461 m 256,36,37
 378 483 378 483 390 497.5 c 128,-1,38
 402 512 402 512 421 512 c 256,39,40
 439 512 439 512 451 497 c 128,-1,41
 463 482 463 482 463 461 c 0,42,43
 463 439 463 439 451 424.5 c 128,-1,44
 439 410 439 410 421 410 c 256,45,46
 403 410 403 410 390.5 424.5 c 128,-1,47
 378 439 378 439 378 461 c 256,36,37
122 563 m 256,48,49
 122 585 122 585 134.5 599.5 c 128,-1,50
 147 614 147 614 165 614 c 256,51,52
 183 614 183 614 195.5 599.5 c 128,-1,53
 208 585 208 585 208 563 c 256,54,55
 208 541 208 541 195 526.5 c 128,-1,56
 182 512 182 512 165 512 c 0,57,58
 147 512 147 512 134.5 526.5 c 128,-1,59
 122 541 122 541 122 563 c 256,48,49
EndSplineSet
EndChar

StartChar: underscore
Encoding: 95 95 44
Width: 500
VWidth: 1024
Flags: W
LayerCount: 2
Fore
SplineSet
37 51 m 256,0,1
 37 73 37 73 49.5 87.5 c 128,-1,2
 62 102 62 102 79 102 c 0,3,4
 97 102 97 102 109.5 87.5 c 128,-1,5
 122 73 122 73 122 51 c 1,6,7
 122 73 122 73 134.5 87.5 c 128,-1,8
 147 102 147 102 165 102 c 256,9,10
 183 102 183 102 195.5 87.5 c 128,-1,11
 208 73 208 73 208 51 c 1,12,13
 208 73 208 73 220 87.5 c 128,-1,14
 232 102 232 102 250 102 c 0,15,16
 267 102 267 102 279 89 c 0,17,18
 290 76 290 76 292 55 c 1,19,20
 294 75 294 75 306 88.5 c 128,-1,21
 318 102 318 102 336 102 c 0,22,23
 353 102 353 102 364 89 c 128,-1,24
 375 76 375 76 378 56 c 1,25,26
 380 75 380 75 392 88.5 c 128,-1,27
 404 102 404 102 421 102 c 0,28,29
 439 102 439 102 451 87.5 c 128,-1,30
 463 73 463 73 463 51 c 256,31,32
 463 29 463 29 451 14.5 c 128,-1,33
 439 0 439 0 421 0 c 0,34,35
 404 0 404 0 392 13 c 0,36,37
 380 25 380 25 378 46 c 1,38,39
 376 26 376 26 364 13 c 128,-1,40
 352 0 352 0 336 0 c 256,41,42
 319 0 319 0 307 13 c 0,43,44
 294 25 294 25 292 46 c 1,45,46
 290 26 290 26 279 13 c 0,47,48
 267 0 267 0 250 0 c 128,-1,49
 233 0 233 0 221 13 c 0,50,51
 210 25 210 25 208 46 c 1,52,53
 206 26 206 26 194 13 c 128,-1,54
 182 0 182 0 165 0 c 128,-1,55
 148 0 148 0 136 13 c 0,56,57
 124 25 124 25 122 46 c 1,58,59
 120 26 120 26 108.5 13 c 128,-1,60
 97 0 97 0 79 0 c 128,-1,61
 61 0 61 0 49 14.5 c 128,-1,62
 37 29 37 29 37 51 c 256,0,1
EndSplineSet
EndChar

StartChar: grave
Encoding: 96 96 45
Width: 500
VWidth: 1024
Flags: W
LayerCount: 2
Fore
SplineSet
249 563 m 256,0,1
 249 585 249 585 261.5 599.5 c 128,-1,2
 274 614 274 614 292 614 c 128,-1,3
 310 614 310 614 323 599.5 c 128,-1,4
 336 585 336 585 336 563 c 256,5,6
 336 540 336 540 324 526 c 0,7,8
 310 512 310 512 292 512 c 256,9,10
 274 512 274 512 261.5 526.5 c 128,-1,11
 249 541 249 541 249 563 c 256,0,1
164 666 m 256,12,13
 164 688 164 688 176 702 c 0,14,15
 190 716 190 716 208 717 c 256,16,17
 226 717 226 717 237.5 702 c 128,-1,18
 249 687 249 687 249 666 c 0,19,20
 249 644 249 644 237.5 629 c 128,-1,21
 226 614 226 614 208 614 c 256,22,23
 190 614 190 614 177 629 c 128,-1,24
 164 644 164 644 164 666 c 256,12,13
EndSplineSet
EndChar

StartChar: a
Encoding: 97 97 46
Width: 500
VWidth: 1024
Flags: W
LayerCount: 2
Fore
SplineSet
378 154 m 256,0,1
 378 174 378 174 389 188 c 0,2,3
 399 201 399 201 417 205 c 1,4,5
 401 207 401 207 390.5 219 c 128,-1,6
 380 231 380 231 378 251 c 1,7,8
 376 231 376 231 364 218 c 128,-1,9
 352 205 352 205 336 205 c 256,10,11
 319 205 319 205 307 218 c 0,12,13
 294 230 294 230 292 251 c 1,14,15
 290 231 290 231 279 218 c 0,16,17
 267 205 267 205 250 205 c 0,18,19
 233 205 233 205 221 218 c 0,20,21
 210 230 210 230 208 251 c 1,22,23
 206 231 206 231 194 218 c 0,24,25
 182 205 182 205 165 205 c 0,26,27
 147 205 147 205 134.5 219.5 c 128,-1,28
 122 234 122 234 122 256 c 256,29,30
 122 278 122 278 134.5 292.5 c 128,-1,31
 147 307 147 307 165 307 c 256,32,33
 183 307 183 307 195.5 292.5 c 128,-1,34
 208 278 208 278 208 256 c 1,35,36
 208 278 208 278 220 292.5 c 128,-1,37
 232 307 232 307 250 307 c 0,38,39
 268 307 268 307 280 292.5 c 128,-1,40
 292 278 292 278 292 256 c 1,41,42
 292 278 292 278 305 292.5 c 128,-1,43
 318 307 318 307 336 307 c 0,44,45
 353 307 353 307 365 294 c 128,-1,46
 377 281 377 281 378 260 c 1,47,48
 380 278 380 278 390 292 c 0,49,50
 400 304 400 304 417 307 c 1,51,52
 400 309 400 309 389 324 c 0,53,54
 378 338 378 338 378 358 c 0,55,56
 378 380 378 380 390 395 c 128,-1,57
 402 410 402 410 421 410 c 256,58,59
 439 410 439 410 451 395 c 128,-1,60
 463 380 463 380 463 358 c 0,61,62
 463 338 463 338 452.5 323.5 c 128,-1,63
 442 309 442 309 425 307 c 1,64,65
 440 304 440 304 452 291 c 0,66,67
 463 277 463 277 463 256 c 0,68,69
 463 236 463 236 452.5 221.5 c 128,-1,70
 442 207 442 207 425 205 c 1,71,72
 440 202 440 202 452 188 c 0,73,74
 463 174 463 174 463 154 c 256,75,76
 463 134 463 134 452.5 119 c 128,-1,77
 442 104 442 104 425 102 c 1,78,79
 440 99 440 99 452 86 c 0,80,81
 463 72 463 72 463 51 c 0,82,83
 463 29 463 29 451 14.5 c 128,-1,84
 439 0 439 0 421 0 c 0,85,86
 404 0 404 0 392 13 c 0,87,88
 380 25 380 25 378 46 c 1,89,90
 376 26 376 26 364 13 c 128,-1,91
 352 0 352 0 336 0 c 256,92,93
 319 0 319 0 307 13 c 0,94,95
 294 25 294 25 292 46 c 1,96,97
 290 26 290 26 279 13 c 0,98,99
 267 0 267 0 250 0 c 0,100,101
 233 0 233 0 221 13 c 0,102,103
 210 25 210 25 208 46 c 1,104,105
 206 26 206 26 194 13 c 0,106,107
 182 0 182 0 165 0 c 0,108,109
 147 0 147 0 134.5 15 c 128,-1,110
 122 30 122 30 122 51 c 0,111,112
 122 73 122 73 134.5 87.5 c 128,-1,113
 147 102 147 102 165 102 c 0,114,115
 182 102 182 102 194 89 c 128,-1,116
 206 76 206 76 208 55 c 1,117,118
 210 75 210 75 221.5 88.5 c 128,-1,119
 233 102 233 102 250 102 c 0,120,121
 268 102 268 102 280 87 c 0,122,123
 290 74 290 74 292 55 c 1,124,125
 293 73 293 73 305 87 c 0,126,127
 317 102 317 102 336 102 c 256,128,129
 354 102 354 102 365 87 c 0,130,131
 376 74 376 74 378 55 c 1,132,133
 379 72 379 72 389 86 c 0,134,135
 399 99 399 99 417 102 c 1,136,137
 400 104 400 104 389 119 c 128,-1,138
 378 134 378 134 378 154 c 256,0,1
122 461 m 256,139,140
 122 483 122 483 134.5 497.5 c 128,-1,141
 147 512 147 512 165 512 c 256,142,143
 183 512 183 512 195.5 497 c 128,-1,144
 208 482 208 482 208 461 c 1,145,146
 208 483 208 483 220 497.5 c 128,-1,147
 232 512 232 512 250 512 c 0,148,149
 268 512 268 512 280 497 c 0,150,151
 290 484 290 484 292 465 c 1,152,153
 293 483 293 483 305 497 c 0,154,155
 317 512 317 512 336 512 c 256,156,157
 354 512 354 512 366 497 c 128,-1,158
 378 482 378 482 378 461 c 0,159,160
 378 439 378 439 365.5 424.5 c 128,-1,161
 353 410 353 410 336 410 c 0,162,163
 319 410 319 410 307 423 c 0,164,165
 294 435 294 435 292 456 c 1,166,167
 290 436 290 436 279 423 c 0,168,169
 267 410 267 410 250 410 c 0,170,171
 233 410 233 410 221 423 c 0,172,173
 210 435 210 435 208 456 c 1,174,175
 206 436 206 436 194 423 c 0,176,177
 182 410 182 410 165 410 c 0,178,179
 147 410 147 410 134.5 424.5 c 128,-1,180
 122 439 122 439 122 461 c 256,139,140
37 154 m 256,181,182
 37 176 37 176 49.5 190.5 c 128,-1,183
 62 205 62 205 79 205 c 0,184,185
 97 205 97 205 109.5 190 c 128,-1,186
 122 175 122 175 122 154 c 0,187,188
 122 132 122 132 110 117 c 128,-1,189
 98 102 98 102 79 102 c 256,190,191
 61 102 61 102 49 117 c 128,-1,192
 37 132 37 132 37 154 c 256,181,182
EndSplineSet
EndChar

StartChar: b
Encoding: 98 98 47
Width: 500
VWidth: 1024
Flags: W
LayerCount: 2
Fore
SplineSet
37 563 m 256,0,1
 37 583 37 583 48 598 c 0,2,3
 58 611 58 611 75 614 c 1,4,5
 58 616 58 616 48 631 c 0,6,7
 37 645 37 645 37 666 c 0,8,9
 37 688 37 688 49.5 702.5 c 128,-1,10
 62 717 62 717 79 717 c 0,11,12
 97 717 97 717 109.5 702 c 128,-1,13
 122 687 122 687 122 666 c 0,14,15
 122 646 122 646 111 631 c 128,-1,16
 100 616 100 616 84 614 c 1,17,18
 100 611 100 611 111 598 c 0,19,20
 122 584 122 584 122 563 c 0,21,22
 122 543 122 543 111 528.5 c 128,-1,23
 100 514 100 514 84 512 c 1,24,25
 100 509 100 509 111 496 c 0,26,27
 122 482 122 482 122 461 c 0,28,29
 122 441 122 441 111 426.5 c 128,-1,30
 100 412 100 412 84 410 c 1,31,32
 100 407 100 407 111 393 c 0,33,34
 120 380 120 380 122 362 c 1,35,36
 123 380 123 380 134 394 c 0,37,38
 146 409 146 409 165 410 c 0,39,40
 183 410 183 410 195.5 395 c 128,-1,41
 208 380 208 380 208 358 c 256,42,43
 208 336 208 336 195 321.5 c 128,-1,44
 182 307 182 307 165 307 c 0,45,46
 148 307 148 307 136 321 c 0,47,48
 124 333 124 333 122 353 c 1,49,50
 120 334 120 334 109 321.5 c 128,-1,51
 98 309 98 309 84 307 c 1,52,53
 100 304 100 304 111 291 c 0,54,55
 122 277 122 277 122 256 c 0,56,57
 122 236 122 236 111 221.5 c 128,-1,58
 100 207 100 207 84 205 c 1,59,60
 98 202 98 202 109 189 c 128,-1,61
 120 176 120 176 122 158 c 1,62,63
 124 178 124 178 136 191.5 c 128,-1,64
 148 205 148 205 165 205 c 0,65,66
 183 205 183 205 195.5 190 c 128,-1,67
 208 175 208 175 208 154 c 0,68,69
 208 132 208 132 195 117 c 128,-1,70
 182 102 182 102 165 102 c 0,71,72
 148 102 148 102 136 116 c 0,73,74
 124 128 124 128 122 148 c 1,75,76
 120 129 120 129 109 116.5 c 128,-1,77
 98 104 98 104 84 102 c 1,78,79
 100 99 100 99 111 86 c 0,80,81
 122 72 122 72 122 51 c 0,82,83
 122 29 122 29 110 14.5 c 128,-1,84
 98 0 98 0 79 0 c 256,85,86
 61 0 61 0 49 15 c 128,-1,87
 37 30 37 30 37 51 c 0,88,89
 37 71 37 71 48 86 c 0,90,91
 58 99 58 99 75 102 c 1,92,93
 58 104 58 104 48 119 c 0,94,95
 37 133 37 133 37 154 c 0,96,97
 37 174 37 174 48 188 c 0,98,99
 58 201 58 201 75 205 c 1,100,101
 58 207 58 207 48 221 c 0,102,103
 37 235 37 235 37 256 c 0,104,105
 37 276 37 276 48 291 c 0,106,107
 58 304 58 304 75 307 c 1,108,109
 58 309 58 309 48 324 c 0,110,111
 37 338 37 338 37 358 c 0,112,113
 37 378 37 378 48 393 c 0,114,115
 58 406 58 406 75 410 c 1,116,117
 58 412 58 412 48 426 c 0,118,119
 37 440 37 440 37 461 c 0,120,121
 37 481 37 481 48 496 c 0,122,123
 58 509 58 509 75 512 c 1,124,125
 58 514 58 514 48 528 c 0,126,127
 37 543 37 543 37 563 c 256,0,1
378 256 m 256,128,129
 378 276 378 276 389 291 c 0,130,131
 399 304 399 304 417 307 c 1,132,133
 400 309 400 309 389 324 c 0,134,135
 378 338 378 338 378 358 c 0,136,137
 378 380 378 380 390 395 c 128,-1,138
 402 410 402 410 421 410 c 256,139,140
 439 410 439 410 451 395 c 128,-1,141
 463 380 463 380 463 358 c 0,142,143
 463 338 463 338 452.5 323.5 c 128,-1,144
 442 309 442 309 425 307 c 1,145,146
 440 304 440 304 452 291 c 0,147,148
 463 277 463 277 463 256 c 0,149,150
 463 236 463 236 452.5 221.5 c 128,-1,151
 442 207 442 207 425 205 c 1,152,153
 440 202 440 202 452 188 c 0,154,155
 463 174 463 174 463 154 c 0,156,157
 463 132 463 132 451 117 c 128,-1,158
 439 102 439 102 421 102 c 256,159,160
 403 102 403 102 390.5 117 c 128,-1,161
 378 132 378 132 378 154 c 0,162,163
 378 174 378 174 389 188 c 0,164,165
 399 201 399 201 417 205 c 1,166,167
 400 207 400 207 389 221 c 0,168,169
 378 236 378 236 378 256 c 256,128,129
208 461 m 256,170,171
 208 483 208 483 220 497.5 c 128,-1,172
 232 512 232 512 250 512 c 0,173,174
 268 512 268 512 280 497 c 0,175,176
 290 484 290 484 292 465 c 1,177,178
 293 483 293 483 305 497 c 0,179,180
 317 512 317 512 336 512 c 256,181,182
 354 512 354 512 366 497 c 128,-1,183
 378 482 378 482 378 461 c 0,184,185
 378 439 378 439 365.5 424.5 c 128,-1,186
 353 410 353 410 336 410 c 0,187,188
 319 410 319 410 307 423 c 0,189,190
 294 435 294 435 292 456 c 1,191,192
 290 436 290 436 279 423 c 0,193,194
 267 410 267 410 250 410 c 0,195,196
 232 410 232 410 220 424.5 c 128,-1,197
 208 439 208 439 208 461 c 256,170,171
208 51 m 256,198,199
 208 73 208 73 220 87.5 c 128,-1,200
 232 102 232 102 250 102 c 0,201,202
 268 102 268 102 280 87 c 0,203,204
 290 74 290 74 292 55 c 1,205,206
 293 73 293 73 305 87 c 0,207,208
 317 102 317 102 336 102 c 256,209,210
 354 102 354 102 366 87.5 c 128,-1,211
 378 73 378 73 378 51 c 256,212,213
 378 29 378 29 365.5 14.5 c 128,-1,214
 353 0 353 0 336 0 c 0,215,216
 319 0 319 0 307 13 c 0,217,218
 294 25 294 25 292 46 c 1,219,220
 290 26 290 26 279 13 c 0,221,222
 267 0 267 0 250 0 c 0,223,224
 232 0 232 0 220 14.5 c 128,-1,225
 208 29 208 29 208 51 c 256,198,199
EndSplineSet
EndChar

StartChar: c
Encoding: 99 99 48
Width: 500
VWidth: 1024
Flags: W
LayerCount: 2
Fore
SplineSet
122 461 m 256,0,1
 122 483 122 483 134.5 497.5 c 128,-1,2
 147 512 147 512 165 512 c 256,3,4
 183 512 183 512 195 497 c 0,5,6
 206 484 206 484 208 465 c 1,7,8
 209 483 209 483 219 497 c 0,9,10
 231 512 231 512 250 512 c 256,11,12
 268 512 268 512 280 497 c 0,13,14
 290 484 290 484 292 465 c 1,15,16
 293 483 293 483 305 497 c 0,17,18
 317 512 317 512 336 512 c 256,19,20
 354 512 354 512 366 497 c 128,-1,21
 378 482 378 482 378 461 c 0,22,23
 378 439 378 439 365.5 424.5 c 128,-1,24
 353 410 353 410 336 410 c 0,25,26
 319 410 319 410 307 423 c 0,27,28
 294 435 294 435 292 456 c 1,29,30
 290 436 290 436 279 423 c 0,31,32
 267 410 267 410 250 410 c 0,33,34
 233 410 233 410 221 423 c 0,35,36
 210 435 210 435 208 456 c 1,37,38
 206 436 206 436 194 423 c 0,39,40
 182 410 182 410 165 410 c 0,41,42
 147 410 147 410 134.5 424.5 c 128,-1,43
 122 439 122 439 122 461 c 256,0,1
122 51 m 256,44,45
 122 73 122 73 134.5 87.5 c 128,-1,46
 147 102 147 102 165 102 c 256,47,48
 183 102 183 102 195 87 c 0,49,50
 206 74 206 74 208 55 c 1,51,52
 209 73 209 73 219 87 c 0,53,54
 231 102 231 102 250 102 c 256,55,56
 268 102 268 102 280 87 c 0,57,58
 290 74 290 74 292 55 c 1,59,60
 293 73 293 73 305 87 c 0,61,62
 317 102 317 102 336 102 c 256,63,64
 354 102 354 102 366 87.5 c 128,-1,65
 378 73 378 73 378 51 c 256,66,67
 378 29 378 29 365.5 14.5 c 128,-1,68
 353 0 353 0 336 0 c 0,69,70
 319 0 319 0 307 13 c 0,71,72
 294 25 294 25 292 46 c 1,73,74
 290 26 290 26 279 13 c 0,75,76
 267 0 267 0 250 0 c 0,77,78
 233 0 233 0 221 13 c 0,79,80
 210 25 210 25 208 46 c 1,81,82
 206 26 206 26 194 13 c 0,83,84
 182 0 182 0 165 0 c 0,85,86
 147 0 147 0 134.5 14.5 c 128,-1,87
 122 29 122 29 122 51 c 256,44,45
37 256 m 256,88,89
 37 276 37 276 48 291 c 0,90,91
 58 304 58 304 75 307 c 1,92,93
 58 309 58 309 48 324 c 0,94,95
 37 338 37 338 37 358 c 0,96,97
 37 380 37 380 49.5 395 c 128,-1,98
 62 410 62 410 79 410 c 0,99,100
 97 410 97 410 109.5 395 c 128,-1,101
 122 380 122 380 122 358 c 0,102,103
 122 338 122 338 111 323.5 c 128,-1,104
 100 309 100 309 84 307 c 1,105,106
 100 304 100 304 111 291 c 0,107,108
 122 277 122 277 122 256 c 0,109,110
 122 236 122 236 111 221.5 c 128,-1,111
 100 207 100 207 84 205 c 1,112,113
 100 202 100 202 111 188 c 128,-1,114
 122 174 122 174 122 154 c 0,115,116
 122 132 122 132 110 117 c 128,-1,117
 98 102 98 102 79 102 c 256,118,119
 61 102 61 102 49 117 c 128,-1,120
 37 132 37 132 37 154 c 0,121,122
 37 174 37 174 48 188 c 0,123,124
 58 201 58 201 75 205 c 1,125,126
 58 207 58 207 48 221 c 0,127,128
 37 236 37 236 37 256 c 256,88,89
378 358 m 256,129,130
 378 380 378 380 390 395 c 128,-1,131
 402 410 402 410 421 410 c 256,132,133
 439 410 439 410 451 395 c 128,-1,134
 463 380 463 380 463 358 c 256,135,136
 463 336 463 336 451 321.5 c 128,-1,137
 439 307 439 307 421 307 c 256,138,139
 403 307 403 307 390.5 321.5 c 128,-1,140
 378 336 378 336 378 358 c 256,129,130
378 154 m 256,141,142
 378 176 378 176 390 190.5 c 128,-1,143
 402 205 402 205 421 205 c 256,144,145
 439 205 439 205 451 190 c 128,-1,146
 463 175 463 175 463 154 c 0,147,148
 463 132 463 132 451 117 c 128,-1,149
 439 102 439 102 421 102 c 256,150,151
 403 102 403 102 390.5 117 c 128,-1,152
 378 132 378 132 378 154 c 256,141,142
EndSplineSet
EndChar

StartChar: d
Encoding: 100 100 49
Width: 500
VWidth: 1024
Flags: W
LayerCount: 2
Fore
SplineSet
378 256 m 256,0,1
 378 276 378 276 389 291 c 0,2,3
 399 304 399 304 417 307 c 1,4,5
 401 309 401 309 390.5 321.5 c 128,-1,6
 380 334 380 334 378 353 c 1,7,8
 376 333 376 333 364 321 c 0,9,10
 352 308 352 308 336 307 c 0,11,12
 318 307 318 307 305 322 c 128,-1,13
 292 337 292 337 292 358 c 0,14,15
 292 380 292 380 305 395 c 128,-1,16
 318 410 318 410 336 410 c 256,17,18
 354 410 354 410 365 394 c 0,19,20
 376 381 376 381 378 362 c 1,21,22
 379 379 379 379 389 393 c 0,23,24
 399 406 399 406 417 410 c 1,25,26
 400 412 400 412 389 426 c 128,-1,27
 378 440 378 440 378 461 c 0,28,29
 378 481 378 481 389 496 c 0,30,31
 399 509 399 509 417 512 c 1,32,33
 400 514 400 514 389 528 c 128,-1,34
 378 542 378 542 378 563 c 0,35,36
 378 583 378 583 389 598 c 0,37,38
 399 611 399 611 417 614 c 1,39,40
 400 616 400 616 389 631 c 0,41,42
 378 645 378 645 378 666 c 0,43,44
 378 688 378 688 390 702.5 c 128,-1,45
 402 717 402 717 421 717 c 256,46,47
 439 717 439 717 451 702 c 128,-1,48
 463 687 463 687 463 666 c 0,49,50
 463 646 463 646 452.5 631 c 128,-1,51
 442 616 442 616 425 614 c 1,52,53
 440 611 440 611 452 598 c 0,54,55
 463 584 463 584 463 563 c 0,56,57
 463 543 463 543 452.5 528.5 c 128,-1,58
 442 514 442 514 425 512 c 1,59,60
 440 509 440 509 452 496 c 0,61,62
 463 482 463 482 463 461 c 0,63,64
 463 441 463 441 452.5 426.5 c 128,-1,65
 442 412 442 412 425 410 c 1,66,67
 440 407 440 407 452 393 c 0,68,69
 463 379 463 379 463 358 c 0,70,71
 463 338 463 338 452.5 323.5 c 128,-1,72
 442 309 442 309 425 307 c 1,73,74
 440 304 440 304 452 291 c 0,75,76
 463 277 463 277 463 256 c 0,77,78
 463 236 463 236 452.5 221.5 c 128,-1,79
 442 207 442 207 425 205 c 1,80,81
 440 202 440 202 452 188 c 0,82,83
 463 174 463 174 463 154 c 256,84,85
 463 134 463 134 452.5 119 c 128,-1,86
 442 104 442 104 425 102 c 1,87,88
 440 99 440 99 452 86 c 0,89,90
 463 72 463 72 463 51 c 0,91,92
 463 29 463 29 451 14.5 c 128,-1,93
 439 0 439 0 421 0 c 256,94,95
 403 0 403 0 390.5 15 c 128,-1,96
 378 30 378 30 378 51 c 0,97,98
 378 71 378 71 389 86 c 0,99,100
 399 99 399 99 417 102 c 1,101,102
 401 104 401 104 390.5 116.5 c 128,-1,103
 380 129 380 129 378 148 c 1,104,105
 376 128 376 128 364 116 c 0,106,107
 352 103 352 103 336 102 c 0,108,109
 318 102 318 102 305 117 c 128,-1,110
 292 132 292 132 292 154 c 256,111,112
 292 176 292 176 305 190.5 c 128,-1,113
 318 205 318 205 336 205 c 0,114,115
 353 205 353 205 364 191 c 0,116,117
 375 178 375 178 378 159 c 1,118,119
 380 176 380 176 390 189 c 128,-1,120
 400 202 400 202 417 205 c 1,121,122
 400 207 400 207 389 221 c 0,123,124
 378 236 378 236 378 256 c 256,0,1
37 256 m 256,125,126
 37 276 37 276 48 291 c 0,127,128
 58 304 58 304 75 307 c 1,129,130
 58 309 58 309 48 324 c 0,131,132
 37 338 37 338 37 358 c 0,133,134
 37 380 37 380 49.5 395 c 128,-1,135
 62 410 62 410 79 410 c 0,136,137
 97 410 97 410 109.5 395 c 128,-1,138
 122 380 122 380 122 358 c 0,139,140
 122 338 122 338 111 323.5 c 128,-1,141
 100 309 100 309 84 307 c 1,142,143
 100 304 100 304 111 291 c 0,144,145
 122 277 122 277 122 256 c 0,146,147
 122 236 122 236 111 221.5 c 128,-1,148
 100 207 100 207 84 205 c 1,149,150
 100 202 100 202 111 188 c 128,-1,151
 122 174 122 174 122 154 c 0,152,153
 122 132 122 132 110 117 c 128,-1,154
 98 102 98 102 79 102 c 256,155,156
 61 102 61 102 49 117 c 128,-1,157
 37 132 37 132 37 154 c 0,158,159
 37 174 37 174 48 188 c 0,160,161
 58 201 58 201 75 205 c 1,162,163
 58 207 58 207 48 221 c 0,164,165
 37 236 37 236 37 256 c 256,125,126
122 461 m 256,166,167
 122 483 122 483 134.5 497.5 c 128,-1,168
 147 512 147 512 165 512 c 256,169,170
 183 512 183 512 195.5 497 c 128,-1,171
 208 482 208 482 208 461 c 1,172,173
 208 483 208 483 220 497.5 c 128,-1,174
 232 512 232 512 250 512 c 0,175,176
 268 512 268 512 280 497 c 128,-1,177
 292 482 292 482 292 461 c 0,178,179
 292 439 292 439 280 424.5 c 128,-1,180
 268 410 268 410 250 410 c 0,181,182
 233 410 233 410 221 423 c 0,183,184
 210 435 210 435 208 456 c 1,185,186
 206 436 206 436 194 423 c 0,187,188
 182 410 182 410 165 410 c 0,189,190
 147 410 147 410 134.5 424.5 c 128,-1,191
 122 439 122 439 122 461 c 256,166,167
122 51 m 256,192,193
 122 73 122 73 134.5 87.5 c 128,-1,194
 147 102 147 102 165 102 c 256,195,196
 183 102 183 102 195 87 c 0,197,198
 206 74 206 74 208 55 c 1,199,200
 209 73 209 73 219 87 c 0,201,202
 231 102 231 102 250 102 c 256,203,204
 268 102 268 102 280 87.5 c 128,-1,205
 292 73 292 73 292 51 c 256,206,207
 292 29 292 29 280 14.5 c 128,-1,208
 268 0 268 0 250 0 c 0,209,210
 233 0 233 0 221 13 c 0,211,212
 210 25 210 25 208 46 c 1,213,214
 206 26 206 26 194 13 c 0,215,216
 182 0 182 0 165 0 c 0,217,218
 147 0 147 0 134.5 14.5 c 128,-1,219
 122 29 122 29 122 51 c 256,192,193
EndSplineSet
EndChar

